{"glyphs":{"0":{"ha":1017,"x_min":50,"x_max":967,"o":"m 511 204 q 642 272 603 204 q 682 478 682 339 l 682 518 q 641 724 682 656 q 508 792 600 792 q 376 724 418 792 q 335 518 335 657 l 335 476 q 377 271 335 338 q 511 204 419 204 m 503 -17 q 315 16 399 -17 q 172 113 231 49 q 82 267 114 175 q 50 475 50 358 l 50 517 q 85 726 50 635 q 181 879 119 817 q 326 974 242 942 q 508 1007 410 1007 q 690 976 606 1007 q 836 886 774 946 q 932 734 897 825 q 967 522 967 643 l 967 483 q 934 272 967 365 q 842 115 901 179 q 694 17 781 51 q 503 -17 608 -17 z "},"1":{"ha":625,"x_min":44,"x_max":518,"o":"m 233 713 l 44 596 l 44 833 l 272 993 l 518 993 l 518 0 l 233 0 l 233 713 z "},"2":{"ha":854,"x_min":11,"x_max":810,"o":"m 11 40 l 358 408 q 478 553 433 488 q 522 682 522 619 q 496 763 522 732 q 417 793 469 793 q 331 757 364 793 q 289 632 299 721 l 31 632 q 144 913 38 818 q 431 1007 250 1007 q 592 983 522 1007 q 708 918 661 960 q 778 819 754 876 q 803 693 803 761 q 789 597 803 642 q 751 510 775 551 q 692 427 726 467 q 615 347 657 388 l 476 213 l 810 213 l 810 0 l 11 0 l 11 40 z "},"3":{"ha":906,"x_min":39,"x_max":856,"o":"m 453 -17 q 145 74 246 -17 q 39 326 44 165 l 292 326 q 331 226 299 264 q 438 189 363 189 q 536 219 504 189 q 568 301 568 249 q 535 389 568 360 q 438 418 503 418 l 358 418 l 358 594 l 432 594 q 531 623 499 594 q 564 704 564 651 q 535 776 564 749 q 450 803 507 803 q 359 770 392 803 q 318 676 326 738 l 67 676 q 98 810 71 750 q 174 915 125 871 q 293 983 222 958 q 457 1007 364 1007 q 614 988 544 1007 q 732 933 683 968 q 805 847 779 897 q 831 735 831 797 q 786 598 831 651 q 663 521 742 544 q 802 445 749 503 q 856 296 856 388 q 753 69 856 154 q 453 -17 650 -17 z "},"4":{"ha":942,"x_min":25,"x_max":910,"o":"m 508 190 l 25 190 l 25 297 l 439 993 l 782 993 l 782 386 l 910 386 l 910 190 l 782 190 l 782 0 l 508 0 l 508 190 m 515 386 l 515 779 l 293 386 l 515 386 z "},"5":{"ha":876,"x_min":36,"x_max":829,"o":"m 426 -17 q 256 8 328 -17 q 136 78 183 33 q 63 183 88 122 q 36 313 39 243 l 294 313 q 306 265 299 286 q 329 229 314 244 q 366 206 343 214 q 424 197 389 197 q 515 238 486 197 q 543 338 543 278 q 508 442 543 404 q 408 479 474 479 q 308 458 347 479 q 244 408 269 438 l 75 408 l 96 993 l 765 993 l 765 785 l 301 785 l 296 565 q 379 638 324 606 q 528 671 435 671 q 651 649 596 671 q 747 583 707 626 q 808 477 786 540 q 829 333 829 414 q 801 190 829 254 q 722 79 774 125 q 595 8 669 33 q 426 -17 521 -17 z "},"6":{"ha":936,"x_min":50,"x_max":893,"o":"m 488 -17 q 285 19 368 -17 q 150 121 203 56 q 74 274 97 185 q 50 469 50 363 l 50 496 q 84 712 50 617 q 178 874 118 807 q 319 973 238 939 q 496 1007 401 1007 q 760 934 664 1007 q 872 714 857 861 l 611 714 q 581 774 604 750 q 506 797 558 797 q 380 729 424 797 q 332 535 336 661 q 419 618 365 586 q 564 650 472 650 q 692 630 632 650 q 796 569 751 610 q 867 469 840 529 q 893 332 893 410 q 865 189 893 253 q 786 79 838 125 q 658 8 733 33 q 488 -17 582 -17 m 485 185 q 581 225 544 185 q 617 329 617 265 q 582 432 617 392 q 485 472 547 472 q 386 432 422 472 q 350 332 350 392 q 386 225 350 265 q 485 185 422 185 z "},"7":{"ha":800,"x_min":33,"x_max":789,"o":"m 433 763 l 33 763 l 33 993 l 789 993 l 789 964 l 444 0 l 156 0 l 433 763 z "},"8":{"ha":913,"x_min":42,"x_max":871,"o":"m 456 -17 q 285 3 361 -17 q 154 60 208 22 q 71 153 100 97 q 42 281 42 208 q 88 429 42 367 q 222 524 133 492 q 120 603 157 553 q 83 729 83 654 q 113 847 83 796 q 194 935 143 899 q 314 988 246 969 q 458 1007 382 1007 q 606 989 538 1007 q 725 936 675 971 q 804 849 775 900 q 833 731 833 797 q 795 604 833 654 q 693 525 757 554 q 826 433 782 494 q 871 288 871 372 q 841 159 871 215 q 757 64 811 103 q 626 4 703 25 q 456 -17 550 -17 m 457 183 q 554 217 517 183 q 592 310 592 250 q 555 403 592 369 q 458 436 518 436 q 361 403 400 436 q 322 310 322 371 q 360 217 322 250 q 457 183 399 183 m 460 597 q 542 626 508 597 q 576 707 576 656 q 542 786 576 757 q 458 815 507 815 q 376 786 410 815 q 342 707 342 757 q 376 626 342 656 q 460 597 411 597 z "},"9":{"ha":938,"x_min":43,"x_max":886,"o":"m 447 -15 q 170 61 269 -15 q 56 281 71 138 l 317 281 q 349 219 324 243 q 433 196 375 196 q 562 261 522 196 q 604 454 601 326 q 522 370 572 403 q 379 338 471 338 q 247 358 308 338 q 140 419 185 378 q 69 519 94 460 q 43 658 43 579 q 72 801 43 736 q 153 911 100 865 q 281 983 206 957 q 451 1008 357 1008 q 644 973 563 1008 q 781 874 726 938 q 860 719 833 808 q 886 522 886 631 l 886 489 q 774 115 886 246 q 447 -15 661 -15 m 447 521 q 547 560 510 521 q 583 660 583 600 q 547 767 583 726 q 447 808 510 808 q 351 767 388 808 q 315 663 315 726 q 350 560 315 600 q 447 521 385 521 z "},"\u0000":{"ha":0,"x_min":0,"x_max":0,"o":""},"\r":{"ha":274,"x_min":0,"x_max":0,"o":""}," ":{"ha":274,"x_min":0,"x_max":0,"o":""},"\"":{"ha":642,"x_min":57,"x_max":586,"o":"m 57 993 l 290 993 l 261 611 l 85 611 l 57 993 m 351 993 l 586 993 l 557 611 l 381 611 l 351 993 z "},"#":{"ha":800,"x_min":54,"x_max":744,"o":"m 404 335 l 318 335 l 289 138 l 121 138 l 150 335 l 54 335 l 54 531 l 179 531 l 194 636 l 88 636 l 88 822 l 222 822 l 247 993 l 415 993 l 390 822 l 476 822 l 503 993 l 671 993 l 644 822 l 744 822 l 744 636 l 617 636 l 601 531 l 711 531 l 711 335 l 572 335 l 543 138 l 375 138 l 404 335 m 347 531 l 433 531 l 449 636 l 363 636 l 347 531 z "},"$":{"ha":899,"x_min":33,"x_max":860,"o":"m 400 -14 q 130 88 219 -1 q 33 314 40 176 l 290 314 q 319 231 296 265 q 400 183 342 196 l 400 386 q 244 423 310 399 q 138 485 179 447 q 76 576 96 522 q 56 701 56 629 q 79 817 56 764 q 149 911 103 871 q 257 975 193 950 q 400 1006 321 1000 l 400 1129 l 508 1129 l 508 1004 q 747 919 660 992 q 846 704 833 847 l 594 704 q 569 771 588 744 q 508 808 551 797 l 508 617 q 653 585 588 606 q 764 529 718 564 q 835 440 810 493 q 860 313 860 388 q 839 192 860 249 q 775 92 818 135 q 665 19 732 47 q 508 -14 599 -8 l 508 -187 l 400 -187 l 400 -14 m 601 282 q 583 336 601 317 q 508 368 564 356 l 508 183 q 578 219 554 193 q 601 282 601 244 m 306 722 q 324 665 306 686 q 400 633 343 644 l 400 811 q 329 779 353 803 q 306 722 306 756 z "},"%":{"ha":1149,"x_min":35,"x_max":1114,"o":"m 299 650 q 358 679 338 650 q 378 757 378 708 q 358 834 378 806 q 299 863 338 863 q 238 835 260 863 q 217 758 217 807 q 238 678 217 706 q 299 650 260 650 m 297 506 q 188 525 236 506 q 106 578 139 544 q 53 657 71 611 q 35 757 35 703 q 55 855 35 810 q 111 933 75 900 q 194 985 146 967 q 299 1004 242 1004 q 402 986 354 1004 q 486 936 450 968 q 541 858 521 903 q 561 761 561 814 q 542 660 561 707 q 490 579 524 614 q 406 525 456 544 q 297 506 357 506 m 853 993 l 989 993 l 300 0 l 164 0 l 853 993 m 851 129 q 912 158 892 129 q 932 236 932 186 q 912 313 932 285 q 851 340 892 340 q 792 313 814 340 q 771 236 771 285 q 792 156 771 183 q 851 129 814 129 m 850 -17 q 740 3 789 -17 q 658 56 692 22 q 606 135 624 89 q 588 235 588 181 q 608 333 588 288 q 664 411 628 378 q 747 463 699 444 q 851 482 794 482 q 956 464 907 482 q 1039 414 1004 446 q 1094 338 1074 382 q 1114 239 1114 293 q 1095 138 1114 185 q 1043 57 1076 92 q 959 3 1008 22 q 850 -17 910 -17 z "},"&":{"ha":1058,"x_min":44,"x_max":1043,"o":"m 878 203 l 1043 0 l 719 0 l 661 72 q 552 9 614 35 q 393 -17 490 -17 q 249 3 314 -17 q 140 63 185 24 q 69 157 94 101 q 44 283 44 213 q 101 451 44 379 q 263 572 157 522 q 216 664 231 618 q 201 746 201 710 q 226 858 201 810 q 296 940 251 907 q 397 989 339 972 q 521 1006 456 1006 q 635 991 581 1006 q 731 947 689 976 q 797 874 772 918 q 822 774 822 831 q 773 633 822 694 q 624 528 724 571 l 749 375 l 821 517 l 1038 517 l 878 203 m 436 190 q 490 201 465 190 q 533 232 514 211 l 376 421 q 329 379 349 404 q 310 314 310 354 q 342 225 310 260 q 436 190 374 190 m 446 743 q 461 689 446 715 q 503 632 476 663 q 577 686 553 656 q 601 753 601 717 q 581 808 601 786 q 528 829 561 829 q 469 806 492 829 q 446 743 446 783 z "},"'":{"ha":356,"x_min":57,"x_max":300,"o":"m 57 993 l 300 993 l 271 611 l 85 611 l 57 993 z "},"(":{"ha":494,"x_min":53,"x_max":478,"o":"m 283 -206 q 202 -94 243 -157 q 128 47 161 -32 q 74 223 94 126 q 53 435 53 319 q 74 648 53 551 q 128 824 94 744 q 202 965 161 903 q 283 1076 243 1028 l 478 1076 q 410 958 443 1024 q 350 813 376 892 q 307 638 324 732 q 290 435 290 544 q 307 233 290 326 q 350 60 324 139 q 410 -87 376 -21 q 478 -206 443 -153 l 283 -206 z "},")":{"ha":494,"x_min":15,"x_max":442,"o":"m 15 -204 q 84 -85 50 -151 q 144 61 118 -19 q 187 234 171 140 q 203 438 203 328 q 187 640 203 546 q 144 814 171 733 q 84 959 118 893 q 15 1078 50 1025 l 210 1078 q 292 967 250 1029 q 367 825 333 904 q 421 650 400 746 q 442 438 442 554 q 421 224 442 321 q 367 49 400 128 q 292 -93 333 -31 q 210 -204 250 -156 l 15 -204 z "},"*":{"ha":611,"x_min":40,"x_max":572,"o":"m 79 621 l 203 746 l 40 764 l 88 935 l 240 861 l 207 1032 l 406 1032 l 372 861 l 524 935 l 572 764 l 408 746 l 532 621 l 383 514 l 306 674 l 229 514 l 79 621 z "},"+":{"ha":792,"x_min":51,"x_max":740,"o":"m 296 382 l 51 382 l 51 563 l 296 563 l 296 829 l 496 829 l 496 563 l 740 563 l 740 382 l 496 382 l 496 115 l 296 115 l 296 382 z "},",":{"ha":425,"x_min":22,"x_max":369,"o":"m 22 -112 l 139 253 l 369 171 l 169 -169 l 22 -112 z "},"-":{"ha":531,"x_min":71,"x_max":460,"o":"m 71 490 l 460 490 l 460 303 l 71 303 l 71 490 z "},".":{"ha":415,"x_min":64,"x_max":351,"o":"m 206 -15 q 149 -4 175 -15 q 104 26 122 7 q 74 70 85 44 q 64 125 64 96 q 74 180 64 154 q 104 225 85 206 q 149 254 122 243 q 206 265 175 265 q 263 254 236 265 q 310 225 290 243 q 340 180 329 206 q 351 125 351 154 q 340 70 351 96 q 310 26 329 44 q 263 -4 290 7 q 206 -15 236 -15 z "},"/":{"ha":603,"x_min":-33,"x_max":606,"o":"m 407 1078 l 606 1078 l 164 -206 l -33 -206 l 407 1078 z "},":":{"ha":424,"x_min":68,"x_max":356,"o":"m 210 -15 q 153 -4 179 -15 q 110 26 128 7 q 79 70 90 44 q 68 125 68 96 q 79 180 68 154 q 110 225 90 206 q 153 254 128 243 q 210 265 179 265 q 267 254 240 265 q 314 225 294 243 q 344 180 333 206 q 356 125 356 154 q 344 70 356 96 q 314 26 333 44 q 267 -4 294 7 q 210 -15 240 -15 m 210 382 q 108 422 149 382 q 68 522 68 463 q 79 577 68 551 q 110 622 90 603 q 153 651 128 640 q 210 663 179 663 q 267 651 240 663 q 314 622 294 640 q 344 577 333 603 q 356 522 356 551 q 314 422 356 463 q 210 382 272 382 z "},";":{"ha":446,"x_min":14,"x_max":388,"o":"m 14 -112 l 129 253 l 360 171 l 161 -169 l 14 -112 m 242 382 q 140 422 179 382 q 100 522 100 463 q 110 577 100 551 q 140 622 121 603 q 185 651 158 640 q 242 663 211 663 q 299 651 272 663 q 346 622 326 640 q 376 577 365 603 q 388 522 388 551 q 346 422 388 463 q 242 382 304 382 z "},"<":{"ha":713,"x_min":58,"x_max":643,"o":"m 58 424 l 58 471 l 643 813 l 643 588 l 379 449 l 643 301 l 643 82 l 58 424 z "},"=":{"ha":774,"x_min":54,"x_max":719,"o":"m 54 401 l 719 401 l 719 232 l 54 232 l 54 401 m 54 675 l 719 675 l 719 506 l 54 506 l 54 675 z "},">":{"ha":713,"x_min":68,"x_max":654,"o":"m 68 310 l 333 447 l 68 594 l 68 814 l 654 472 l 654 425 l 68 83 l 68 310 z "},"?":{"ha":772,"x_min":25,"x_max":731,"o":"m 235 353 q 247 425 235 392 q 279 486 260 458 q 323 538 299 514 q 371 586 347 563 q 434 653 407 621 q 461 722 461 686 q 440 785 461 764 q 376 806 419 806 q 303 774 332 806 q 267 683 274 742 l 25 683 q 56 823 28 763 q 133 925 83 883 q 249 986 182 965 q 396 1007 315 1007 q 644 939 557 1007 q 731 746 731 871 q 701 627 731 676 q 629 538 671 578 q 578 489 604 513 q 529 443 551 465 q 490 396 506 419 q 469 347 474 372 l 469 326 l 235 326 l 235 353 m 353 -15 q 294 -5 321 -15 q 247 25 267 6 q 215 68 226 43 q 203 122 203 93 q 215 176 203 151 q 247 221 226 201 q 294 250 267 239 q 353 261 321 261 q 410 250 383 261 q 457 221 436 239 q 488 176 476 201 q 500 122 500 151 q 488 68 500 93 q 457 25 476 43 q 410 -5 436 6 q 353 -15 383 -15 z "},"@":{"ha":1279,"x_min":39,"x_max":1239,"o":"m 639 -219 q 387 -175 499 -219 q 199 -54 275 -131 q 80 127 121 24 q 39 349 39 231 q 91 599 39 486 q 229 793 143 713 q 428 916 315 872 q 665 960 542 960 q 894 924 789 960 q 1076 821 999 888 q 1196 661 1153 754 q 1239 454 1239 568 q 1213 278 1239 350 q 1146 160 1188 206 q 1049 93 1103 114 q 939 72 994 72 q 799 101 847 72 q 735 186 750 131 q 661 100 707 131 q 549 69 615 69 q 384 138 446 69 q 322 328 322 207 q 344 462 322 401 q 403 565 365 522 q 490 631 440 607 q 597 654 540 654 q 698 630 663 654 q 749 571 733 606 l 758 643 l 963 643 l 915 264 q 924 196 910 219 q 976 172 939 172 q 1033 188 1006 172 q 1081 239 1060 204 q 1115 326 1101 272 q 1128 457 1128 381 q 1095 622 1128 547 q 1003 751 1063 697 q 858 833 943 804 q 668 863 774 863 q 467 826 561 863 q 306 724 374 790 q 197 560 236 656 q 157 347 157 465 q 188 163 157 249 q 279 13 218 76 q 432 -87 340 -51 q 644 -122 524 -122 q 858 -86 767 -122 q 1001 0 949 -50 l 1128 0 q 1042 -90 1093 -50 q 929 -160 992 -131 q 793 -204 867 -189 q 639 -219 719 -219 m 615 233 q 694 278 661 233 q 726 394 726 322 q 704 467 726 440 q 638 493 682 493 q 560 450 590 493 q 531 336 531 407 q 552 263 531 292 q 615 233 574 233 z "},"A":{"ha":1038,"x_min":18,"x_max":1019,"o":"m 336 993 l 704 993 l 1019 0 l 718 0 l 665 185 l 336 185 l 283 0 l 18 0 l 336 993 m 392 381 l 610 381 l 501 763 l 392 381 z "},"B":{"ha":943,"x_min":96,"x_max":904,"o":"m 96 993 l 539 993 q 690 974 626 993 q 794 921 754 956 q 854 839 835 886 q 874 733 874 792 l 874 728 q 832 590 874 643 q 706 514 790 536 q 851 442 797 499 q 904 282 904 386 l 904 276 q 816 72 904 143 q 543 0 728 0 l 96 0 l 96 993 m 492 190 q 592 220 560 190 q 624 306 624 250 l 624 311 q 591 397 624 368 q 483 425 558 425 l 374 425 l 374 190 l 492 190 m 482 599 q 576 623 549 599 q 604 700 604 647 l 604 706 q 576 781 604 757 q 482 804 547 804 l 374 804 l 374 599 l 482 599 z "},"C":{"ha":1054,"x_min":44,"x_max":1025,"o":"m 563 -17 q 335 19 432 -17 q 174 122 238 56 q 76 283 108 189 q 44 490 44 376 l 44 501 q 83 709 44 615 q 189 869 121 803 q 350 972 257 936 q 551 1008 443 1008 q 729 985 649 1008 q 871 917 810 963 q 967 797 931 869 q 1013 626 1004 725 l 719 626 q 669 743 711 703 q 553 783 628 783 q 401 711 457 783 q 344 503 344 639 l 344 492 q 399 284 344 357 q 557 211 454 211 q 681 251 632 211 q 742 374 731 290 l 1025 374 q 981 204 1018 278 q 883 82 943 131 q 740 8 822 33 q 563 -17 658 -17 z "},"D":{"ha":1032,"x_min":96,"x_max":989,"o":"m 447 219 q 633 287 575 219 q 692 493 692 354 l 692 504 q 633 710 692 647 q 444 774 575 774 l 382 774 l 382 219 l 447 219 m 96 993 l 457 993 q 855 866 721 993 q 989 508 989 739 l 989 497 q 955 289 989 381 q 854 133 921 197 q 686 34 786 68 q 456 0 586 0 l 96 0 l 96 993 z "},"E":{"ha":850,"x_min":96,"x_max":804,"o":"m 96 993 l 782 993 l 782 774 l 379 774 l 379 603 l 700 603 l 700 400 l 379 400 l 379 219 l 804 219 l 804 0 l 96 0 l 96 993 z "},"F":{"ha":804,"x_min":96,"x_max":767,"o":"m 96 993 l 767 993 l 767 772 l 382 772 l 382 561 l 689 561 l 689 351 l 382 351 l 382 0 l 96 0 l 96 993 z "},"G":{"ha":1093,"x_min":43,"x_max":1050,"o":"m 564 -17 q 340 21 438 -17 q 178 126 243 58 q 77 286 111 193 q 43 490 43 379 l 43 501 q 83 708 43 615 q 192 868 122 801 q 356 972 261 935 q 564 1008 451 1008 q 732 988 651 1008 q 876 922 813 967 q 979 809 939 878 q 1026 643 1019 740 l 744 643 q 690 749 735 714 q 565 785 644 785 q 400 708 460 785 q 340 497 340 632 l 340 486 q 352 373 340 425 q 392 283 364 321 q 463 222 419 244 q 572 200 507 200 q 660 213 624 200 q 721 246 697 225 q 756 294 744 267 q 769 350 767 321 l 583 350 l 583 549 l 1050 549 l 1050 426 q 1019 251 1050 332 q 928 110 989 169 q 776 17 867 50 q 564 -17 685 -17 z "},"H":{"ha":1089,"x_min":96,"x_max":993,"o":"m 96 993 l 382 993 l 382 614 l 708 614 l 708 993 l 993 993 l 993 0 l 708 0 l 708 392 l 382 392 l 382 0 l 96 0 l 96 993 z "},"I":{"ha":489,"x_min":101,"x_max":389,"o":"m 101 993 l 389 993 l 389 0 l 101 0 l 101 993 z "},"J":{"ha":664,"x_min":46,"x_max":582,"o":"m 226 -12 q 116 -3 156 -12 q 46 21 76 6 l 46 233 q 97 219 71 225 q 167 214 124 214 q 260 244 225 214 q 296 351 296 274 l 296 993 l 582 993 l 582 349 q 492 78 582 168 q 226 -12 403 -12 z "},"K":{"ha":1008,"x_min":96,"x_max":997,"o":"m 96 993 l 382 993 l 382 600 l 681 993 l 978 993 l 614 532 l 997 0 l 668 0 l 382 415 l 382 0 l 96 0 l 96 993 z "},"L":{"ha":799,"x_min":96,"x_max":757,"o":"m 96 993 l 382 993 l 382 221 l 757 221 l 757 0 l 96 0 l 96 993 z "},"M":{"ha":1308,"x_min":96,"x_max":1211,"o":"m 96 993 l 467 993 l 657 464 l 847 993 l 1211 993 l 1211 0 l 928 0 l 928 618 l 685 0 l 590 0 l 350 618 l 350 0 l 96 0 l 96 993 z "},"N":{"ha":1079,"x_min":96,"x_max":983,"o":"m 96 993 l 417 993 l 735 433 l 735 993 l 983 993 l 983 0 l 708 0 l 346 624 l 346 0 l 96 0 l 96 993 z "},"O":{"ha":1138,"x_min":43,"x_max":1094,"o":"m 569 207 q 736 283 675 207 q 797 493 797 358 l 797 504 q 735 711 797 638 q 568 785 674 785 q 401 712 463 785 q 340 503 340 639 l 340 492 q 403 281 340 356 q 569 207 465 207 m 564 -17 q 347 21 443 -17 q 183 125 251 58 q 79 285 115 192 q 43 490 43 378 l 43 501 q 83 708 43 615 q 194 868 124 801 q 361 971 265 935 q 568 1007 457 1007 q 778 972 682 1007 q 946 874 875 938 q 1055 716 1015 808 q 1094 508 1094 624 l 1094 497 q 1057 288 1094 382 q 950 126 1019 193 q 783 21 881 58 q 564 -17 685 -17 z "},"P":{"ha":906,"x_min":96,"x_max":872,"o":"m 96 993 l 474 993 q 775 906 678 993 q 872 661 872 819 l 872 656 q 772 417 872 499 q 486 335 672 335 l 379 335 l 379 0 l 96 0 l 96 993 m 461 529 q 567 560 532 529 q 601 654 601 592 l 601 660 q 565 751 601 724 q 463 779 529 779 l 379 779 l 379 529 l 461 529 z "},"Q":{"ha":1138,"x_min":43,"x_max":1094,"o":"m 690 -4 q 628 -14 660 -11 q 564 -17 597 -17 q 347 21 443 -17 q 183 125 251 58 q 79 285 115 192 q 43 490 43 378 l 43 501 q 83 708 43 615 q 194 868 124 801 q 361 971 265 935 q 568 1007 457 1007 q 778 972 682 1007 q 946 874 875 938 q 1055 716 1015 808 q 1094 508 1094 624 l 1094 497 q 1046 263 1094 367 q 910 92 997 160 l 1010 -8 l 851 -167 l 690 -4 m 340 492 q 378 310 340 379 q 483 214 417 240 l 643 361 l 732 271 q 781 365 765 310 q 797 493 797 421 l 797 504 q 735 711 797 638 q 568 785 674 785 q 401 712 463 785 q 340 503 340 639 l 340 492 z "},"R":{"ha":968,"x_min":96,"x_max":947,"o":"m 96 993 l 485 993 q 785 915 681 993 q 889 678 889 836 l 889 672 q 838 503 889 565 q 710 411 788 442 l 947 0 l 647 0 l 446 356 l 379 356 l 379 0 l 96 0 l 96 993 m 471 540 q 578 571 543 540 q 614 661 614 601 l 614 667 q 578 753 614 728 q 472 779 542 779 l 379 779 l 379 540 l 471 540 z "},"S":{"ha":899,"x_min":32,"x_max":860,"o":"m 460 -17 q 144 68 250 -17 q 32 315 39 153 l 303 315 q 314 265 306 289 q 340 225 322 242 q 386 197 357 207 q 460 186 415 186 q 555 213 522 186 q 588 285 588 240 q 580 323 588 307 q 554 350 572 339 q 506 367 536 360 q 431 381 475 374 q 253 416 325 393 q 139 476 182 439 q 75 568 94 514 q 56 697 56 622 q 82 821 56 764 q 158 919 108 878 q 280 984 208 961 q 440 1007 351 1007 q 719 931 621 1007 q 832 697 818 856 l 568 697 q 530 777 561 750 q 440 804 499 804 q 353 781 382 804 q 325 719 325 757 q 332 683 325 699 q 357 657 339 668 q 403 636 374 644 q 479 622 433 628 q 644 592 574 611 q 764 539 715 574 q 835 449 811 503 q 860 314 860 394 q 833 185 860 246 q 756 81 807 125 q 630 10 704 36 q 460 -17 556 -17 z "},"T":{"ha":858,"x_min":29,"x_max":829,"o":"m 286 774 l 29 774 l 29 993 l 829 993 l 829 774 l 572 774 l 572 0 l 286 0 l 286 774 z "},"U":{"ha":1061,"x_min":89,"x_max":972,"o":"m 529 -17 q 203 88 318 -17 q 89 403 89 193 l 89 993 l 374 993 l 374 415 q 406 258 374 310 q 529 207 439 207 q 651 257 618 207 q 685 419 685 307 l 685 993 l 972 993 l 972 407 q 942 219 972 299 q 854 88 911 139 q 714 9 796 35 q 529 -17 632 -17 z "},"V":{"ha":1011,"x_min":17,"x_max":994,"o":"m 17 993 l 324 993 l 525 296 l 728 993 l 994 993 l 669 0 l 346 0 l 17 993 z "},"W":{"ha":1383,"x_min":19,"x_max":1364,"o":"m 19 993 l 307 993 l 435 374 l 568 993 l 821 993 l 965 368 l 1100 993 l 1364 993 l 1132 0 l 835 0 l 682 631 l 528 0 l 250 0 l 19 993 z "},"X":{"ha":1049,"x_min":31,"x_max":1018,"o":"m 338 511 l 54 993 l 378 993 l 533 697 l 686 993 l 978 993 l 711 521 l 1018 0 l 693 0 l 508 342 l 324 0 l 31 0 l 338 511 z "},"Y":{"ha":940,"x_min":11,"x_max":929,"o":"m 335 425 l 11 993 l 321 993 l 489 658 l 657 993 l 929 993 l 621 425 l 621 0 l 335 0 l 335 425 z "},"Z":{"ha":871,"x_min":18,"x_max":844,"o":"m 18 32 l 440 775 l 72 775 l 72 993 l 844 993 l 844 963 l 428 219 l 824 219 l 824 0 l 18 0 l 18 32 z "},"[":{"ha":568,"x_min":92,"x_max":515,"o":"m 92 1078 l 515 1078 l 515 896 l 342 896 l 342 -24 l 515 -24 l 515 -206 l 92 -206 l 92 1078 z "},"\\":{"ha":603,"x_min":-3,"x_max":636,"o":"m -3 1078 l 196 1078 l 636 -206 l 439 -206 l -3 1078 z "},"]":{"ha":568,"x_min":54,"x_max":476,"o":"m 54 -24 l 226 -24 l 226 896 l 54 896 l 54 1078 l 476 1078 l 476 -206 l 54 -206 l 54 -24 z "},"^":{"ha":738,"x_min":32,"x_max":706,"o":"m 260 993 l 478 993 l 706 546 l 493 546 l 367 790 l 240 546 l 32 546 l 260 993 z "},"_":{"ha":603,"x_min":-1,"x_max":604,"o":"m -1 -104 l 604 -104 l 604 -224 l -1 -224 l -1 -104 z "},"`":{"ha":556,"x_min":53,"x_max":376,"o":"m 53 1040 l 303 1040 l 376 810 l 199 810 l 53 1040 z "},"a":{"ha":803,"x_min":32,"x_max":735,"o":"m 278 -17 q 185 -4 229 -17 q 107 35 140 8 q 52 102 72 61 q 32 201 32 143 q 134 384 32 329 q 418 439 236 439 l 488 439 l 488 456 q 469 540 488 508 q 392 571 451 571 q 319 545 340 571 q 293 485 297 519 l 60 485 q 91 599 64 550 q 164 682 118 649 q 270 730 208 714 q 407 746 332 746 q 542 730 482 746 q 646 681 603 714 q 712 595 689 647 q 735 471 735 543 l 735 0 l 493 0 l 493 85 q 416 14 467 44 q 278 -17 365 -17 m 364 151 q 452 179 417 151 q 488 254 488 207 l 488 299 l 422 299 q 313 281 347 299 q 278 219 278 264 q 299 169 278 188 q 364 151 319 151 z "},"b":{"ha":893,"x_min":74,"x_max":856,"o":"m 547 -17 q 408 19 465 -17 q 322 113 350 54 l 322 0 l 74 0 l 74 1046 l 322 1046 l 322 618 q 410 708 354 671 q 549 746 465 746 q 668 722 613 746 q 765 651 724 699 q 831 533 807 604 q 856 369 856 463 l 856 358 q 831 194 856 264 q 765 78 807 124 q 667 7 724 31 q 547 -17 611 -17 m 460 174 q 567 221 531 174 q 603 358 603 268 l 603 369 q 565 512 603 465 q 460 558 526 558 q 353 510 392 558 q 315 371 315 463 l 315 360 q 353 220 315 267 q 460 174 392 174 z "},"c":{"ha":810,"x_min":35,"x_max":782,"o":"m 417 -17 q 265 7 335 -17 q 144 78 196 31 q 64 193 93 124 q 35 354 35 263 l 35 365 q 65 526 35 456 q 149 646 96 597 q 272 720 201 694 q 422 746 342 746 q 551 731 489 746 q 661 681 613 715 q 741 588 710 644 q 778 447 772 531 l 544 447 q 509 526 536 499 q 428 553 482 553 q 325 506 361 553 q 289 368 289 460 l 289 357 q 325 213 289 261 q 432 165 361 165 q 518 196 485 165 q 558 286 551 226 l 782 286 q 685 66 776 149 q 417 -17 593 -17 z "},"d":{"ha":892,"x_min":38,"x_max":818,"o":"m 343 -17 q 225 6 281 -17 q 128 75 169 29 q 62 191 86 121 q 38 356 38 261 l 38 367 q 61 531 38 460 q 126 650 85 601 q 224 722 168 697 q 346 746 281 746 q 485 713 432 746 q 569 624 538 679 l 569 1046 l 818 1046 l 818 0 l 569 0 l 569 118 q 484 22 542 61 q 343 -17 426 -17 m 431 174 q 538 220 499 174 q 576 360 576 267 l 576 371 q 540 510 576 463 q 433 558 503 558 q 326 511 363 558 q 290 369 290 464 l 290 358 q 328 220 290 267 q 431 174 365 174 z "},"e":{"ha":831,"x_min":35,"x_max":797,"o":"m 429 -17 q 271 8 343 -17 q 147 79 199 32 q 65 196 94 126 q 35 354 35 265 l 35 365 q 65 523 35 453 q 149 643 96 593 q 274 719 201 693 q 428 746 346 746 q 569 724 503 746 q 688 656 636 701 q 767 539 738 610 q 797 371 797 468 l 797 306 l 286 306 q 331 194 292 233 q 438 154 371 154 q 528 179 500 154 q 564 240 557 204 l 797 240 q 688 50 781 117 q 429 -17 594 -17 m 556 446 q 521 547 553 513 q 428 582 489 582 q 335 547 371 582 q 289 446 299 513 l 556 446 z "},"f":{"ha":536,"x_min":19,"x_max":510,"o":"m 111 557 l 19 557 l 19 726 l 111 726 l 111 790 q 189 991 111 925 q 396 1057 267 1057 q 458 1053 431 1057 q 510 1042 485 1049 l 510 860 q 479 867 496 864 q 442 869 463 869 q 378 848 397 869 q 358 790 358 826 l 358 726 l 506 726 l 506 557 l 358 557 l 358 0 l 111 0 l 111 557 z "},"g":{"ha":890,"x_min":33,"x_max":817,"o":"m 414 -269 q 253 -251 321 -269 q 139 -197 185 -232 q 66 -112 92 -161 q 33 0 40 -62 l 281 0 q 317 -67 289 -40 q 414 -94 346 -94 q 533 -52 497 -94 q 568 58 568 -10 l 568 169 q 533 119 554 143 q 483 78 511 96 q 419 47 454 58 q 343 36 383 36 q 223 59 279 36 q 125 126 167 82 q 59 236 83 171 q 35 385 35 301 l 35 396 q 59 541 35 476 q 125 651 83 606 q 223 722 167 697 q 343 746 279 746 q 483 713 431 746 q 568 624 536 679 l 568 726 l 817 726 l 817 61 q 713 -186 817 -103 q 414 -269 610 -269 m 431 219 q 536 264 497 219 q 575 386 575 308 l 575 396 q 538 515 575 471 q 432 560 501 560 q 325 515 361 560 q 289 394 289 469 l 289 383 q 326 264 289 308 q 431 219 364 219 z "},"h":{"ha":867,"x_min":74,"x_max":799,"o":"m 74 1046 l 322 1046 l 322 610 q 410 706 351 667 q 561 746 469 746 q 733 678 667 746 q 799 472 799 611 l 799 0 l 550 0 l 550 422 q 525 515 550 485 q 446 544 500 544 q 356 511 390 544 q 322 407 322 478 l 322 0 l 74 0 l 74 1046 z "},"i":{"ha":410,"x_min":68,"x_max":342,"o":"m 81 726 l 329 726 l 329 0 l 81 0 l 81 726 m 204 796 q 107 832 146 796 q 68 924 68 868 q 107 1016 68 979 q 204 1053 146 1053 q 302 1016 263 1053 q 342 924 342 979 q 302 832 342 868 q 204 796 263 796 z "},"j":{"ha":410,"x_min":-8,"x_max":342,"o":"m -8 -75 q 59 -52 38 -72 q 81 11 81 -32 l 81 726 l 328 726 l 328 6 q 313 -101 328 -53 q 258 -185 297 -150 q 155 -237 219 -218 q -8 -256 90 -256 l -8 -75 m 204 796 q 107 832 146 796 q 68 924 68 868 q 107 1016 68 979 q 204 1053 146 1053 q 302 1016 263 1053 q 342 924 342 979 q 302 832 342 868 q 204 796 263 796 z "},"k":{"ha":801,"x_min":74,"x_max":796,"o":"m 74 1046 l 322 1046 l 322 439 l 518 726 l 776 726 l 539 400 l 796 0 l 518 0 l 322 318 l 322 0 l 74 0 l 74 1046 z "},"l":{"ha":408,"x_min":81,"x_max":328,"o":"m 81 1046 l 328 1046 l 328 0 l 81 0 l 81 1046 z "},"m":{"ha":1293,"x_min":74,"x_max":1225,"o":"m 74 726 l 322 726 l 322 615 q 408 707 351 668 q 550 746 465 746 q 672 716 622 746 q 747 625 721 686 q 856 717 794 689 q 988 746 918 746 q 1083 729 1039 746 q 1158 679 1126 713 q 1207 594 1189 644 q 1225 475 1225 543 l 1225 0 l 976 0 l 976 433 q 951 516 976 489 q 883 543 926 543 q 803 512 833 543 q 772 421 772 481 l 772 0 l 526 0 l 526 433 q 501 516 526 489 q 433 543 476 543 q 353 512 383 543 q 322 421 322 481 l 322 0 l 74 0 l 74 726 z "},"n":{"ha":867,"x_min":74,"x_max":799,"o":"m 74 726 l 322 726 l 322 610 q 410 706 351 667 q 561 746 469 746 q 733 678 667 746 q 799 472 799 611 l 799 0 l 550 0 l 550 422 q 525 515 550 485 q 446 544 500 544 q 356 511 390 544 q 322 407 322 478 l 322 0 l 74 0 l 74 726 z "},"o":{"ha":864,"x_min":35,"x_max":829,"o":"m 433 168 q 540 217 504 168 q 576 358 576 267 l 576 369 q 540 510 576 461 q 433 560 504 560 q 326 512 363 560 q 289 372 289 464 l 289 361 q 325 217 289 267 q 433 168 361 168 m 432 -17 q 276 8 349 -17 q 150 81 203 33 q 65 197 96 128 q 35 354 35 267 l 35 365 q 65 523 35 453 q 150 643 96 593 q 276 719 203 693 q 433 746 349 746 q 590 720 517 746 q 715 646 663 694 q 799 528 768 597 q 829 372 829 458 l 829 361 q 799 202 829 272 q 715 83 768 132 q 588 9 661 35 q 432 -17 515 -17 z "},"p":{"ha":893,"x_min":74,"x_max":856,"o":"m 74 726 l 322 726 l 322 618 q 410 708 354 671 q 549 746 465 746 q 668 722 613 746 q 765 651 724 699 q 831 533 807 604 q 856 369 856 463 l 856 358 q 831 194 856 264 q 765 78 807 124 q 667 7 724 31 q 547 -17 611 -17 q 407 18 464 -17 q 322 107 350 53 l 322 -243 l 74 -243 l 74 726 m 460 174 q 567 221 531 174 q 603 358 603 268 l 603 369 q 565 512 603 465 q 460 558 526 558 q 353 510 392 558 q 315 371 315 463 l 315 360 q 353 220 315 267 q 460 174 392 174 z "},"q":{"ha":892,"x_min":38,"x_max":818,"o":"m 569 113 q 484 22 542 60 q 343 -17 426 -17 q 225 6 281 -17 q 128 75 169 29 q 62 191 86 121 q 38 356 38 261 l 38 367 q 61 531 38 460 q 126 650 85 601 q 224 722 168 697 q 346 746 281 746 q 485 713 432 746 q 569 624 538 679 l 569 726 l 818 726 l 818 -243 l 569 -243 l 569 113 m 431 174 q 538 220 499 174 q 576 360 576 267 l 576 371 q 540 510 576 463 q 433 558 503 558 q 326 511 363 558 q 290 369 290 464 l 290 358 q 328 220 290 267 q 431 174 365 174 z "},"r":{"ha":594,"x_min":74,"x_max":557,"o":"m 74 726 l 322 726 l 322 582 q 415 701 357 664 q 557 736 472 738 l 557 504 q 383 469 443 507 q 322 344 322 432 l 322 0 l 74 0 l 74 726 z "},"s":{"ha":715,"x_min":25,"x_max":688,"o":"m 358 -17 q 116 46 203 -17 q 25 231 29 108 l 254 231 q 283 169 261 190 q 357 149 304 149 q 424 165 403 149 q 446 208 446 181 q 416 249 446 235 q 311 274 386 263 q 185 299 238 283 q 100 343 133 315 q 51 410 67 369 q 35 507 35 450 q 60 612 35 567 q 128 688 85 657 q 226 731 169 717 q 346 746 283 746 q 469 733 413 746 q 567 693 525 721 q 634 621 608 665 q 667 511 660 576 l 442 511 q 413 565 435 547 q 349 583 392 583 q 288 567 308 583 q 267 526 267 551 q 294 488 267 500 q 389 467 322 475 q 520 442 464 457 q 614 400 576 426 q 669 332 651 372 q 688 233 688 292 q 599 44 688 104 q 358 -17 510 -17 z "},"t":{"ha":540,"x_min":19,"x_max":500,"o":"m 363 -17 q 173 44 239 -17 q 107 233 107 104 l 107 557 l 19 557 l 19 726 l 107 726 l 107 878 l 356 878 l 356 726 l 499 726 l 499 557 l 356 557 l 356 257 q 374 200 356 219 q 429 181 393 181 q 467 183 450 181 q 500 193 483 186 l 500 4 q 442 -10 476 -3 q 363 -17 407 -17 z "},"u":{"ha":865,"x_min":68,"x_max":792,"o":"m 313 -17 q 215 -1 260 -17 q 139 49 171 15 q 87 133 106 82 q 68 253 68 183 l 68 726 l 317 726 l 317 293 q 342 201 317 232 q 419 171 368 171 q 510 204 476 171 q 543 308 543 238 l 543 726 l 792 726 l 792 0 l 543 0 l 543 113 q 459 19 514 56 q 313 -17 404 -17 z "},"v":{"ha":824,"x_min":11,"x_max":814,"o":"m 11 726 l 276 726 l 428 258 l 576 726 l 814 726 l 549 0 l 278 0 l 11 726 z "},"w":{"ha":1174,"x_min":13,"x_max":1163,"o":"m 13 726 l 272 726 l 378 292 l 500 726 l 700 726 l 808 292 l 926 726 l 1163 726 l 932 0 l 694 0 l 586 406 l 474 0 l 232 0 l 13 726 z "},"x":{"ha":833,"x_min":15,"x_max":817,"o":"m 257 369 l 31 726 l 317 726 l 429 535 l 539 726 l 794 726 l 565 389 l 817 0 l 531 0 l 401 217 l 269 0 l 15 0 l 257 369 z "},"y":{"ha":818,"x_min":11,"x_max":807,"o":"m 301 74 l 11 726 l 281 726 l 431 339 l 569 726 l 807 726 l 418 -243 l 181 -243 l 301 74 z "},"z":{"ha":706,"x_min":14,"x_max":688,"o":"m 14 25 l 332 539 l 47 539 l 47 726 l 688 726 l 688 700 l 361 188 l 671 188 l 671 0 l 14 0 l 14 25 z "},"{":{"ha":581,"x_min":43,"x_max":528,"o":"m 528 -207 q 223 -131 317 -207 q 157 114 129 -54 l 178 232 q 155 315 186 281 q 43 350 124 350 l 43 524 q 155 558 124 524 q 178 640 186 592 l 157 757 q 223 1004 129 931 q 528 1078 317 1078 l 528 897 q 461 888 488 894 q 421 865 435 881 q 402 826 406 850 q 403 764 399 801 l 421 624 q 392 505 431 553 q 278 439 354 457 q 392 372 354 421 q 421 253 431 324 l 403 113 q 420 8 393 38 q 528 -25 447 -22 l 528 -207 z "},"|":{"ha":372,"x_min":99,"x_max":272,"o":"m 99 1078 l 272 1078 l 272 -206 l 99 -206 l 99 1078 z "},"}":{"ha":581,"x_min":53,"x_max":538,"o":"m 53 -25 q 160 8 133 -22 q 178 113 188 38 l 160 253 q 188 372 150 324 q 303 439 226 421 q 188 505 226 457 q 160 624 150 553 l 178 764 q 178 826 182 801 q 161 865 175 850 q 119 888 146 881 q 53 897 93 894 l 53 1078 q 235 1060 158 1078 q 358 1004 311 1043 q 421 905 404 965 q 424 757 438 844 l 403 640 q 426 558 394 592 q 538 524 457 524 l 538 350 q 426 315 457 350 q 403 232 394 281 l 424 114 q 358 -131 451 -54 q 53 -207 264 -207 l 53 -25 z "},"~":{"ha":719,"x_min":39,"x_max":681,"o":"m 39 297 q 61 424 43 372 q 108 510 79 476 q 172 557 136 542 q 244 572 207 572 q 313 563 282 572 q 371 542 344 553 q 417 521 396 531 q 457 511 439 511 q 500 527 485 511 q 519 575 515 543 l 681 575 q 660 454 678 506 q 614 368 642 403 q 551 317 586 333 q 478 300 515 300 q 408 310 439 300 q 351 331 376 319 q 303 351 325 342 q 264 361 282 361 q 221 344 236 361 q 200 297 206 326 l 39 297 z "}," ":{"ha":358,"x_min":0,"x_max":0,"o":""},"¡":{"ha":464,"x_min":89,"x_max":385,"o":"m 238 846 q 342 806 300 846 q 385 708 385 767 q 342 610 385 650 q 238 569 300 569 q 180 581 207 569 q 132 610 153 592 q 101 654 113 629 q 89 708 89 679 q 101 763 89 738 q 132 806 113 788 q 180 835 153 825 q 238 846 207 846 m 378 -162 l 97 -162 l 135 504 l 340 504 l 378 -162 z "},"¢":{"ha":826,"x_min":35,"x_max":801,"o":"m 382 -14 q 243 19 307 -7 q 133 93 179 46 q 61 204 88 139 q 35 354 35 269 l 35 365 q 61 513 35 447 q 135 628 88 579 q 245 704 182 675 q 382 742 308 733 l 382 874 l 490 874 l 490 743 q 605 717 551 738 q 700 661 658 697 q 766 571 740 624 q 797 447 792 518 l 569 447 q 543 517 564 489 q 490 556 522 544 l 490 161 q 554 203 529 172 q 583 286 579 235 l 801 286 q 714 80 794 160 q 490 -14 633 0 l 490 -187 l 382 -187 l 382 -14 m 281 357 q 307 230 281 278 q 382 164 333 182 l 382 554 q 308 491 335 538 q 281 368 281 444 l 281 357 z "},"£":{"ha":913,"x_min":25,"x_max":882,"o":"m 47 565 l 118 565 q 106 624 111 593 q 101 689 101 654 q 131 824 101 765 q 211 925 160 883 q 333 986 263 965 q 483 1007 403 1007 q 649 983 579 1007 q 767 915 719 958 q 836 809 813 871 q 864 672 860 747 l 604 672 q 569 764 596 735 q 493 793 543 793 q 413 761 443 793 q 383 674 383 729 q 386 619 383 646 q 393 565 389 593 l 639 565 l 639 399 l 421 399 q 425 360 424 379 q 426 321 426 340 q 423 278 426 297 q 413 239 419 258 q 480 218 449 228 q 539 208 511 208 q 602 229 581 208 q 626 290 624 250 l 882 290 q 860 169 879 225 q 804 74 840 114 q 715 10 768 33 q 594 -12 663 -12 q 499 -1 542 -12 q 422 24 457 10 q 357 49 386 38 q 303 60 328 60 q 254 42 271 60 q 235 0 238 25 l 25 0 q 66 148 31 81 q 172 244 101 215 q 181 281 178 261 q 183 321 183 300 q 181 358 183 339 q 172 399 178 378 l 47 399 l 47 565 z "},"¥":{"ha":897,"x_min":15,"x_max":882,"o":"m 89 507 l 281 507 l 15 993 l 324 993 l 468 669 l 611 993 l 882 993 l 629 507 l 824 507 l 824 407 l 599 407 l 599 338 l 824 338 l 824 238 l 599 238 l 599 0 l 314 0 l 314 238 l 89 238 l 89 338 l 314 338 l 314 407 l 89 407 l 89 507 z "},"§":{"ha":842,"x_min":31,"x_max":813,"o":"m 406 -190 q 181 -122 260 -190 q 97 64 103 -54 l 324 64 q 347 1 326 24 q 411 -22 367 -22 q 472 -5 451 -22 q 492 42 492 13 q 460 91 492 74 q 343 128 428 108 q 215 167 272 144 q 117 221 157 189 q 53 295 75 251 q 31 400 31 339 q 72 518 31 471 q 181 590 113 565 q 134 663 150 622 q 118 751 118 703 q 142 858 118 811 q 208 939 165 906 q 308 990 250 972 q 436 1007 367 1007 q 658 939 581 1007 q 742 753 736 871 l 517 753 q 494 815 513 793 q 431 836 475 836 q 371 818 390 836 q 351 772 351 800 q 358 743 351 756 q 381 722 364 731 q 425 703 397 713 q 496 685 453 694 q 624 648 565 668 q 724 597 682 628 q 789 522 765 567 q 813 414 813 478 q 772 297 813 344 q 663 222 731 250 q 708 152 693 192 q 724 63 724 113 q 701 -41 724 6 q 636 -121 678 -87 q 535 -172 593 -154 q 406 -190 476 -190 m 511 311 q 558 335 544 318 q 572 376 572 351 q 565 406 572 394 q 540 428 557 418 q 497 447 524 438 q 435 467 471 456 l 332 500 q 286 478 301 494 q 271 435 271 463 q 305 385 271 403 q 410 346 339 368 l 511 311 z "},"¨":{"ha":556,"x_min":11,"x_max":544,"o":"m 129 806 q 83 815 104 806 q 46 839 61 824 q 20 876 29 854 q 11 921 11 897 q 20 966 11 944 q 46 1004 29 988 q 83 1028 61 1019 q 129 1038 104 1038 q 214 1003 179 1038 q 249 921 249 969 q 214 839 249 872 q 129 806 179 806 m 425 806 q 341 839 375 806 q 307 921 307 872 q 341 1003 307 969 q 425 1038 375 1038 q 510 1003 475 1038 q 544 921 544 969 q 510 839 544 872 q 425 806 475 806 z "},"©":{"ha":1171,"x_min":51,"x_max":1119,"o":"m 594 210 q 373 287 446 210 q 300 492 300 364 l 300 503 q 322 619 300 567 q 383 707 344 671 q 474 763 421 743 q 589 783 526 783 q 771 731 700 783 q 850 565 842 679 l 672 565 q 647 627 668 607 q 589 647 626 647 q 511 611 539 647 q 483 503 483 575 l 483 493 q 511 385 483 422 q 592 347 539 347 q 656 367 629 347 q 686 432 682 388 l 857 432 q 778 266 850 322 q 594 210 706 210 m 583 43 q 757 76 675 43 q 900 169 839 108 q 997 313 961 229 q 1032 499 1032 396 q 997 682 1032 599 q 903 825 963 765 q 760 917 842 885 q 586 950 679 950 q 410 917 492 950 q 269 824 329 883 q 174 681 208 764 q 139 496 139 597 q 174 310 139 393 q 271 168 210 226 q 412 76 331 108 q 583 43 493 43 m 583 -28 q 376 13 472 -28 q 207 124 279 53 q 93 289 135 193 q 51 496 51 385 q 93 701 51 606 q 207 868 135 797 q 376 980 279 939 q 586 1021 474 1021 q 797 981 700 1021 q 967 869 894 940 q 1078 703 1038 799 q 1119 499 1119 608 q 1078 290 1119 386 q 964 124 1036 194 q 794 13 892 53 q 583 -28 696 -28 z "},"ª":{"ha":671,"x_min":38,"x_max":615,"o":"m 233 399 q 159 408 194 399 q 97 440 124 418 q 53 494 69 461 q 38 574 38 528 q 115 716 38 675 q 343 757 193 757 l 399 757 l 399 778 q 385 833 399 813 q 332 853 372 853 q 282 834 297 853 q 264 792 267 815 l 58 792 q 141 950 65 896 q 343 1004 217 1004 q 544 951 472 1004 q 615 785 615 899 l 615 414 l 403 414 l 403 479 q 344 424 383 450 q 233 399 304 399 m 314 546 q 374 565 350 546 q 399 615 399 583 l 399 647 l 349 647 q 277 634 301 647 q 253 593 253 621 q 268 558 253 569 q 314 546 283 546 z "},"«":{"ha":667,"x_min":43,"x_max":625,"o":"m 43 363 l 215 628 l 375 628 l 210 363 l 375 97 l 215 97 l 43 363 m 293 363 l 465 628 l 625 628 l 460 363 l 625 97 l 465 97 l 293 363 z "},"®":{"ha":718,"x_min":40,"x_max":678,"o":"m 240 854 l 365 854 q 460 830 429 854 q 492 756 492 806 l 492 754 q 478 703 492 722 q 440 674 464 685 l 510 550 l 410 550 l 354 654 l 338 654 l 338 550 l 240 550 l 240 854 m 358 717 q 388 725 378 717 q 397 749 397 733 l 397 750 q 388 773 397 765 q 358 781 378 781 l 338 781 l 338 717 l 358 717 m 358 443 q 460 462 413 443 q 542 515 507 481 q 597 595 576 549 q 617 699 617 642 q 597 801 617 754 q 544 883 578 849 q 462 935 510 917 q 358 954 414 954 q 255 935 301 954 q 174 882 208 917 q 120 800 139 847 q 101 697 101 753 q 122 594 101 640 q 176 514 142 547 q 257 462 210 481 q 358 443 304 443 m 358 390 q 234 414 292 390 q 133 479 176 438 q 65 576 90 519 q 40 697 40 632 q 65 818 40 761 q 133 917 90 875 q 233 983 175 958 q 358 1007 292 1007 q 485 983 426 1007 q 586 917 543 958 q 653 819 629 875 q 678 699 678 763 q 653 577 678 633 q 585 479 628 521 q 483 414 542 438 q 358 390 425 390 z "},"¯":{"ha":556,"x_min":64,"x_max":490,"o":"m 64 989 l 490 989 l 490 850 l 64 850 l 64 989 z "},"°":{"ha":629,"x_min":69,"x_max":560,"o":"m 315 626 q 406 667 371 626 q 442 765 442 707 q 406 868 442 828 q 315 908 371 908 q 222 868 258 908 q 186 765 186 828 q 222 667 186 707 q 315 626 258 626 m 315 529 q 219 548 264 529 q 142 600 175 567 q 89 674 108 632 q 69 765 69 717 q 89 859 69 815 q 142 936 108 903 q 219 987 175 968 q 315 1006 264 1006 q 410 987 365 1006 q 488 936 454 968 q 540 859 521 903 q 560 765 560 815 q 540 674 560 717 q 488 600 521 632 q 410 548 454 567 q 315 529 365 529 z "},"±":{"ha":792,"x_min":51,"x_max":743,"o":"m 296 474 l 51 474 l 51 656 l 296 656 l 296 883 l 496 883 l 496 656 l 740 656 l 740 474 l 496 474 l 496 244 l 296 244 l 296 474 m 51 164 l 743 164 l 743 0 l 51 0 l 51 164 z "},"´":{"ha":556,"x_min":179,"x_max":503,"o":"m 253 1040 l 503 1040 l 357 810 l 179 810 l 253 1040 z "},"¶":{"ha":765,"x_min":39,"x_max":668,"o":"m 356 457 l 344 457 q 122 522 206 457 q 39 719 39 588 q 61 840 39 789 q 125 926 83 892 q 222 976 165 960 q 344 993 278 993 l 668 993 l 668 -139 l 563 -139 l 563 904 l 460 904 l 460 -139 l 356 -139 l 356 457 z "},"·":{"ha":415,"x_min":64,"x_max":351,"o":"m 206 313 q 149 324 175 313 q 104 354 122 335 q 74 398 85 372 q 64 453 64 424 q 74 508 64 482 q 104 553 85 533 q 149 582 122 571 q 206 593 175 593 q 263 582 236 593 q 310 553 290 571 q 340 508 329 533 q 351 453 351 482 q 340 398 351 424 q 310 354 329 372 q 263 324 290 335 q 206 313 236 313 z "},"¸":{"ha":556,"x_min":107,"x_max":451,"o":"m 283 -314 q 163 -281 208 -314 q 107 -185 117 -247 l 224 -185 q 239 -212 228 -200 q 274 -224 250 -224 q 306 -212 294 -224 q 318 -182 318 -200 q 306 -151 318 -162 q 272 -139 294 -139 q 245 -144 256 -139 q 228 -154 235 -149 l 174 -101 l 240 0 l 340 0 l 297 -62 q 356 -65 328 -60 q 406 -86 383 -71 q 439 -124 426 -100 q 451 -182 451 -149 q 406 -279 451 -244 q 283 -314 360 -314 z "},"º":{"ha":725,"x_min":42,"x_max":683,"o":"m 364 560 q 437 595 413 560 q 461 699 461 631 l 461 707 q 437 809 461 775 q 364 843 413 843 q 290 810 315 843 q 264 710 264 776 l 264 701 q 289 596 264 632 q 364 560 314 560 m 363 399 q 236 418 294 399 q 135 475 178 438 q 67 567 92 513 q 42 693 42 622 l 42 701 q 67 828 42 772 q 135 924 92 885 q 237 983 178 963 q 364 1004 296 1004 q 489 984 431 1004 q 590 926 547 964 q 658 833 633 888 q 683 708 683 778 l 683 700 q 658 573 683 629 q 590 478 633 517 q 488 419 547 439 q 363 399 429 399 z "},"»":{"ha":667,"x_min":42,"x_max":625,"o":"m 208 363 l 42 628 l 201 628 l 375 363 l 201 97 l 42 97 l 208 363 m 458 363 l 292 628 l 451 628 l 625 363 l 451 97 l 292 97 l 458 363 z "},"¿":{"ha":772,"x_min":47,"x_max":753,"o":"m 543 479 q 531 407 543 440 q 499 346 518 374 q 455 294 479 318 q 407 246 431 269 q 344 179 371 211 q 317 110 317 146 q 338 47 317 68 q 401 26 358 26 q 475 58 446 26 q 511 149 504 90 l 753 149 q 722 9 750 69 q 644 -93 694 -51 q 529 -154 596 -133 q 382 -175 463 -175 q 134 -107 221 -175 q 47 86 47 -39 q 77 205 47 156 q 149 294 107 254 q 200 343 174 319 q 249 389 226 367 q 288 436 272 413 q 308 485 304 460 l 308 506 l 543 506 l 543 479 m 425 847 q 484 837 457 847 q 531 807 511 826 q 563 764 551 789 q 575 710 575 739 q 563 656 575 681 q 531 611 551 631 q 484 582 511 593 q 425 571 457 571 q 368 582 394 571 q 321 611 342 593 q 290 656 301 631 q 278 710 278 681 q 290 764 278 739 q 321 807 301 789 q 368 837 342 826 q 425 847 394 847 z "},"À":{"ha":1038,"x_min":13,"x_max":1014,"o":"m 331 993 l 699 993 l 1014 0 l 713 0 l 660 185 l 331 185 l 278 0 l 13 0 l 331 993 m 386 381 l 604 381 l 496 763 l 386 381 m 289 1257 l 547 1257 l 615 1054 l 428 1054 l 289 1257 z "},"Á":{"ha":1038,"x_min":18,"x_max":1019,"o":"m 336 993 l 704 993 l 1019 0 l 718 0 l 665 185 l 336 185 l 283 0 l 18 0 l 336 993 m 392 381 l 610 381 l 501 763 l 392 381 m 481 1257 l 740 1257 l 597 1054 l 410 1054 l 481 1257 z "},"Â":{"ha":1038,"x_min":18,"x_max":1019,"o":"m 336 993 l 704 993 l 1019 0 l 718 0 l 665 185 l 336 185 l 283 0 l 18 0 l 336 993 m 392 381 l 610 381 l 501 763 l 392 381 m 414 1257 l 622 1257 l 775 1054 l 594 1054 l 513 1122 l 432 1054 l 256 1054 l 414 1257 z "},"Ã":{"ha":1038,"x_min":18,"x_max":1019,"o":"m 336 993 l 704 993 l 1019 0 l 718 0 l 665 185 l 336 185 l 283 0 l 18 0 l 336 993 m 392 381 l 610 381 l 501 763 l 392 381 m 606 1053 q 552 1060 576 1053 q 508 1076 528 1068 q 472 1092 489 1085 q 439 1100 456 1100 q 410 1087 422 1100 q 396 1054 399 1074 l 254 1054 q 273 1149 258 1108 q 311 1215 288 1189 q 363 1254 333 1242 q 424 1267 392 1267 q 475 1260 451 1267 q 519 1244 499 1253 q 557 1228 539 1235 q 592 1221 575 1221 q 622 1233 611 1221 q 636 1265 632 1246 l 776 1265 q 757 1171 772 1211 q 719 1104 742 1131 q 666 1065 696 1078 q 606 1053 636 1053 z "},"Ä":{"ha":1038,"x_min":18,"x_max":1019,"o":"m 336 993 l 704 993 l 1019 0 l 718 0 l 665 185 l 336 185 l 283 0 l 18 0 l 336 993 m 392 381 l 610 381 l 501 763 l 392 381 m 360 1053 q 313 1062 335 1053 q 276 1086 292 1071 q 251 1123 260 1101 q 242 1168 242 1144 q 276 1251 242 1217 q 360 1285 311 1285 q 444 1251 410 1285 q 479 1168 479 1217 q 444 1086 479 1119 q 360 1053 410 1053 m 669 1053 q 585 1086 619 1053 q 551 1168 551 1119 q 585 1251 551 1217 q 669 1285 619 1285 q 754 1251 719 1285 q 789 1168 789 1217 q 754 1086 789 1119 q 669 1053 719 1053 z "},"Å":{"ha":1038,"x_min":13,"x_max":1014,"o":"m 331 993 l 699 993 l 1014 0 l 713 0 l 660 185 l 331 185 l 278 0 l 13 0 l 331 993 m 386 381 l 604 381 l 496 763 l 386 381 m 510 1125 q 556 1144 538 1125 q 574 1194 574 1164 q 556 1245 574 1226 q 510 1264 538 1264 q 463 1245 481 1264 q 446 1194 446 1226 q 463 1144 446 1164 q 510 1125 481 1125 m 510 1033 q 445 1047 475 1033 q 393 1082 415 1060 q 356 1132 369 1103 q 343 1194 343 1161 q 356 1257 343 1228 q 393 1308 369 1286 q 445 1343 415 1331 q 510 1356 475 1356 q 574 1343 544 1356 q 628 1308 604 1331 q 663 1257 650 1286 q 676 1194 676 1228 q 663 1132 676 1161 q 628 1082 650 1103 q 574 1047 604 1060 q 510 1033 544 1033 z "},"Æ":{"ha":1392,"x_min":15,"x_max":1347,"o":"m 461 993 l 1325 993 l 1325 774 l 932 774 l 932 603 l 1242 603 l 1242 400 l 932 400 l 932 219 l 1347 219 l 1347 0 l 647 0 l 647 203 l 374 203 l 286 0 l 15 0 l 461 993 m 456 394 l 647 394 l 647 774 l 619 774 l 456 394 z "},"Ç":{"ha":1054,"x_min":44,"x_max":1025,"o":"m 526 -314 q 406 -281 451 -314 q 350 -185 360 -247 l 467 -185 q 482 -212 471 -200 q 517 -224 493 -224 q 549 -212 538 -224 q 561 -182 561 -200 q 549 -151 561 -162 q 515 -139 538 -139 q 488 -144 499 -139 q 471 -154 478 -149 l 417 -101 l 475 -11 q 286 41 367 0 q 151 147 206 82 q 71 299 97 213 q 44 490 44 386 l 44 501 q 83 709 44 615 q 189 869 121 803 q 350 972 257 936 q 551 1008 443 1008 q 729 985 649 1008 q 871 917 810 963 q 967 797 931 869 q 1013 626 1004 725 l 719 626 q 669 743 711 703 q 553 783 628 783 q 401 711 457 783 q 344 503 344 639 l 344 492 q 399 284 344 357 q 557 211 454 211 q 681 251 632 211 q 742 374 731 290 l 1025 374 q 981 206 1018 278 q 886 85 944 133 q 746 10 826 35 q 571 -17 665 -15 l 540 -62 q 599 -65 571 -60 q 649 -86 626 -71 q 682 -124 669 -100 q 694 -182 694 -149 q 649 -279 694 -244 q 526 -314 603 -314 z "},"È":{"ha":850,"x_min":96,"x_max":804,"o":"m 96 993 l 782 993 l 782 774 l 379 774 l 379 603 l 700 603 l 700 400 l 379 400 l 379 219 l 804 219 l 804 0 l 96 0 l 96 993 m 228 1257 l 486 1257 l 554 1054 l 367 1054 l 228 1257 z "},"É":{"ha":850,"x_min":96,"x_max":804,"o":"m 96 993 l 782 993 l 782 774 l 379 774 l 379 603 l 700 603 l 700 400 l 379 400 l 379 219 l 804 219 l 804 0 l 96 0 l 96 993 m 414 1257 l 674 1257 l 531 1054 l 343 1054 l 414 1257 z "},"Ê":{"ha":850,"x_min":96,"x_max":804,"o":"m 96 993 l 782 993 l 782 774 l 379 774 l 379 603 l 700 603 l 700 400 l 379 400 l 379 219 l 804 219 l 804 0 l 96 0 l 96 993 m 347 1257 l 556 1257 l 708 1054 l 528 1054 l 446 1122 l 365 1054 l 189 1054 l 347 1257 z "},"Ë":{"ha":850,"x_min":96,"x_max":804,"o":"m 96 993 l 782 993 l 782 774 l 379 774 l 379 603 l 700 603 l 700 400 l 379 400 l 379 219 l 804 219 l 804 0 l 96 0 l 96 993 m 293 1053 q 247 1062 268 1053 q 210 1086 225 1071 q 184 1123 193 1101 q 175 1168 175 1144 q 210 1251 175 1217 q 293 1285 244 1285 q 378 1251 343 1285 q 413 1168 413 1217 q 378 1086 413 1119 q 293 1053 343 1053 m 603 1053 q 519 1086 553 1053 q 485 1168 485 1119 q 519 1251 485 1217 q 603 1285 553 1285 q 688 1251 653 1285 q 722 1168 722 1217 q 688 1086 722 1119 q 603 1053 653 1053 z "},"Ì":{"ha":483,"x_min":18,"x_max":383,"o":"m 96 993 l 383 993 l 383 0 l 96 0 l 96 993 m 18 1257 l 276 1257 l 344 1054 l 157 1054 l 18 1257 z "},"Í":{"ha":489,"x_min":101,"x_max":469,"o":"m 101 993 l 389 993 l 389 0 l 101 0 l 101 993 m 210 1257 l 469 1257 l 326 1054 l 139 1054 l 210 1257 z "},"Î":{"ha":489,"x_min":-21,"x_max":499,"o":"m 96 993 l 383 993 l 383 0 l 96 0 l 96 993 m 138 1257 l 346 1257 l 499 1054 l 318 1054 l 236 1122 l 156 1054 l -21 1054 l 138 1257 z "},"Ï":{"ha":489,"x_min":-29,"x_max":518,"o":"m 101 993 l 389 993 l 389 0 l 101 0 l 101 993 m 89 1053 q 42 1062 64 1053 q 6 1086 21 1071 q -20 1123 -11 1101 q -29 1168 -29 1144 q 6 1251 -29 1217 q 89 1285 40 1285 q 174 1251 139 1285 q 208 1168 208 1217 q 174 1086 208 1119 q 89 1053 139 1053 m 399 1053 q 315 1086 349 1053 q 281 1168 281 1119 q 315 1251 281 1217 q 399 1285 349 1285 q 483 1251 449 1285 q 518 1168 518 1217 q 483 1086 518 1119 q 399 1053 449 1053 z "},"Ñ":{"ha":1079,"x_min":90,"x_max":978,"o":"m 90 993 l 411 993 l 729 433 l 729 993 l 978 993 l 978 0 l 703 0 l 340 624 l 340 0 l 90 0 l 90 993 m 649 1053 q 595 1060 619 1053 q 551 1076 571 1068 q 515 1092 532 1085 q 482 1100 499 1100 q 453 1087 465 1100 q 439 1054 442 1074 l 297 1054 q 316 1149 301 1108 q 354 1215 331 1189 q 406 1254 376 1242 q 467 1267 435 1267 q 518 1260 494 1267 q 563 1244 542 1253 q 600 1228 582 1235 q 635 1221 618 1221 q 665 1233 654 1221 q 679 1265 675 1246 l 819 1265 q 800 1171 815 1211 q 763 1104 785 1131 q 709 1065 739 1078 q 649 1053 679 1053 z "},"Ò":{"ha":1138,"x_min":43,"x_max":1094,"o":"m 569 207 q 736 283 675 207 q 797 493 797 358 l 797 504 q 735 711 797 638 q 568 785 674 785 q 401 712 463 785 q 340 503 340 639 l 340 492 q 403 281 340 356 q 569 207 465 207 m 564 -17 q 347 21 443 -17 q 183 125 251 58 q 79 285 115 192 q 43 490 43 378 l 43 501 q 83 708 43 615 q 194 868 124 801 q 361 971 265 935 q 568 1007 457 1007 q 778 972 682 1007 q 946 874 875 938 q 1055 716 1015 808 q 1094 508 1094 624 l 1094 497 q 1057 288 1094 382 q 950 126 1019 193 q 783 21 881 58 q 564 -17 685 -17 m 346 1257 l 604 1257 l 672 1054 l 485 1054 l 346 1257 z "},"Ó":{"ha":1138,"x_min":38,"x_max":1089,"o":"m 564 207 q 731 283 669 207 q 792 493 792 358 l 792 504 q 730 711 792 638 q 563 785 668 785 q 396 712 457 785 q 335 503 335 639 l 335 492 q 397 281 335 356 q 564 207 460 207 m 558 -17 q 342 21 438 -17 q 178 125 246 58 q 74 285 110 192 q 38 490 38 378 l 38 501 q 78 708 38 615 q 189 868 118 801 q 356 971 260 935 q 563 1007 451 1007 q 773 972 676 1007 q 940 874 869 938 q 1049 716 1010 808 q 1089 508 1089 624 l 1089 497 q 1051 288 1089 382 q 944 126 1014 193 q 777 21 875 58 q 558 -17 679 -17 m 526 1257 l 786 1257 l 643 1054 l 456 1054 l 526 1257 z "},"Ô":{"ha":1138,"x_min":38,"x_max":1089,"o":"m 564 207 q 731 283 669 207 q 792 493 792 358 l 792 504 q 730 711 792 638 q 563 785 668 785 q 396 712 457 785 q 335 503 335 639 l 335 492 q 397 281 335 356 q 564 207 460 207 m 558 -17 q 342 21 438 -17 q 178 125 246 58 q 74 285 110 192 q 38 490 38 378 l 38 501 q 78 708 38 615 q 189 868 118 801 q 356 971 260 935 q 563 1007 451 1007 q 773 972 676 1007 q 940 874 869 938 q 1049 716 1010 808 q 1089 508 1089 624 l 1089 497 q 1051 288 1089 382 q 944 126 1014 193 q 777 21 875 58 q 558 -17 679 -17 m 460 1257 l 668 1257 l 821 1054 l 640 1054 l 558 1122 l 478 1054 l 301 1054 l 460 1257 z "},"Õ":{"ha":1138,"x_min":38,"x_max":1089,"o":"m 564 207 q 731 283 669 207 q 792 493 792 358 l 792 504 q 730 711 792 638 q 563 785 668 785 q 396 712 457 785 q 335 503 335 639 l 335 492 q 397 281 335 356 q 564 207 460 207 m 558 -17 q 342 21 438 -17 q 178 125 246 58 q 74 285 110 192 q 38 490 38 378 l 38 501 q 78 708 38 615 q 189 868 118 801 q 356 971 260 935 q 563 1007 451 1007 q 773 972 676 1007 q 940 874 869 938 q 1049 716 1010 808 q 1089 508 1089 624 l 1089 497 q 1051 288 1089 382 q 944 126 1014 193 q 777 21 875 58 q 558 -17 679 -17 m 651 1053 q 598 1060 622 1053 q 554 1076 574 1068 q 518 1092 535 1085 q 485 1100 501 1100 q 456 1087 468 1100 q 442 1054 444 1074 l 300 1054 q 319 1149 304 1108 q 357 1215 333 1189 q 408 1254 379 1242 q 469 1267 438 1267 q 521 1260 497 1267 q 565 1244 544 1253 q 603 1228 585 1235 q 638 1221 621 1221 q 667 1233 657 1221 q 682 1265 678 1246 l 822 1265 q 803 1171 818 1211 q 765 1104 788 1131 q 712 1065 742 1078 q 651 1053 682 1053 z "},"Ö":{"ha":1138,"x_min":38,"x_max":1089,"o":"m 564 207 q 731 283 669 207 q 792 493 792 358 l 792 504 q 730 711 792 638 q 563 785 668 785 q 396 712 457 785 q 335 503 335 639 l 335 492 q 397 281 335 356 q 564 207 460 207 m 558 -17 q 342 21 438 -17 q 178 125 246 58 q 74 285 110 192 q 38 490 38 378 l 38 501 q 78 708 38 615 q 189 868 118 801 q 356 971 260 935 q 563 1007 451 1007 q 773 972 676 1007 q 940 874 869 938 q 1049 716 1010 808 q 1089 508 1089 624 l 1089 497 q 1051 288 1089 382 q 944 126 1014 193 q 777 21 875 58 q 558 -17 679 -17 m 406 1053 q 359 1062 381 1053 q 322 1086 338 1071 q 297 1123 306 1101 q 288 1168 288 1144 q 322 1251 288 1217 q 406 1285 357 1285 q 490 1251 456 1285 q 525 1168 525 1217 q 490 1086 525 1119 q 406 1053 456 1053 m 715 1053 q 631 1086 665 1053 q 597 1168 597 1119 q 631 1251 597 1217 q 715 1285 665 1285 q 800 1251 765 1285 q 835 1168 835 1217 q 800 1086 835 1119 q 715 1053 765 1053 z "},"Ø":{"ha":1138,"x_min":43,"x_max":1094,"o":"m 44 36 l 156 154 q 72 305 101 219 q 43 490 43 390 l 43 501 q 83 708 43 615 q 194 868 124 801 q 361 971 265 935 q 568 1007 457 1007 q 739 985 660 1007 q 883 921 818 963 l 985 1028 l 1067 947 l 971 846 q 1062 698 1029 783 q 1094 508 1094 613 l 1094 497 q 1057 288 1094 382 q 950 126 1019 193 q 783 21 881 58 q 564 -17 685 -17 q 385 8 467 -17 q 240 76 304 32 l 126 -44 l 44 36 m 569 207 q 738 283 676 207 q 800 493 800 358 l 800 504 q 794 578 800 544 q 778 642 789 613 l 417 263 q 485 221 447 235 q 569 207 524 207 m 338 492 q 342 422 338 454 q 356 364 347 390 l 710 739 q 647 774 682 763 q 568 785 611 785 q 399 712 461 785 q 338 503 338 639 l 338 492 z "},"Ù":{"ha":1061,"x_min":83,"x_max":967,"o":"m 524 -17 q 198 88 313 -17 q 83 403 83 193 l 83 993 l 368 993 l 368 415 q 401 258 368 310 q 524 207 433 207 q 646 257 613 207 q 679 419 679 307 l 679 993 l 967 993 l 967 407 q 936 219 967 299 q 849 88 906 139 q 708 9 790 35 q 524 -17 626 -17 m 301 1257 l 560 1257 l 628 1054 l 440 1054 l 301 1257 z "},"Ú":{"ha":1061,"x_min":83,"x_max":967,"o":"m 524 -17 q 198 88 313 -17 q 83 403 83 193 l 83 993 l 368 993 l 368 415 q 401 258 368 310 q 524 207 433 207 q 646 257 613 207 q 679 419 679 307 l 679 993 l 967 993 l 967 407 q 936 219 967 299 q 849 88 906 139 q 708 9 790 35 q 524 -17 626 -17 m 488 1257 l 747 1257 l 604 1054 l 417 1054 l 488 1257 z "},"Û":{"ha":1061,"x_min":83,"x_max":967,"o":"m 524 -17 q 198 88 313 -17 q 83 403 83 193 l 83 993 l 368 993 l 368 415 q 401 258 368 310 q 524 207 433 207 q 646 257 613 207 q 679 419 679 307 l 679 993 l 967 993 l 967 407 q 936 219 967 299 q 849 88 906 139 q 708 9 790 35 q 524 -17 626 -17 m 421 1257 l 629 1257 l 782 1054 l 601 1054 l 519 1122 l 439 1054 l 263 1054 l 421 1257 z "},"Ü":{"ha":1061,"x_min":83,"x_max":967,"o":"m 524 -17 q 198 88 313 -17 q 83 403 83 193 l 83 993 l 368 993 l 368 415 q 401 258 368 310 q 524 207 433 207 q 646 257 613 207 q 679 419 679 307 l 679 993 l 967 993 l 967 407 q 936 219 967 299 q 849 88 906 139 q 708 9 790 35 q 524 -17 626 -17 m 367 1053 q 320 1062 342 1053 q 283 1086 299 1071 q 258 1123 267 1101 q 249 1168 249 1144 q 283 1251 249 1217 q 367 1285 318 1285 q 451 1251 417 1285 q 486 1168 486 1217 q 451 1086 486 1119 q 367 1053 417 1053 m 676 1053 q 592 1086 626 1053 q 558 1168 558 1119 q 592 1251 558 1217 q 676 1285 626 1285 q 761 1251 726 1285 q 796 1168 796 1217 q 761 1086 796 1119 q 676 1053 726 1053 z "},"ß":{"ha":883,"x_min":74,"x_max":850,"o":"m 529 -14 q 449 -9 483 -14 q 396 1 415 -4 l 396 189 q 425 181 408 185 q 464 176 442 176 q 514 184 490 176 q 557 210 538 192 q 586 259 575 228 q 597 338 597 290 l 597 346 q 583 424 597 393 q 543 475 568 456 q 481 501 517 493 q 404 510 446 510 l 404 694 q 464 703 439 694 q 506 728 489 713 q 528 763 521 743 q 536 803 536 782 l 536 807 q 510 881 536 854 q 432 907 483 907 q 352 873 382 907 q 322 776 322 839 l 322 0 l 74 0 l 74 756 q 103 899 74 839 q 185 997 133 958 q 303 1053 235 1035 q 447 1071 371 1071 q 685 1007 597 1071 q 772 817 772 943 l 772 814 q 726 690 772 742 q 607 617 679 639 q 700 583 656 606 q 778 525 744 560 q 831 440 811 489 q 850 329 850 392 l 850 319 q 826 172 850 235 q 760 68 801 110 q 658 6 717 26 q 529 -14 599 -14 z "},"à":{"ha":803,"x_min":32,"x_max":735,"o":"m 278 -17 q 185 -4 229 -17 q 107 35 140 8 q 52 102 72 61 q 32 201 32 143 q 134 384 32 329 q 418 439 236 439 l 488 439 l 488 456 q 469 540 488 508 q 392 571 451 571 q 319 545 340 571 q 293 485 297 519 l 60 485 q 91 599 64 550 q 164 682 118 649 q 270 730 208 714 q 407 746 332 746 q 542 730 482 746 q 646 681 603 714 q 712 595 689 647 q 735 471 735 543 l 735 0 l 493 0 l 493 85 q 416 14 467 44 q 278 -17 365 -17 m 364 151 q 452 179 417 151 q 488 254 488 207 l 488 299 l 422 299 q 313 281 347 299 q 278 219 278 264 q 299 169 278 188 q 364 151 319 151 m 176 1040 l 426 1040 l 500 810 l 322 810 l 176 1040 z "},"á":{"ha":803,"x_min":32,"x_max":735,"o":"m 278 -17 q 185 -4 229 -17 q 107 35 140 8 q 52 102 72 61 q 32 201 32 143 q 134 384 32 329 q 418 439 236 439 l 488 439 l 488 456 q 469 540 488 508 q 392 571 451 571 q 319 545 340 571 q 293 485 297 519 l 60 485 q 91 599 64 550 q 164 682 118 649 q 270 730 208 714 q 407 746 332 746 q 542 730 482 746 q 646 681 603 714 q 712 595 689 647 q 735 471 735 543 l 735 0 l 493 0 l 493 85 q 416 14 467 44 q 278 -17 365 -17 m 364 151 q 452 179 417 151 q 488 254 488 207 l 488 299 l 422 299 q 313 281 347 299 q 278 219 278 264 q 299 169 278 188 q 364 151 319 151 m 382 1040 l 632 1040 l 486 810 l 308 810 l 382 1040 z "},"â":{"ha":803,"x_min":26,"x_max":729,"o":"m 272 -17 q 179 -4 224 -17 q 101 35 135 8 q 47 102 67 61 q 26 201 26 143 q 128 384 26 329 q 413 439 231 439 l 482 439 l 482 456 q 464 540 482 508 q 386 571 446 571 q 313 545 335 571 q 288 485 292 519 l 54 485 q 85 599 58 550 q 158 682 113 649 q 265 730 203 714 q 401 746 326 746 q 537 730 476 746 q 640 681 597 714 q 706 595 683 647 q 729 471 729 543 l 729 0 l 488 0 l 488 85 q 410 14 461 44 q 272 -17 360 -17 m 358 151 q 447 179 411 151 q 482 254 482 207 l 482 299 l 417 299 q 307 281 342 299 q 272 219 272 264 q 293 169 272 188 q 358 151 314 151 m 307 1039 l 485 1039 l 649 813 l 475 813 l 390 890 l 307 813 l 136 813 l 307 1039 z "},"ã":{"ha":803,"x_min":32,"x_max":735,"o":"m 278 -17 q 185 -4 229 -17 q 107 35 140 8 q 52 102 72 61 q 32 201 32 143 q 134 384 32 329 q 418 439 236 439 l 488 439 l 488 456 q 469 540 488 508 q 392 571 451 571 q 319 545 340 571 q 293 485 297 519 l 60 485 q 91 599 64 550 q 164 682 118 649 q 270 730 208 714 q 407 746 332 746 q 542 730 482 746 q 646 681 603 714 q 712 595 689 647 q 735 471 735 543 l 735 0 l 493 0 l 493 85 q 416 14 467 44 q 278 -17 365 -17 m 364 151 q 452 179 417 151 q 488 254 488 207 l 488 299 l 422 299 q 313 281 347 299 q 278 219 278 264 q 299 169 278 188 q 364 151 319 151 m 493 815 q 441 822 464 815 q 399 839 418 829 q 363 854 379 847 q 331 861 347 861 q 302 849 314 861 q 288 817 290 836 l 153 817 q 203 980 160 926 q 313 1033 247 1033 q 363 1026 340 1033 q 407 1010 386 1018 q 444 994 426 1001 q 478 986 461 986 q 508 999 497 986 q 522 1031 518 1011 l 657 1031 q 602 869 649 922 q 493 815 556 815 z "},"ä":{"ha":803,"x_min":32,"x_max":735,"o":"m 278 -17 q 185 -4 229 -17 q 107 35 140 8 q 52 102 72 61 q 32 201 32 143 q 134 384 32 329 q 418 439 236 439 l 488 439 l 488 456 q 469 540 488 508 q 392 571 451 571 q 319 545 340 571 q 293 485 297 519 l 60 485 q 91 599 64 550 q 164 682 118 649 q 270 730 208 714 q 407 746 332 746 q 542 730 482 746 q 646 681 603 714 q 712 595 689 647 q 735 471 735 543 l 735 0 l 493 0 l 493 85 q 416 14 467 44 q 278 -17 365 -17 m 364 151 q 452 179 417 151 q 488 254 488 207 l 488 299 l 422 299 q 313 281 347 299 q 278 219 278 264 q 299 169 278 188 q 364 151 319 151 m 256 806 q 209 815 231 806 q 172 839 188 824 q 147 876 156 854 q 138 921 138 897 q 147 966 138 944 q 172 1004 156 988 q 209 1028 188 1019 q 256 1038 231 1038 q 340 1003 306 1038 q 375 921 375 969 q 340 839 375 872 q 256 806 306 806 m 551 806 q 467 839 501 806 q 433 921 433 872 q 467 1003 433 969 q 551 1038 501 1038 q 636 1003 601 1038 q 671 921 671 969 q 636 839 671 872 q 551 806 601 806 z "},"å":{"ha":803,"x_min":26,"x_max":729,"o":"m 272 -17 q 179 -4 224 -17 q 101 35 135 8 q 47 102 67 61 q 26 201 26 143 q 128 384 26 329 q 413 439 231 439 l 482 439 l 482 456 q 464 540 482 508 q 386 571 446 571 q 313 545 335 571 q 288 485 292 519 l 54 485 q 85 599 58 550 q 158 682 113 649 q 265 730 203 714 q 401 746 326 746 q 537 730 476 746 q 640 681 597 714 q 706 595 683 647 q 729 471 729 543 l 729 0 l 488 0 l 488 85 q 410 14 461 44 q 272 -17 360 -17 m 358 151 q 447 179 411 151 q 482 254 482 207 l 482 299 l 417 299 q 307 281 342 299 q 272 219 272 264 q 293 169 272 188 q 358 151 314 151 m 399 892 q 444 911 426 892 q 463 961 463 931 q 444 1013 463 993 q 399 1032 426 1032 q 353 1013 371 1032 q 335 961 335 993 q 353 911 335 931 q 399 892 371 892 m 399 803 q 335 815 365 803 q 283 850 306 828 q 248 899 261 871 q 235 961 235 928 q 248 1023 235 994 q 283 1074 261 1051 q 335 1108 306 1096 q 399 1121 365 1121 q 462 1108 432 1121 q 514 1074 492 1096 q 549 1023 536 1051 q 563 961 563 994 q 549 899 563 928 q 514 850 536 871 q 462 815 492 828 q 399 803 432 803 z "},"æ":{"ha":1261,"x_min":32,"x_max":1228,"o":"m 871 -17 q 703 15 774 -17 q 589 110 632 47 q 476 17 544 50 q 301 -17 408 -17 q 197 -4 246 -17 q 113 35 149 8 q 53 102 75 61 q 32 201 32 143 q 133 386 32 329 q 417 443 235 443 l 490 443 l 490 456 q 471 540 490 508 q 393 571 451 571 q 320 547 342 571 q 293 485 299 522 l 60 485 q 91 599 64 550 q 163 682 118 649 q 267 730 207 714 q 397 746 326 746 q 540 724 481 746 q 632 660 599 703 q 735 724 678 703 q 864 746 793 746 q 1003 724 938 746 q 1119 657 1069 703 q 1199 540 1169 611 q 1228 371 1228 469 l 1228 307 l 728 307 q 769 193 733 232 q 872 154 806 154 q 961 179 933 154 q 996 240 989 204 l 1228 240 q 1121 50 1211 117 q 871 -17 1031 -17 m 988 443 q 953 547 983 513 q 864 582 922 582 q 772 546 808 582 q 729 443 736 510 l 988 443 m 365 151 q 457 179 424 151 q 490 254 490 207 l 490 303 l 421 303 q 314 287 350 303 q 278 225 278 271 q 300 170 278 189 q 365 151 322 151 z "},"ç":{"ha":810,"x_min":35,"x_max":782,"o":"m 390 -314 q 269 -281 315 -314 q 214 -185 224 -247 l 331 -185 q 346 -212 335 -200 q 381 -224 357 -224 q 413 -212 401 -224 q 425 -182 425 -200 q 413 -151 425 -162 q 379 -139 401 -139 q 352 -144 363 -139 q 335 -154 342 -149 l 281 -101 l 340 -11 q 217 26 274 -1 q 121 100 161 54 q 58 210 81 146 q 35 354 35 274 l 35 365 q 65 526 35 456 q 149 646 96 597 q 272 720 201 694 q 422 746 342 746 q 551 731 489 746 q 661 681 613 715 q 741 588 710 644 q 778 447 772 531 l 544 447 q 509 526 536 499 q 428 553 482 553 q 325 506 361 553 q 289 368 289 460 l 289 357 q 325 213 289 261 q 432 165 361 165 q 518 196 485 165 q 558 286 551 226 l 782 286 q 690 70 776 151 q 436 -17 604 -11 l 404 -62 q 463 -65 435 -60 q 513 -86 490 -71 q 546 -124 533 -100 q 558 -182 558 -149 q 513 -279 558 -244 q 390 -314 467 -314 z "},"è":{"ha":831,"x_min":29,"x_max":792,"o":"m 424 -17 q 265 8 338 -17 q 142 79 193 32 q 59 196 89 126 q 29 354 29 265 l 29 365 q 60 523 29 453 q 143 643 90 593 q 268 719 196 693 q 422 746 340 746 q 564 724 497 746 q 682 656 631 701 q 762 539 732 610 q 792 371 792 468 l 792 306 l 281 306 q 326 194 286 233 q 432 154 365 154 q 523 179 494 154 q 558 240 551 204 l 792 240 q 682 50 775 117 q 424 -17 589 -17 m 550 446 q 515 547 547 513 q 422 582 483 582 q 329 547 365 582 q 283 446 293 513 l 550 446 m 188 1040 l 438 1040 l 511 810 l 333 810 l 188 1040 z "},"é":{"ha":831,"x_min":29,"x_max":792,"o":"m 424 -17 q 265 8 338 -17 q 142 79 193 32 q 59 196 89 126 q 29 354 29 265 l 29 365 q 60 523 29 453 q 143 643 90 593 q 268 719 196 693 q 422 746 340 746 q 564 724 497 746 q 682 656 631 701 q 762 539 732 610 q 792 371 792 468 l 792 306 l 281 306 q 326 194 286 233 q 432 154 365 154 q 523 179 494 154 q 558 240 551 204 l 792 240 q 682 50 775 117 q 424 -17 589 -17 m 550 446 q 515 547 547 513 q 422 582 483 582 q 329 547 365 582 q 283 446 293 513 l 550 446 m 393 1040 l 643 1040 l 497 810 l 319 810 l 393 1040 z "},"ê":{"ha":831,"x_min":29,"x_max":792,"o":"m 424 -17 q 265 8 338 -17 q 142 79 193 32 q 59 196 89 126 q 29 354 29 265 l 29 365 q 60 523 29 453 q 143 643 90 593 q 268 719 196 693 q 422 746 340 746 q 564 724 497 746 q 682 656 631 701 q 762 539 732 610 q 792 371 792 468 l 792 306 l 281 306 q 326 194 286 233 q 432 154 365 154 q 523 179 494 154 q 558 240 551 204 l 792 240 q 682 50 775 117 q 424 -17 589 -17 m 550 446 q 515 547 547 513 q 422 582 483 582 q 329 547 365 582 q 283 446 293 513 l 550 446 m 329 1039 l 507 1039 l 671 813 l 497 813 l 413 890 l 329 813 l 158 813 l 329 1039 z "},"ë":{"ha":831,"x_min":29,"x_max":792,"o":"m 424 -17 q 265 8 338 -17 q 142 79 193 32 q 59 196 89 126 q 29 354 29 265 l 29 365 q 60 523 29 453 q 143 643 90 593 q 268 719 196 693 q 422 746 340 746 q 564 724 497 746 q 682 656 631 701 q 762 539 732 610 q 792 371 792 468 l 792 306 l 281 306 q 326 194 286 233 q 432 154 365 154 q 523 179 494 154 q 558 240 551 204 l 792 240 q 682 50 775 117 q 424 -17 589 -17 m 550 446 q 515 547 547 513 q 422 582 483 582 q 329 547 365 582 q 283 446 293 513 l 550 446 m 267 806 q 220 815 242 806 q 183 839 199 824 q 158 876 167 854 q 149 921 149 897 q 158 966 149 944 q 183 1004 167 988 q 220 1028 199 1019 q 267 1038 242 1038 q 351 1003 317 1038 q 386 921 386 969 q 351 839 386 872 q 267 806 317 806 m 563 806 q 478 839 513 806 q 444 921 444 872 q 478 1003 444 969 q 563 1038 513 1038 q 647 1003 613 1038 q 682 921 682 969 q 647 839 682 872 q 563 806 613 806 z "},"ì":{"ha":410,"x_min":-22,"x_max":329,"o":"m 81 726 l 329 726 l 329 0 l 81 0 l 81 726 m -22 1040 l 228 1040 l 301 810 l 124 810 l -22 1040 z "},"í":{"ha":415,"x_min":81,"x_max":433,"o":"m 81 726 l 329 726 l 329 0 l 81 0 l 81 726 m 183 1040 l 433 1040 l 288 810 l 110 810 l 183 1040 z "},"î":{"ha":410,"x_min":-57,"x_max":456,"o":"m 75 726 l 324 726 l 324 0 l 75 0 l 75 726 m 114 1039 l 292 1039 l 456 813 l 282 813 l 197 890 l 114 813 l -57 813 l 114 1039 z "},"ï":{"ha":410,"x_min":-60,"x_max":469,"o":"m 58 806 q 12 815 33 806 q -26 839 -10 824 q -51 876 -42 854 q -60 921 -60 897 q -51 966 -60 944 q -26 1004 -42 988 q 12 1028 -10 1019 q 58 1038 33 1038 q 143 1003 108 1038 q 178 921 178 969 q 143 839 178 872 q 58 806 108 806 m 350 806 q 303 815 325 806 q 267 839 282 824 q 241 876 250 854 q 232 921 232 897 q 241 966 232 944 q 267 1004 250 988 q 303 1028 282 1019 q 350 1038 325 1038 q 435 1003 400 1038 q 469 921 469 969 q 435 839 469 872 q 350 806 400 806 m 81 726 l 329 726 l 329 0 l 81 0 l 81 726 z "},"ñ":{"ha":867,"x_min":68,"x_max":793,"o":"m 68 726 l 317 726 l 317 610 q 405 706 346 667 q 556 746 464 746 q 727 678 661 746 q 793 472 793 611 l 793 0 l 544 0 l 544 422 q 519 515 544 485 q 440 544 494 544 q 351 511 385 544 q 317 407 317 478 l 317 0 l 68 0 l 68 726 m 518 815 q 466 822 489 815 q 424 839 443 829 q 388 854 404 847 q 356 861 372 861 q 327 849 339 861 q 313 817 315 836 l 178 817 q 228 980 185 926 q 338 1033 272 1033 q 388 1026 365 1033 q 432 1010 411 1018 q 469 994 451 1001 q 503 986 486 986 q 533 999 522 986 q 547 1031 543 1011 l 682 1031 q 627 869 674 922 q 518 815 581 815 z "},"ò":{"ha":864,"x_min":29,"x_max":824,"o":"m 428 168 q 535 217 499 168 q 571 358 571 267 l 571 369 q 535 510 571 461 q 428 560 499 560 q 320 512 357 560 q 283 372 283 464 l 283 361 q 319 217 283 267 q 428 168 356 168 m 426 -17 q 270 8 343 -17 q 144 81 197 33 q 60 197 90 128 q 29 354 29 267 l 29 365 q 60 523 29 453 q 144 643 90 593 q 270 719 197 693 q 428 746 343 746 q 584 720 511 746 q 710 646 657 694 q 793 528 763 597 q 824 372 824 458 l 824 361 q 793 202 824 272 q 710 83 763 132 q 583 9 656 35 q 426 -17 510 -17 m 199 1040 l 449 1040 l 522 810 l 344 810 l 199 1040 z "},"ó":{"ha":864,"x_min":29,"x_max":824,"o":"m 428 168 q 535 217 499 168 q 571 358 571 267 l 571 369 q 535 510 571 461 q 428 560 499 560 q 320 512 357 560 q 283 372 283 464 l 283 361 q 319 217 283 267 q 428 168 356 168 m 426 -17 q 270 8 343 -17 q 144 81 197 33 q 60 197 90 128 q 29 354 29 267 l 29 365 q 60 523 29 453 q 144 643 90 593 q 270 719 197 693 q 428 746 343 746 q 584 720 511 746 q 710 646 657 694 q 793 528 763 597 q 824 372 824 458 l 824 361 q 793 202 824 272 q 710 83 763 132 q 583 9 656 35 q 426 -17 510 -17 m 404 1040 l 654 1040 l 508 810 l 331 810 l 404 1040 z "},"ô":{"ha":864,"x_min":29,"x_max":824,"o":"m 428 168 q 535 217 499 168 q 571 358 571 267 l 571 369 q 535 510 571 461 q 428 560 499 560 q 320 512 357 560 q 283 372 283 464 l 283 361 q 319 217 283 267 q 428 168 356 168 m 426 -17 q 270 8 343 -17 q 144 81 197 33 q 60 197 90 128 q 29 354 29 267 l 29 365 q 60 523 29 453 q 144 643 90 593 q 270 719 197 693 q 428 746 343 746 q 584 720 511 746 q 710 646 657 694 q 793 528 763 597 q 824 372 824 458 l 824 361 q 793 202 824 272 q 710 83 763 132 q 583 9 656 35 q 426 -17 510 -17 m 340 1039 l 518 1039 l 682 813 l 508 813 l 424 890 l 340 813 l 169 813 l 340 1039 z "},"õ":{"ha":864,"x_min":29,"x_max":824,"o":"m 428 168 q 535 217 499 168 q 571 358 571 267 l 571 369 q 535 510 571 461 q 428 560 499 560 q 320 512 357 560 q 283 372 283 464 l 283 361 q 319 217 283 267 q 428 168 356 168 m 426 -17 q 270 8 343 -17 q 144 81 197 33 q 60 197 90 128 q 29 354 29 267 l 29 365 q 60 523 29 453 q 144 643 90 593 q 270 719 197 693 q 428 746 343 746 q 584 720 511 746 q 710 646 657 694 q 793 528 763 597 q 824 372 824 458 l 824 361 q 793 202 824 272 q 710 83 763 132 q 583 9 656 35 q 426 -17 510 -17 m 515 815 q 463 822 486 815 q 421 839 440 829 q 385 854 401 847 q 353 861 369 861 q 324 849 336 861 q 310 817 313 836 l 175 817 q 226 980 182 926 q 335 1033 269 1033 q 385 1026 363 1033 q 429 1010 408 1018 q 466 994 449 1001 q 500 986 483 986 q 530 999 519 986 q 544 1031 540 1011 l 679 1031 q 624 869 671 922 q 515 815 578 815 z "},"ö":{"ha":864,"x_min":29,"x_max":824,"o":"m 428 168 q 535 217 499 168 q 571 358 571 267 l 571 369 q 535 510 571 461 q 428 560 499 560 q 320 512 357 560 q 283 372 283 464 l 283 361 q 319 217 283 267 q 428 168 356 168 m 426 -17 q 270 8 343 -17 q 144 81 197 33 q 60 197 90 128 q 29 354 29 267 l 29 365 q 60 523 29 453 q 144 643 90 593 q 270 719 197 693 q 428 746 343 746 q 584 720 511 746 q 710 646 657 694 q 793 528 763 597 q 824 372 824 458 l 824 361 q 793 202 824 272 q 710 83 763 132 q 583 9 656 35 q 426 -17 510 -17 m 278 806 q 231 815 253 806 q 194 839 210 824 q 169 876 178 854 q 160 921 160 897 q 169 966 160 944 q 194 1004 178 988 q 231 1028 210 1019 q 278 1038 253 1038 q 363 1003 328 1038 q 397 921 397 969 q 363 839 397 872 q 278 806 328 806 m 574 806 q 490 839 524 806 q 456 921 456 872 q 490 1003 456 969 q 574 1038 524 1038 q 658 1003 624 1038 q 693 921 693 969 q 658 839 693 872 q 574 806 624 806 z "},"÷":{"ha":794,"x_min":51,"x_max":743,"o":"m 397 60 q 305 97 343 60 q 267 188 267 133 q 277 238 267 214 q 306 279 288 261 q 346 306 322 296 q 397 317 369 317 q 448 306 424 317 q 490 279 472 296 q 517 238 507 261 q 528 188 528 214 q 490 97 528 133 q 397 60 451 60 m 51 558 l 743 558 l 743 386 l 51 386 l 51 558 m 397 628 q 346 638 369 628 q 306 667 322 649 q 277 707 288 683 q 267 757 267 731 q 305 848 267 811 q 397 885 343 885 q 490 848 451 885 q 528 757 528 811 q 517 707 528 731 q 490 667 507 683 q 448 638 472 649 q 397 628 424 628 z "},"ø":{"ha":864,"x_min":29,"x_max":829,"o":"m 29 13 l 121 110 q 58 217 81 156 q 35 354 35 278 l 35 365 q 65 523 35 453 q 150 643 96 593 q 276 719 203 693 q 433 746 349 746 q 554 731 497 746 q 660 686 611 717 l 750 782 l 822 715 l 736 624 q 805 513 781 575 q 829 372 829 450 l 829 361 q 799 202 829 272 q 715 83 768 132 q 588 9 661 35 q 432 -17 515 -17 q 304 -1 364 -17 q 196 46 244 15 l 101 -54 l 29 13 m 433 167 q 542 217 506 167 q 579 358 579 267 l 579 369 q 577 410 579 392 q 571 446 575 429 l 339 199 q 381 175 357 183 q 433 167 404 167 m 286 361 q 288 325 286 342 q 292 293 289 308 l 518 535 q 481 555 503 549 q 433 561 460 561 q 324 513 363 561 q 286 372 286 465 l 286 361 z "},"ù":{"ha":865,"x_min":63,"x_max":786,"o":"m 307 -17 q 210 -1 254 -17 q 133 49 165 15 q 81 133 100 82 q 63 253 63 183 l 63 726 l 311 726 l 311 293 q 337 201 311 232 q 414 171 363 171 q 504 204 471 171 q 538 308 538 238 l 538 726 l 786 726 l 786 0 l 538 0 l 538 113 q 453 19 508 56 q 307 -17 399 -17 m 197 1040 l 447 1040 l 521 810 l 343 810 l 197 1040 z "},"ú":{"ha":865,"x_min":63,"x_max":786,"o":"m 307 -17 q 210 -1 254 -17 q 133 49 165 15 q 81 133 100 82 q 63 253 63 183 l 63 726 l 311 726 l 311 293 q 337 201 311 232 q 414 171 363 171 q 504 204 471 171 q 538 308 538 238 l 538 726 l 786 726 l 786 0 l 538 0 l 538 113 q 453 19 508 56 q 307 -17 399 -17 m 403 1040 l 653 1040 l 507 810 l 329 810 l 403 1040 z "},"û":{"ha":865,"x_min":63,"x_max":786,"o":"m 307 -17 q 210 -1 254 -17 q 133 49 165 15 q 81 133 100 82 q 63 253 63 183 l 63 726 l 311 726 l 311 293 q 337 201 311 232 q 414 171 363 171 q 504 204 471 171 q 538 308 538 238 l 538 726 l 786 726 l 786 0 l 538 0 l 538 113 q 453 19 508 56 q 307 -17 399 -17 m 339 1039 l 517 1039 l 681 813 l 507 813 l 422 890 l 339 813 l 168 813 l 339 1039 z "},"ü":{"ha":865,"x_min":63,"x_max":786,"o":"m 307 -17 q 210 -1 254 -17 q 133 49 165 15 q 81 133 100 82 q 63 253 63 183 l 63 726 l 311 726 l 311 293 q 337 201 311 232 q 414 171 363 171 q 504 204 471 171 q 538 308 538 238 l 538 726 l 786 726 l 786 0 l 538 0 l 538 113 q 453 19 508 56 q 307 -17 399 -17 m 276 806 q 230 815 251 806 q 193 839 208 824 q 167 876 176 854 q 158 921 158 897 q 167 966 158 944 q 193 1004 176 988 q 230 1028 208 1019 q 276 1038 251 1038 q 361 1003 326 1038 q 396 921 396 969 q 361 839 396 872 q 276 806 326 806 m 572 806 q 488 839 522 806 q 454 921 454 872 q 488 1003 454 969 q 572 1038 522 1038 q 657 1003 622 1038 q 692 921 692 969 q 657 839 692 872 q 572 806 622 806 z "},"ÿ":{"ha":818,"x_min":6,"x_max":801,"o":"m 296 74 l 6 726 l 275 726 l 425 339 l 564 726 l 801 726 l 413 -243 l 175 -243 l 296 74 m 269 806 q 223 815 244 806 q 186 839 201 824 q 160 876 169 854 q 151 921 151 897 q 160 966 151 944 q 186 1004 169 988 q 223 1028 201 1019 q 269 1038 244 1038 q 354 1003 319 1038 q 389 921 389 969 q 354 839 389 872 q 269 806 319 806 m 565 806 q 481 839 515 806 q 447 921 447 872 q 481 1003 447 969 q 565 1038 515 1038 q 650 1003 615 1038 q 685 921 685 969 q 650 839 685 872 q 565 806 615 806 z "},"ı":{"ha":410,"x_min":81,"x_max":329,"o":"m 81 726 l 329 726 l 329 0 l 81 0 l 81 726 z "},"Œ":{"ha":1360,"x_min":43,"x_max":1314,"o":"m 43 496 q 77 704 43 613 q 179 861 111 796 q 345 959 246 925 q 574 993 444 993 l 1292 993 l 1292 774 l 910 774 l 910 603 l 1210 603 l 1210 400 l 910 400 l 910 219 l 1314 219 l 1314 0 l 574 0 q 177 126 311 0 q 43 485 43 253 l 43 496 m 583 774 q 398 706 456 774 q 340 500 340 639 l 340 489 q 399 283 340 347 q 585 219 457 219 l 628 219 l 628 774 l 583 774 z "},"œ":{"ha":1368,"x_min":35,"x_max":1335,"o":"m 432 -17 q 276 8 349 -17 q 150 81 203 33 q 65 197 96 128 q 35 354 35 267 l 35 365 q 65 523 35 453 q 150 643 96 593 q 276 719 203 693 q 433 746 349 746 q 585 717 518 746 q 701 636 653 689 q 817 717 750 689 q 965 746 883 746 q 1107 724 1040 746 q 1225 656 1174 701 q 1305 539 1275 610 q 1335 371 1335 468 l 1335 306 l 824 306 q 869 194 829 233 q 975 154 908 154 q 1066 179 1038 154 q 1101 240 1094 204 l 1335 240 q 1225 50 1318 117 q 967 -17 1132 -17 q 813 10 881 -17 q 696 89 744 36 q 582 10 649 38 q 432 -17 515 -17 m 433 168 q 540 217 504 168 q 576 358 576 267 l 576 369 q 540 510 576 461 q 433 560 504 560 q 326 512 363 560 q 289 372 289 464 l 289 361 q 325 217 289 267 q 433 168 361 168 m 1093 446 q 1058 547 1090 513 q 965 582 1026 582 q 872 547 908 582 q 826 446 836 513 l 1093 446 z "},"Ÿ":{"ha":940,"x_min":6,"x_max":924,"o":"m 329 425 l 6 993 l 315 993 l 483 658 l 651 993 l 924 993 l 615 425 l 615 0 l 329 0 l 329 425 m 318 1053 q 272 1062 293 1053 q 235 1086 250 1071 q 209 1123 218 1101 q 200 1168 200 1144 q 235 1251 200 1217 q 318 1285 269 1285 q 403 1251 368 1285 q 438 1168 438 1217 q 403 1086 438 1119 q 318 1053 368 1053 m 628 1053 q 544 1086 578 1053 q 510 1168 510 1119 q 544 1251 510 1217 q 628 1285 578 1285 q 713 1251 678 1285 q 747 1168 747 1217 q 713 1086 747 1119 q 628 1053 678 1053 z "},"ƒ":{"ha":632,"x_min":38,"x_max":603,"o":"m 38 575 l 163 575 l 188 749 q 223 867 197 818 q 289 947 249 915 q 380 992 328 978 q 494 1007 432 1007 q 553 1003 529 1007 q 603 992 576 999 l 603 806 q 572 813 588 810 q 532 815 556 815 q 465 794 489 815 q 433 728 440 772 l 411 575 l 568 575 l 568 407 l 388 407 l 293 -253 l 46 -253 l 139 407 l 38 407 l 38 575 z "},"ˆ":{"ha":556,"x_min":21,"x_max":533,"o":"m 192 1039 l 369 1039 l 533 813 l 360 813 l 275 890 l 192 813 l 21 813 l 192 1039 z "},"ˇ":{"ha":556,"x_min":21,"x_max":533,"o":"m 21 1039 l 194 1039 l 279 961 l 364 1039 l 533 1039 l 363 813 l 186 813 l 21 1039 z "},"˘":{"ha":556,"x_min":50,"x_max":506,"o":"m 276 815 q 116 872 176 815 q 50 1035 56 929 l 204 1035 q 225 985 207 1003 q 276 968 243 968 q 329 986 310 968 q 351 1035 349 1004 l 506 1035 q 436 872 499 929 q 276 815 374 815 z "},"˙":{"ha":556,"x_min":144,"x_max":410,"o":"m 278 804 q 182 840 219 804 q 144 929 144 875 q 183 1017 144 982 q 278 1053 221 1053 q 372 1017 335 1053 q 410 929 410 982 q 372 840 410 875 q 278 804 335 804 z "},"˚":{"ha":556,"x_min":114,"x_max":442,"o":"m 278 892 q 324 911 306 892 q 342 961 342 931 q 324 1013 342 993 q 278 1032 306 1032 q 232 1013 250 1032 q 214 961 214 993 q 232 911 214 931 q 278 892 250 892 m 278 803 q 215 815 244 803 q 163 850 185 828 q 127 899 140 871 q 114 961 114 928 q 127 1023 114 994 q 163 1074 140 1051 q 215 1108 185 1096 q 278 1121 244 1121 q 341 1108 311 1121 q 393 1074 371 1096 q 428 1023 415 1051 q 442 961 442 994 q 428 899 442 928 q 393 850 415 871 q 341 815 371 828 q 278 803 311 803 z "},"˛":{"ha":556,"x_min":114,"x_max":400,"o":"m 276 -253 q 161 -224 208 -253 q 114 -143 114 -196 q 124 -95 114 -117 q 151 -57 135 -74 q 190 -25 168 -39 q 233 0 211 -11 l 375 0 q 331 -44 346 -24 q 317 -87 317 -64 q 328 -117 317 -107 q 358 -126 339 -126 q 381 -125 371 -126 q 400 -119 392 -124 l 400 -231 q 349 -246 381 -239 q 276 -253 317 -253 z "},"˜":{"ha":556,"x_min":26,"x_max":531,"o":"m 367 815 q 315 822 338 815 q 272 839 292 829 q 237 854 253 847 q 204 861 221 861 q 176 849 188 861 q 161 817 164 836 l 26 817 q 77 980 33 926 q 186 1033 121 1033 q 237 1026 214 1033 q 281 1010 260 1018 q 317 994 300 1001 q 351 986 335 986 q 381 999 371 986 q 396 1031 392 1011 l 531 1031 q 476 869 522 922 q 367 815 429 815 z "},"˝":{"ha":556,"x_min":75,"x_max":576,"o":"m 136 1040 l 331 1040 l 224 810 l 75 810 l 136 1040 m 382 1040 l 576 1040 l 469 810 l 322 810 l 382 1040 z "},"–":{"ha":751,"x_min":64,"x_max":688,"o":"m 64 479 l 688 479 l 688 333 l 64 333 l 64 479 z "},"—":{"ha":1314,"x_min":64,"x_max":1251,"o":"m 64 479 l 1251 479 l 1251 333 l 64 333 l 64 479 z "},"‘":{"ha":431,"x_min":42,"x_max":372,"o":"m 42 668 l 232 1011 l 372 957 l 261 594 l 42 668 z "},"’":{"ha":431,"x_min":58,"x_max":389,"o":"m 58 649 l 169 1011 l 389 938 l 199 594 l 58 649 z "},"‚":{"ha":429,"x_min":54,"x_max":383,"o":"m 54 -93 l 165 269 l 383 196 l 194 -147 l 54 -93 z "},"“":{"ha":744,"x_min":42,"x_max":688,"o":"m 42 668 l 232 1011 l 372 957 l 261 594 l 42 668 m 357 668 l 547 1011 l 688 957 l 576 594 l 357 668 z "},"”":{"ha":744,"x_min":58,"x_max":704,"o":"m 58 649 l 169 1011 l 389 938 l 199 594 l 58 649 m 374 649 l 485 1011 l 704 938 l 513 594 l 374 649 z "},"„":{"ha":743,"x_min":54,"x_max":699,"o":"m 54 -93 l 165 269 l 383 196 l 194 -147 l 54 -93 m 369 -93 l 481 269 l 699 196 l 510 -147 l 369 -93 z "},"†":{"ha":563,"x_min":32,"x_max":531,"o":"m 181 656 l 32 656 l 32 831 l 181 831 l 181 993 l 382 993 l 382 831 l 531 831 l 531 656 l 382 656 l 382 296 l 181 296 l 181 656 z "},"‡":{"ha":563,"x_min":32,"x_max":531,"o":"m 181 696 l 32 696 l 32 854 l 181 854 l 181 993 l 382 993 l 382 854 l 531 854 l 531 696 l 382 696 l 382 593 l 531 593 l 531 435 l 382 435 l 382 296 l 181 296 l 181 435 l 32 435 l 32 593 l 181 593 l 181 696 z "},"•":{"ha":517,"x_min":54,"x_max":461,"o":"m 258 217 q 178 233 215 217 q 114 276 140 249 q 70 342 86 304 q 54 421 54 379 q 70 500 54 463 q 114 565 86 538 q 178 608 140 592 q 258 624 215 624 q 340 608 303 624 q 404 565 376 592 q 446 500 431 538 q 461 421 461 463 q 446 342 461 379 q 404 276 431 304 q 340 233 376 249 q 258 217 303 217 z "},"…":{"ha":1240,"x_min":64,"x_max":1176,"o":"m 206 -15 q 149 -4 175 -15 q 104 26 122 7 q 74 70 85 44 q 64 125 64 96 q 74 180 64 154 q 104 225 85 206 q 149 254 122 243 q 206 265 175 265 q 263 254 236 265 q 310 225 290 243 q 340 180 329 206 q 351 125 351 154 q 340 70 351 96 q 310 26 329 44 q 263 -4 290 7 q 206 -15 236 -15 m 618 -15 q 561 -4 588 -15 q 517 26 535 7 q 487 70 497 44 q 476 125 476 96 q 487 180 476 154 q 517 225 497 206 q 561 254 535 243 q 618 265 588 265 q 676 254 649 265 q 722 225 703 243 q 753 180 742 206 q 764 125 764 154 q 753 70 764 96 q 722 26 742 44 q 676 -4 703 7 q 618 -15 649 -15 m 1031 -15 q 974 -4 1000 -15 q 929 26 947 7 q 899 70 910 44 q 889 125 889 96 q 899 180 889 154 q 929 225 910 206 q 974 254 947 243 q 1031 265 1000 265 q 1088 254 1061 265 q 1135 225 1115 243 q 1165 180 1154 206 q 1176 125 1176 154 q 1165 70 1176 96 q 1135 26 1154 44 q 1088 -4 1115 7 q 1031 -15 1061 -15 z "},"‰":{"ha":1697,"x_min":35,"x_max":1664,"o":"m 296 656 q 353 683 333 656 q 374 760 374 711 q 353 835 374 808 q 296 863 333 863 q 238 835 258 863 q 217 761 217 808 q 238 683 217 711 q 296 656 258 656 m 294 511 q 185 530 233 511 q 104 582 138 549 q 53 661 71 615 q 35 760 35 707 q 55 856 35 811 q 110 935 75 901 q 192 985 144 967 q 296 1004 240 1004 q 399 986 351 1004 q 481 936 446 968 q 535 860 515 904 q 556 764 556 817 q 538 664 556 710 q 486 585 519 618 q 403 531 451 550 q 294 511 354 511 m 849 993 l 985 993 l 296 0 l 160 0 l 849 993 m 842 128 q 899 156 879 128 q 919 233 919 185 q 899 308 919 281 q 842 335 879 335 q 783 308 804 335 q 763 233 763 281 q 783 156 763 183 q 842 128 804 128 m 840 -17 q 731 2 779 -17 q 650 54 683 21 q 599 133 617 88 q 581 232 581 179 q 601 328 581 283 q 656 407 621 374 q 738 458 690 439 q 842 476 786 476 q 944 458 897 476 q 1026 408 992 440 q 1081 333 1061 376 q 1101 236 1101 289 q 1083 136 1101 182 q 1032 57 1065 90 q 949 3 997 22 q 840 -17 900 -17 m 1403 128 q 1462 156 1442 128 q 1482 233 1482 185 q 1462 308 1482 281 q 1403 335 1442 335 q 1345 308 1367 335 q 1324 233 1324 281 q 1345 156 1324 183 q 1403 128 1367 128 m 1403 -17 q 1293 2 1342 -17 q 1211 54 1244 21 q 1160 133 1178 88 q 1142 232 1142 179 q 1162 328 1142 283 q 1217 407 1182 374 q 1299 458 1251 439 q 1403 476 1347 476 q 1506 458 1458 476 q 1589 408 1554 440 q 1644 333 1624 376 q 1664 236 1664 289 q 1645 136 1664 182 q 1593 57 1626 90 q 1510 3 1558 22 q 1403 -17 1463 -17 z "},"‹":{"ha":426,"x_min":43,"x_max":385,"o":"m 43 363 l 215 628 l 385 628 l 218 363 l 385 97 l 215 97 l 43 363 z "},"›":{"ha":426,"x_min":42,"x_max":383,"o":"m 208 363 l 42 628 l 210 628 l 383 363 l 210 97 l 42 97 l 208 363 z "},"⁄":{"ha":233,"x_min":-337,"x_max":571,"o":"m 440 993 l 571 993 l -207 0 l -337 0 l 440 993 z "},"€":{"ha":1000,"x_min":32,"x_max":961,"o":"m 32 628 l 119 628 q 168 781 132 711 q 260 901 204 851 q 389 979 315 951 q 551 1007 463 1007 q 835 917 732 1007 q 954 649 939 826 l 692 649 q 647 757 682 721 q 549 793 611 793 q 444 749 481 793 q 394 628 407 704 l 610 628 l 593 529 l 389 529 l 389 457 l 581 457 l 564 358 l 394 358 q 442 243 406 283 q 550 203 479 203 q 656 243 621 203 q 700 364 690 283 l 961 364 q 838 83 940 183 q 543 -17 736 -17 q 375 11 449 -17 q 249 89 301 39 q 162 208 194 139 q 118 358 129 276 l 32 358 l 32 457 l 113 457 l 113 529 l 32 529 l 32 628 z "},"™":{"ha":1056,"x_min":40,"x_max":999,"o":"m 474 993 l 651 993 l 733 774 l 817 993 l 999 993 l 999 547 l 847 547 l 847 801 l 747 547 l 701 547 l 603 801 l 603 547 l 474 547 l 474 993 m 156 876 l 40 876 l 40 993 l 419 993 l 419 876 l 304 876 l 304 547 l 156 547 l 156 876 z "},"≈":{"ha":804,"x_min":51,"x_max":751,"o":"m 51 168 q 73 281 56 233 q 117 358 90 328 q 177 401 143 388 q 247 415 211 415 q 331 406 289 415 q 413 388 374 397 q 486 368 451 376 q 546 360 521 360 q 589 375 574 360 q 608 421 604 390 l 751 421 q 732 312 749 358 q 689 235 715 265 q 628 189 663 204 q 558 174 594 174 q 473 182 515 174 q 392 201 431 190 q 317 220 351 211 q 258 229 283 229 q 216 214 232 229 q 196 168 200 199 l 51 168 m 51 475 q 73 587 56 540 q 117 664 90 633 q 177 707 143 693 q 247 721 211 721 q 331 712 289 721 q 413 693 374 703 q 486 674 451 682 q 546 665 521 665 q 589 681 574 665 q 608 726 604 696 l 751 726 q 732 617 749 664 q 689 542 715 571 q 628 496 663 511 q 558 481 594 481 q 473 489 515 481 q 392 508 431 497 q 317 527 351 518 q 258 536 283 536 q 216 519 232 536 q 196 475 200 503 l 51 475 z "},"≠":{"ha":774,"x_min":54,"x_max":719,"o":"m 54 675 l 393 675 l 444 808 l 606 808 l 553 675 l 719 675 l 719 504 l 488 504 l 447 401 l 719 401 l 719 232 l 382 232 l 331 99 l 171 99 l 222 232 l 54 232 l 54 401 l 288 401 l 326 504 l 54 504 l 54 675 z "},"≤":{"ha":713,"x_min":58,"x_max":643,"o":"m 58 511 l 58 558 l 643 872 l 643 650 l 413 536 l 643 422 l 643 199 l 58 511 m 58 164 l 643 164 l 643 0 l 58 0 l 58 164 z "},"≥":{"ha":713,"x_min":68,"x_max":654,"o":"m 68 422 l 299 536 l 68 650 l 68 872 l 654 558 l 654 511 l 68 199 l 68 422 m 68 164 l 654 164 l 654 0 l 68 0 l 68 164 z "},"ﬁ":{"ha":938,"x_min":14,"x_max":863,"o":"m 106 557 l 14 557 l 14 726 l 106 726 l 106 790 q 126 908 106 858 q 183 992 146 958 q 273 1041 221 1025 q 389 1057 325 1057 q 450 1053 424 1057 q 500 1043 476 1050 l 500 861 q 471 867 486 865 q 435 869 456 869 q 372 848 392 869 q 353 790 353 826 l 353 726 l 500 726 l 500 557 l 353 557 l 353 0 l 106 0 l 106 557 m 601 726 l 850 726 l 850 0 l 601 0 l 601 726 m 725 796 q 628 832 667 796 q 589 924 589 868 q 628 1016 589 979 q 725 1053 667 1053 q 823 1016 783 1053 q 863 924 863 979 q 823 832 863 868 q 725 796 783 796 z "},"ﬂ":{"ha":929,"x_min":14,"x_max":849,"o":"m 106 557 l 14 557 l 14 726 l 106 726 l 106 790 q 126 908 106 858 q 183 992 146 958 q 273 1041 221 1025 q 389 1057 325 1057 q 450 1053 424 1057 q 500 1043 476 1050 l 500 861 q 471 867 486 865 q 435 869 456 869 q 372 848 392 869 q 353 790 353 826 l 353 726 l 500 726 l 500 557 l 353 557 l 353 0 l 106 0 l 106 557 m 601 1046 l 849 1046 l 849 0 l 601 0 l 601 1046 z "},"!":{"ha":464,"x_min":85,"x_max":381,"o":"m 232 -15 q 127 24 169 -15 q 85 122 85 64 q 127 221 85 181 q 232 261 169 261 q 290 250 263 261 q 338 221 317 239 q 369 176 357 201 q 381 122 381 151 q 369 68 381 93 q 338 25 357 43 q 290 -5 317 6 q 232 -15 263 -15 m 92 993 l 372 993 l 335 326 l 129 326 l 92 993 z "},"¦":{"ha":375,"x_min":99,"x_max":272,"o":"m 99 418 l 272 418 l 272 -206 l 99 -206 l 99 418 m 99 1078 l 272 1078 l 272 517 l 99 517 l 99 1078 z "},"²":{"ha":490,"x_min":1,"x_max":456,"o":"m 1 494 l 179 679 q 249 756 224 724 q 274 821 274 789 q 263 854 274 843 q 231 865 253 865 q 193 847 207 865 q 175 793 179 829 l 8 793 q 73 948 11 896 q 239 1000 135 1000 q 401 952 349 1000 q 454 833 454 904 q 424 737 454 781 q 347 650 394 693 l 299 603 l 456 603 l 456 471 l 1 471 l 1 494 z "},"³":{"ha":519,"x_min":25,"x_max":488,"o":"m 258 461 q 153 475 197 461 q 82 514 110 489 q 40 573 54 539 q 25 647 26 607 l 186 647 q 203 606 189 622 q 249 589 218 589 q 290 601 276 589 q 303 636 303 613 q 288 672 303 660 q 240 683 272 683 l 199 683 l 199 786 l 240 786 q 288 798 274 786 q 303 833 303 810 q 291 863 303 851 q 256 874 279 874 q 217 860 232 874 q 197 821 201 847 l 36 821 q 97 950 43 900 q 260 1000 151 1000 q 419 963 363 1000 q 476 856 476 925 q 451 783 476 811 q 382 743 426 756 q 458 706 429 736 q 488 629 488 676 q 431 508 488 554 q 258 461 374 461 z "},"¹":{"ha":397,"x_min":28,"x_max":328,"o":"m 142 815 l 28 751 l 28 900 l 169 993 l 328 993 l 328 471 l 142 471 l 142 815 z "},"¼":{"ha":1104,"x_min":32,"x_max":1072,"o":"m 146 815 l 32 751 l 32 900 l 174 993 l 332 993 l 332 471 l 146 471 l 146 815 m 869 993 l 1000 993 l 222 0 l 92 0 l 869 993 m 828 97 l 568 97 l 568 165 l 785 522 l 1006 522 l 1006 218 l 1072 218 l 1072 97 l 1006 97 l 1006 0 l 828 0 l 828 97 m 833 218 l 833 401 l 726 218 l 833 218 z "},"½":{"ha":1126,"x_min":32,"x_max":1086,"o":"m 146 815 l 32 751 l 32 900 l 174 993 l 332 993 l 332 471 l 146 471 l 146 815 m 851 993 l 982 993 l 204 0 l 74 0 l 851 993 m 632 24 l 810 208 q 879 285 854 253 q 904 350 904 318 q 894 383 904 372 q 861 394 883 394 q 824 376 838 394 q 806 322 810 358 l 639 322 q 703 477 642 425 q 869 529 765 529 q 1032 481 979 529 q 1085 363 1085 433 q 1055 266 1085 310 q 978 179 1025 222 l 929 132 l 1086 132 l 1086 0 l 632 0 l 632 24 z "},"¾":{"ha":1147,"x_min":24,"x_max":1107,"o":"m 257 461 q 152 475 196 461 q 81 514 108 489 q 39 573 53 539 q 24 647 25 607 l 185 647 q 202 606 188 622 q 247 589 217 589 q 288 601 275 589 q 301 636 301 613 q 286 672 301 660 q 239 683 271 683 l 197 683 l 197 786 l 239 786 q 287 798 272 786 q 301 833 301 810 q 290 863 301 851 q 254 874 278 874 q 215 860 231 874 q 196 821 200 847 l 35 821 q 96 950 42 900 q 258 1000 150 1000 q 418 963 361 1000 q 475 856 475 925 q 450 783 475 811 q 381 743 425 756 q 457 706 428 736 q 486 629 486 676 q 429 508 486 554 q 257 461 372 461 m 931 993 l 1061 993 l 283 0 l 153 0 l 931 993 m 863 97 l 603 97 l 603 165 l 819 522 l 1040 522 l 1040 218 l 1107 218 l 1107 97 l 1040 97 l 1040 0 l 863 0 l 863 97 m 868 218 l 868 401 l 761 218 l 868 218 z "},"Ð":{"ha":1075,"x_min":40,"x_max":1014,"o":"m 40 594 l 122 594 l 122 993 l 482 993 q 881 866 747 993 q 1014 508 1014 739 l 1014 497 q 980 289 1014 381 q 879 133 946 197 q 713 34 813 68 q 482 0 613 0 l 122 0 l 122 403 l 40 403 l 40 594 m 474 219 q 658 287 600 219 q 717 493 717 354 l 717 504 q 659 710 717 647 q 471 774 601 774 l 401 774 l 401 594 l 568 594 l 568 403 l 401 403 l 401 219 l 474 219 z "},"×":{"ha":793,"x_min":50,"x_max":742,"o":"m 54 256 l 265 467 l 50 681 l 182 814 l 396 597 l 608 810 l 739 678 l 526 467 l 742 253 l 610 121 l 396 336 l 185 125 l 54 256 z "},"Ý":{"ha":940,"x_min":6,"x_max":924,"o":"m 329 425 l 6 993 l 315 993 l 483 658 l 651 993 l 924 993 l 615 425 l 615 0 l 329 0 l 329 425 m 439 1257 l 699 1257 l 556 1054 l 368 1054 l 439 1257 z "},"Þ":{"ha":906,"x_min":96,"x_max":872,"o":"m 96 993 l 379 993 l 379 831 l 474 831 q 776 751 679 831 q 872 511 872 672 l 872 506 q 772 269 872 350 q 486 188 672 188 l 379 188 l 379 0 l 96 0 l 96 993 m 461 382 q 567 413 532 382 q 601 504 601 443 l 601 510 q 565 601 601 575 q 463 628 529 628 l 379 628 l 379 382 l 461 382 z "},"ð":{"ha":865,"x_min":35,"x_max":829,"o":"m 163 858 l 314 914 q 228 985 271 951 q 147 1046 186 1018 l 422 1046 q 464 1019 442 1033 q 510 988 486 1004 l 657 1042 l 690 954 l 593 918 q 681 823 639 875 q 757 708 724 771 q 810 575 790 646 q 829 424 829 504 l 829 393 q 800 222 829 297 q 718 93 771 146 q 592 12 665 40 q 428 -17 518 -17 q 272 9 344 -17 q 147 83 200 35 q 65 203 94 132 q 35 365 35 275 l 35 381 q 63 530 35 464 q 136 642 90 596 q 240 710 182 686 q 360 735 299 735 q 445 721 413 735 q 510 674 478 707 q 458 760 489 718 q 389 843 426 803 l 196 772 l 163 858 m 433 168 q 540 217 504 168 q 576 358 576 267 l 576 369 q 540 510 576 461 q 433 560 504 560 q 326 512 364 560 q 289 372 289 464 l 289 361 q 325 217 289 267 q 433 168 361 168 z "},"ý":{"ha":818,"x_min":11,"x_max":807,"o":"m 301 74 l 11 726 l 281 726 l 431 339 l 569 726 l 807 726 l 418 -243 l 181 -243 l 301 74 m 401 1040 l 651 1040 l 506 810 l 328 810 l 401 1040 z "},"þ":{"ha":893,"x_min":74,"x_max":856,"o":"m 74 1046 l 322 1046 l 322 618 q 410 708 354 671 q 549 746 465 746 q 668 722 613 746 q 765 651 724 699 q 831 533 807 604 q 856 369 856 463 l 856 358 q 831 194 856 264 q 765 78 807 124 q 667 7 724 31 q 547 -17 611 -17 q 407 18 464 -17 q 322 107 350 53 l 322 -243 l 74 -243 l 74 1046 m 460 174 q 567 221 531 174 q 603 358 603 268 l 603 369 q 565 512 603 465 q 460 558 526 558 q 353 510 392 558 q 315 371 315 463 l 315 360 q 353 220 315 267 q 460 174 392 174 z "},"Ł":{"ha":824,"x_min":35,"x_max":783,"o":"m 35 468 l 122 499 l 122 993 l 407 993 l 407 597 l 657 685 l 657 533 l 407 447 l 407 221 l 783 221 l 783 0 l 122 0 l 122 349 l 35 318 l 35 468 z "},"ł":{"ha":463,"x_min":24,"x_max":444,"o":"m 24 522 l 108 563 l 108 1046 l 356 1046 l 356 683 l 444 726 l 444 565 l 356 522 l 356 0 l 108 0 l 108 403 l 24 363 l 24 522 z "},"Š":{"ha":899,"x_min":26,"x_max":854,"o":"m 454 -17 q 139 68 244 -17 q 26 315 33 153 l 297 315 q 308 265 300 289 q 335 225 317 242 q 381 197 351 207 q 454 186 410 186 q 549 213 517 186 q 582 285 582 240 q 574 323 582 307 q 549 350 567 339 q 500 367 531 360 q 425 381 469 374 q 248 416 319 393 q 133 476 176 439 q 69 568 89 514 q 50 697 50 622 q 76 821 50 764 q 153 919 103 878 q 274 984 203 961 q 435 1007 346 1007 q 714 931 615 1007 q 826 697 813 856 l 563 697 q 524 777 556 750 q 435 804 493 804 q 348 781 376 804 q 319 719 319 757 q 326 683 319 699 q 351 657 333 668 q 398 636 368 644 q 474 622 428 628 q 639 592 568 611 q 758 539 710 574 q 830 449 806 503 q 854 314 854 394 q 828 185 854 246 q 750 81 801 125 q 624 10 699 36 q 454 -17 550 -17 m 179 1257 l 360 1257 l 440 1189 l 522 1257 l 699 1257 l 540 1054 l 332 1054 l 179 1257 z "},"š":{"ha":715,"x_min":19,"x_max":682,"o":"m 353 -17 q 110 46 197 -17 q 19 231 24 108 l 249 231 q 277 169 256 190 q 351 149 299 149 q 419 165 397 149 q 440 208 440 181 q 410 249 440 235 q 306 274 381 263 q 180 299 232 283 q 94 343 128 315 q 45 410 61 369 q 29 507 29 450 q 54 612 29 567 q 122 688 79 657 q 221 731 164 717 q 340 746 278 746 q 463 733 407 746 q 561 693 519 721 q 628 621 603 665 q 661 511 654 576 l 436 511 q 408 565 429 547 q 343 583 386 583 q 282 567 303 583 q 261 526 261 551 q 289 488 261 500 q 383 467 317 475 q 515 442 458 457 q 608 400 571 426 q 664 332 646 372 q 682 233 682 292 q 593 44 682 104 q 353 -17 504 -17 m 86 1039 l 260 1039 l 344 961 l 429 1039 l 599 1039 l 428 813 l 251 813 l 86 1039 z "},"Ž":{"ha":871,"x_min":13,"x_max":839,"o":"m 13 32 l 435 775 l 67 775 l 67 993 l 839 993 l 839 963 l 422 219 l 818 219 l 818 0 l 13 0 l 13 32 m 179 1257 l 360 1257 l 440 1189 l 522 1257 l 699 1257 l 540 1054 l 332 1054 l 179 1257 z "},"ž":{"ha":706,"x_min":8,"x_max":682,"o":"m 8 25 l 326 539 l 42 539 l 42 726 l 682 726 l 682 700 l 356 188 l 665 188 l 665 0 l 8 0 l 8 25 m 99 1039 l 272 1039 l 357 961 l 442 1039 l 611 1039 l 440 813 l 264 813 l 99 1039 z "},"−":{"ha":794,"x_min":51,"x_max":743,"o":"m 51 568 l 743 568 l 743 376 l 51 376 l 51 568 z "},"Đ":{"ha":1075,"x_min":40,"x_max":1014,"o":"m 40 594 l 122 594 l 122 993 l 482 993 q 881 866 747 993 q 1014 508 1014 739 l 1014 497 q 980 289 1014 381 q 879 133 946 197 q 713 34 813 68 q 482 0 613 0 l 122 0 l 122 403 l 40 403 l 40 594 m 474 219 q 658 287 600 219 q 717 493 717 354 l 717 504 q 659 710 717 647 q 471 774 601 774 l 401 774 l 401 594 l 568 594 l 568 403 l 401 403 l 401 219 l 474 219 z "},"Ŋ":{"ha":1079,"x_min":96,"x_max":983,"o":"m 649 -267 q 546 -258 583 -267 q 478 -235 508 -250 l 478 -33 q 524 -47 501 -42 q 586 -53 547 -53 q 661 -35 631 -53 q 699 22 692 -17 l 353 647 l 353 0 l 96 0 l 96 993 l 421 993 l 728 421 l 728 993 l 983 993 l 983 32 q 962 -91 983 -36 q 899 -185 940 -146 q 794 -245 857 -224 q 649 -267 732 -267 z "},"Ĳ":{"ha":1122,"x_min":101,"x_max":1033,"o":"m 101 993 l 389 993 l 389 0 l 101 0 l 101 993 m 678 -12 q 567 -3 607 -12 q 497 21 528 6 l 497 233 q 549 219 522 225 q 618 214 575 214 q 712 244 676 214 q 747 351 747 274 l 747 993 l 1033 993 l 1033 349 q 944 78 1033 168 q 678 -12 854 -12 z "},"đ":{"ha":892,"x_min":38,"x_max":897,"o":"m 354 949 l 569 949 l 569 1046 l 818 1046 l 818 949 l 897 949 l 897 815 l 818 815 l 818 0 l 569 0 l 569 118 q 484 22 542 61 q 343 -17 426 -17 q 225 6 281 -17 q 128 75 169 29 q 62 191 86 121 q 38 356 38 261 l 38 367 q 61 531 38 460 q 126 650 85 601 q 224 722 168 697 q 346 746 281 746 q 485 713 432 746 q 569 624 538 679 l 569 815 l 354 815 l 354 949 m 431 174 q 538 220 499 174 q 576 360 576 267 l 576 371 q 540 510 576 463 q 433 558 503 558 q 326 511 363 558 q 290 369 290 464 l 290 358 q 328 220 290 267 q 431 174 365 174 z "},"ŋ":{"ha":867,"x_min":74,"x_max":799,"o":"m 463 -75 q 529 -52 508 -72 q 550 11 550 -32 l 550 422 q 525 515 550 485 q 446 544 500 544 q 356 511 390 544 q 322 407 322 478 l 322 0 l 74 0 l 74 726 l 322 726 l 322 610 q 410 706 351 667 q 561 746 469 746 q 733 678 667 746 q 799 472 799 611 l 799 6 q 783 -101 799 -53 q 729 -185 768 -150 q 626 -237 690 -218 q 463 -256 561 -256 l 463 -75 z "},"ĳ":{"ha":814,"x_min":63,"x_max":746,"o":"m 75 726 l 324 726 l 324 0 l 75 0 l 75 726 m 199 796 q 101 832 140 796 q 63 924 63 868 q 101 1016 63 979 q 199 1053 140 1053 q 297 1016 257 1053 q 336 924 336 979 q 297 832 336 868 q 199 796 257 796 m 396 -75 q 463 -52 442 -72 q 485 11 485 -32 l 485 726 l 732 726 l 732 6 q 717 -101 732 -53 q 663 -185 701 -150 q 559 -237 624 -218 q 396 -256 494 -256 l 396 -75 m 608 796 q 511 832 550 796 q 472 924 472 868 q 511 1016 472 979 q 608 1053 550 1053 q 706 1016 667 1053 q 746 924 746 979 q 706 832 746 868 q 608 796 667 796 z "},"Ă":{"ha":1038,"x_min":13,"x_max":1014,"o":"m 331 993 l 699 993 l 1014 0 l 713 0 l 660 185 l 331 185 l 278 0 l 13 0 l 331 993 m 386 381 l 604 381 l 496 763 l 386 381 m 508 1044 q 346 1101 406 1044 q 279 1257 286 1157 l 440 1257 q 460 1210 443 1228 q 508 1193 478 1193 q 558 1210 539 1193 q 581 1257 576 1228 l 740 1257 q 670 1101 732 1157 q 508 1044 608 1044 z "},"Ā":{"ha":1038,"x_min":18,"x_max":1019,"o":"m 336 993 l 704 993 l 1019 0 l 718 0 l 665 185 l 336 185 l 283 0 l 18 0 l 336 993 m 392 381 l 610 381 l 501 763 l 392 381 m 292 1219 l 739 1219 l 739 1071 l 292 1071 l 292 1219 z "},"Ą":{"ha":1038,"x_min":18,"x_max":1013,"o":"m 883 -253 q 758 -222 803 -253 q 713 -140 713 -192 q 723 -94 713 -115 q 750 -56 733 -72 q 788 -25 767 -39 q 831 0 808 -11 l 718 0 l 665 185 l 336 185 l 283 0 l 18 0 l 336 993 l 704 993 l 1013 19 q 949 -33 971 -6 q 928 -83 928 -60 q 938 -110 928 -101 q 968 -119 949 -119 q 990 -117 981 -119 q 1010 -112 1000 -115 l 1010 -231 q 959 -246 990 -239 q 883 -253 928 -253 m 392 381 l 610 381 l 501 763 l 392 381 z "},"Ǻ":{"ha":1038,"x_min":18,"x_max":1019,"o":"m 336 993 l 704 993 l 1019 0 l 718 0 l 665 185 l 336 185 l 283 0 l 18 0 l 336 993 m 392 381 l 610 381 l 501 763 l 392 381 m 521 1121 q 567 1140 549 1121 q 585 1190 585 1160 q 567 1241 585 1222 q 521 1260 549 1260 q 474 1241 492 1260 q 457 1190 457 1222 q 474 1140 457 1160 q 521 1121 492 1121 m 521 1029 q 456 1042 486 1029 q 404 1078 426 1056 q 367 1128 381 1099 q 354 1190 354 1157 q 367 1253 354 1224 q 404 1304 381 1282 q 456 1339 426 1326 q 521 1351 486 1351 q 585 1339 556 1351 q 639 1304 615 1326 q 674 1253 661 1282 q 688 1190 688 1224 q 674 1128 688 1157 q 639 1078 661 1099 q 585 1042 615 1056 q 521 1029 556 1029 m 496 1579 l 756 1579 l 613 1376 l 425 1376 l 496 1579 z "},"Ǽ":{"ha":1392,"x_min":10,"x_max":1342,"o":"m 456 993 l 1319 993 l 1319 774 l 926 774 l 926 603 l 1236 603 l 1236 400 l 926 400 l 926 219 l 1342 219 l 1342 0 l 642 0 l 642 203 l 368 203 l 281 0 l 10 0 l 456 993 m 450 394 l 642 394 l 642 774 l 614 774 l 450 394 m 811 1257 l 1071 1257 l 928 1054 l 740 1054 l 811 1257 z "},"Ć":{"ha":1054,"x_min":39,"x_max":1019,"o":"m 557 -17 q 329 19 426 -17 q 168 122 232 56 q 71 283 103 189 q 39 490 39 376 l 39 501 q 77 709 39 615 q 183 869 115 803 q 344 972 251 936 q 546 1008 438 1008 q 724 985 643 1008 q 865 917 804 963 q 962 797 925 869 q 1007 626 999 725 l 714 626 q 664 743 706 703 q 547 783 622 783 q 395 711 451 783 q 339 503 339 639 l 339 492 q 394 284 339 357 q 551 211 449 211 q 676 251 626 211 q 736 374 725 290 l 1019 374 q 975 204 1013 278 q 878 82 938 131 q 735 8 817 33 q 557 -17 653 -17 m 508 1257 l 768 1257 l 625 1054 l 438 1054 l 508 1257 z "},"Č":{"ha":1054,"x_min":39,"x_max":1019,"o":"m 557 -17 q 329 19 426 -17 q 168 122 232 56 q 71 283 103 189 q 39 490 39 376 l 39 501 q 77 709 39 615 q 183 869 115 803 q 344 972 251 936 q 546 1008 438 1008 q 724 985 643 1008 q 865 917 804 963 q 962 797 925 869 q 1007 626 999 725 l 714 626 q 664 743 706 703 q 547 783 622 783 q 395 711 451 783 q 339 503 339 639 l 339 492 q 394 284 339 357 q 551 211 449 211 q 676 251 626 211 q 736 374 725 290 l 1019 374 q 975 204 1013 278 q 878 82 938 131 q 735 8 817 33 q 557 -17 653 -17 m 282 1257 l 463 1257 l 543 1189 l 625 1257 l 801 1257 l 643 1054 l 435 1054 l 282 1257 z "},"Ĉ":{"ha":1054,"x_min":44,"x_max":1025,"o":"m 563 -17 q 335 19 432 -17 q 174 122 238 56 q 76 283 108 189 q 44 490 44 376 l 44 501 q 83 709 44 615 q 189 869 121 803 q 350 972 257 936 q 551 1008 443 1008 q 729 985 649 1008 q 871 917 810 963 q 967 797 931 869 q 1013 626 1004 725 l 719 626 q 669 743 711 703 q 553 783 628 783 q 401 711 457 783 q 344 503 344 639 l 344 492 q 399 284 344 357 q 557 211 454 211 q 681 251 632 211 q 742 374 731 290 l 1025 374 q 981 204 1018 278 q 883 82 943 131 q 740 8 822 33 q 563 -17 658 -17 m 447 1257 l 656 1257 l 808 1054 l 628 1054 l 546 1122 l 465 1054 l 289 1054 l 447 1257 z "},"Ċ":{"ha":1054,"x_min":39,"x_max":1019,"o":"m 557 -17 q 329 19 426 -17 q 168 122 232 56 q 71 283 103 189 q 39 490 39 376 l 39 501 q 77 709 39 615 q 183 869 115 803 q 344 972 251 936 q 546 1008 438 1008 q 724 985 643 1008 q 865 917 804 963 q 962 797 925 869 q 1007 626 999 725 l 714 626 q 664 743 706 703 q 547 783 622 783 q 395 711 451 783 q 339 503 339 639 l 339 492 q 394 284 339 357 q 551 211 449 211 q 676 251 626 211 q 736 374 725 290 l 1019 374 q 975 204 1013 278 q 878 82 938 131 q 735 8 817 33 q 557 -17 653 -17 m 542 1051 q 447 1087 485 1051 q 410 1176 410 1122 q 447 1265 410 1229 q 542 1300 485 1300 q 636 1265 599 1300 q 674 1176 674 1229 q 636 1087 674 1122 q 542 1051 599 1051 z "},"Ď":{"ha":1032,"x_min":90,"x_max":983,"o":"m 442 219 q 628 287 569 219 q 686 493 686 354 l 686 504 q 628 710 686 647 q 439 774 569 774 l 376 774 l 376 219 l 442 219 m 90 993 l 451 993 q 849 866 715 993 q 983 508 983 739 l 983 497 q 949 289 983 381 q 849 133 915 197 q 681 34 781 68 q 450 0 581 0 l 90 0 l 90 993 m 201 1257 l 382 1257 l 463 1189 l 544 1257 l 721 1257 l 563 1054 l 354 1054 l 201 1257 z "},"Ĕ":{"ha":850,"x_min":96,"x_max":804,"o":"m 96 993 l 782 993 l 782 774 l 379 774 l 379 603 l 700 603 l 700 400 l 379 400 l 379 219 l 804 219 l 804 0 l 96 0 l 96 993 m 447 1044 q 285 1101 344 1044 q 218 1257 225 1157 l 379 1257 q 399 1210 382 1228 q 447 1193 417 1193 q 497 1210 478 1193 q 519 1257 515 1228 l 679 1257 q 609 1101 671 1157 q 447 1044 547 1044 z "},"Ě":{"ha":850,"x_min":96,"x_max":804,"o":"m 96 993 l 782 993 l 782 774 l 379 774 l 379 603 l 700 603 l 700 400 l 379 400 l 379 219 l 804 219 l 804 0 l 96 0 l 96 993 m 190 1257 l 371 1257 l 451 1189 l 533 1257 l 710 1257 l 551 1054 l 343 1054 l 190 1257 z "},"Ė":{"ha":850,"x_min":90,"x_max":799,"o":"m 90 993 l 776 993 l 776 774 l 374 774 l 374 603 l 694 603 l 694 400 l 374 400 l 374 219 l 799 219 l 799 0 l 90 0 l 90 993 m 444 1051 q 350 1087 388 1051 q 313 1176 313 1122 q 350 1265 313 1229 q 444 1300 388 1300 q 539 1265 501 1300 q 576 1176 576 1229 q 539 1087 576 1122 q 444 1051 501 1051 z "},"Ē":{"ha":850,"x_min":96,"x_max":804,"o":"m 96 993 l 782 993 l 782 774 l 379 774 l 379 603 l 700 603 l 700 400 l 379 400 l 379 219 l 804 219 l 804 0 l 96 0 l 96 993 m 225 1219 l 672 1219 l 672 1071 l 225 1071 l 225 1219 z "},"Ę":{"ha":850,"x_min":96,"x_max":804,"o":"m 649 -253 q 524 -222 569 -253 q 479 -140 479 -192 q 490 -94 479 -115 q 517 -56 500 -72 q 555 -25 533 -39 q 599 0 576 -11 l 96 0 l 96 993 l 782 993 l 782 774 l 379 774 l 379 603 l 700 603 l 700 400 l 379 400 l 379 219 l 804 219 l 804 0 l 751 0 q 709 -42 724 -24 q 694 -83 694 -60 q 705 -110 694 -101 q 736 -119 715 -119 q 758 -118 747 -119 q 776 -112 768 -117 l 776 -231 q 726 -246 758 -239 q 649 -253 694 -253 z "},"Ğ":{"ha":1093,"x_min":38,"x_max":1044,"o":"m 558 -17 q 335 21 432 -17 q 172 126 238 58 q 72 286 106 193 q 38 490 38 379 l 38 501 q 77 708 38 615 q 186 868 117 801 q 351 972 256 935 q 558 1008 446 1008 q 726 988 646 1008 q 871 922 807 967 q 974 809 933 878 q 1021 643 1014 740 l 739 643 q 684 749 729 714 q 560 785 639 785 q 394 708 454 785 q 335 497 335 632 l 335 486 q 347 373 335 425 q 386 283 358 321 q 458 222 414 244 q 567 200 501 200 q 655 213 618 200 q 715 246 692 225 q 750 294 739 267 q 764 350 761 321 l 578 350 l 578 549 l 1044 549 l 1044 426 q 1014 251 1044 332 q 922 110 983 169 q 770 17 861 50 q 558 -17 679 -17 m 553 1044 q 390 1101 450 1044 q 324 1257 331 1157 l 485 1257 q 505 1210 488 1228 q 553 1193 522 1193 q 602 1210 583 1193 q 625 1257 621 1228 l 785 1257 q 715 1101 776 1157 q 553 1044 653 1044 z "},"Ĝ":{"ha":1093,"x_min":38,"x_max":1044,"o":"m 558 -17 q 335 21 432 -17 q 172 126 238 58 q 72 286 106 193 q 38 490 38 379 l 38 501 q 77 708 38 615 q 186 868 117 801 q 351 972 256 935 q 558 1008 446 1008 q 726 988 646 1008 q 871 922 807 967 q 974 809 933 878 q 1021 643 1014 740 l 739 643 q 684 749 729 714 q 560 785 639 785 q 394 708 454 785 q 335 497 335 632 l 335 486 q 347 373 335 425 q 386 283 358 321 q 458 222 414 244 q 567 200 501 200 q 655 213 618 200 q 715 246 692 225 q 750 294 739 267 q 764 350 761 321 l 578 350 l 578 549 l 1044 549 l 1044 426 q 1014 251 1044 332 q 922 110 983 169 q 770 17 861 50 q 558 -17 679 -17 m 453 1257 l 661 1257 l 814 1054 l 633 1054 l 551 1122 l 471 1054 l 294 1054 l 453 1257 z "},"Ģ":{"ha":1104,"x_min":43,"x_max":1050,"o":"m 564 -17 q 340 21 438 -17 q 178 126 243 58 q 77 286 111 193 q 43 490 43 379 l 43 501 q 83 708 43 615 q 192 868 122 801 q 356 972 261 935 q 564 1008 451 1008 q 732 988 651 1008 q 876 922 813 967 q 979 809 939 878 q 1026 643 1019 740 l 744 643 q 690 749 735 714 q 565 785 644 785 q 400 708 460 785 q 340 497 340 632 l 340 486 q 352 373 340 425 q 392 283 364 321 q 463 222 419 244 q 572 200 507 200 q 660 213 624 200 q 721 246 697 225 q 756 294 744 267 q 769 350 767 321 l 583 350 l 583 549 l 1050 549 l 1050 426 q 1019 251 1050 332 q 928 110 989 169 q 776 17 867 50 q 564 -17 685 -17 m 404 -285 l 463 -39 l 682 -65 l 544 -322 l 404 -285 z "},"Ġ":{"ha":1093,"x_min":38,"x_max":1044,"o":"m 558 -17 q 335 21 432 -17 q 172 126 238 58 q 72 286 106 193 q 38 490 38 379 l 38 501 q 77 708 38 615 q 186 868 117 801 q 351 972 256 935 q 558 1008 446 1008 q 726 988 646 1008 q 871 922 807 967 q 974 809 933 878 q 1021 643 1014 740 l 739 643 q 684 749 729 714 q 560 785 639 785 q 394 708 454 785 q 335 497 335 632 l 335 486 q 347 373 335 425 q 386 283 358 321 q 458 222 414 244 q 567 200 501 200 q 655 213 618 200 q 715 246 692 225 q 750 294 739 267 q 764 350 761 321 l 578 350 l 578 549 l 1044 549 l 1044 426 q 1014 251 1044 332 q 922 110 983 169 q 770 17 861 50 q 558 -17 679 -17 m 556 1051 q 461 1087 499 1051 q 424 1176 424 1122 q 461 1265 424 1229 q 556 1300 499 1300 q 650 1265 613 1300 q 688 1176 688 1229 q 650 1087 688 1122 q 556 1051 613 1051 z "},"Ħ":{"ha":1089,"x_min":13,"x_max":1076,"o":"m 13 857 l 96 857 l 96 993 l 382 993 l 382 857 l 708 857 l 708 993 l 993 993 l 993 857 l 1076 857 l 1076 724 l 993 724 l 993 0 l 708 0 l 708 392 l 382 392 l 382 0 l 96 0 l 96 724 l 13 724 l 13 857 m 708 614 l 708 724 l 382 724 l 382 614 l 708 614 z "},"Ĥ":{"ha":1089,"x_min":90,"x_max":988,"o":"m 90 993 l 376 993 l 376 614 l 703 614 l 703 993 l 988 993 l 988 0 l 703 0 l 703 392 l 376 392 l 376 0 l 90 0 l 90 993 m 438 1257 l 646 1257 l 799 1054 l 618 1054 l 536 1122 l 456 1054 l 279 1054 l 438 1257 z "},"Ĭ":{"ha":489,"x_min":10,"x_max":471,"o":"m 96 993 l 383 993 l 383 0 l 96 0 l 96 993 m 239 1044 q 76 1101 136 1044 q 10 1257 17 1157 l 171 1257 q 191 1210 174 1228 q 239 1193 208 1193 q 288 1210 269 1193 q 311 1257 307 1228 l 471 1257 q 401 1101 463 1157 q 239 1044 339 1044 z "},"İ":{"ha":489,"x_min":96,"x_max":383,"o":"m 96 993 l 383 993 l 383 0 l 96 0 l 96 993 m 240 1051 q 146 1087 183 1051 q 108 1176 108 1122 q 146 1265 108 1229 q 240 1300 183 1300 q 335 1265 297 1300 q 372 1176 372 1229 q 335 1087 372 1122 q 240 1051 297 1051 z "},"Ī":{"ha":489,"x_min":21,"x_max":468,"o":"m 101 993 l 389 993 l 389 0 l 101 0 l 101 993 m 21 1219 l 468 1219 l 468 1071 l 21 1071 l 21 1219 z "},"Į":{"ha":489,"x_min":97,"x_max":394,"o":"m 268 -253 q 143 -222 189 -253 q 97 -140 97 -192 q 108 -94 97 -115 q 135 -56 118 -72 q 173 -25 151 -39 q 215 0 194 -11 l 101 0 l 101 993 l 389 993 l 389 17 q 333 -34 353 -8 q 313 -83 313 -60 q 323 -110 313 -101 q 354 -119 333 -119 q 376 -118 365 -119 q 394 -112 386 -117 l 394 -231 q 344 -246 375 -239 q 268 -253 313 -253 z "},"Ĩ":{"ha":489,"x_min":-15,"x_max":507,"o":"m 101 993 l 389 993 l 389 0 l 101 0 l 101 993 m 336 1053 q 283 1060 307 1053 q 239 1076 258 1068 q 203 1092 219 1085 q 169 1100 186 1100 q 141 1087 153 1100 q 126 1054 129 1074 l -15 1054 q 3 1149 -11 1108 q 42 1215 18 1189 q 93 1254 64 1242 q 154 1267 122 1267 q 206 1260 182 1267 q 250 1244 229 1253 q 288 1228 269 1235 q 322 1221 306 1221 q 352 1233 342 1221 q 367 1265 363 1246 l 507 1265 q 488 1171 503 1211 q 450 1104 472 1131 q 397 1065 426 1078 q 336 1053 367 1053 z "},"Ĵ":{"ha":664,"x_min":40,"x_max":692,"o":"m 221 -12 q 110 -3 150 -12 q 40 21 71 6 l 40 233 q 92 219 65 225 q 161 214 118 214 q 255 244 219 214 q 290 351 290 274 l 290 993 l 576 993 l 576 349 q 487 78 576 168 q 221 -12 397 -12 m 331 1257 l 539 1257 l 692 1054 l 511 1054 l 429 1122 l 349 1054 l 172 1054 l 331 1257 z "},"Ķ":{"ha":1019,"x_min":96,"x_max":997,"o":"m 96 993 l 382 993 l 382 600 l 681 993 l 978 993 l 614 532 l 997 0 l 668 0 l 382 415 l 382 0 l 96 0 l 96 993 m 363 -285 l 421 -39 l 640 -65 l 503 -322 l 363 -285 z "},"Ĺ":{"ha":799,"x_min":90,"x_max":751,"o":"m 90 993 l 376 993 l 376 221 l 751 221 l 751 0 l 90 0 l 90 993 m 203 1257 l 463 1257 l 319 1054 l 132 1054 l 203 1257 z "},"Ľ":{"ha":799,"x_min":96,"x_max":757,"o":"m 500 993 l 706 993 l 621 749 l 478 749 l 500 993 m 96 993 l 382 993 l 382 221 l 757 221 l 757 0 l 96 0 l 96 993 z "},"Ļ":{"ha":810,"x_min":96,"x_max":757,"o":"m 96 993 l 382 993 l 382 221 l 757 221 l 757 0 l 96 0 l 96 993 m 267 -285 l 325 -39 l 544 -65 l 407 -322 l 267 -285 z "},"Ŀ":{"ha":835,"x_min":90,"x_max":799,"o":"m 90 993 l 376 993 l 376 221 l 751 221 l 751 0 l 90 0 l 90 993 m 653 415 q 596 426 622 415 q 551 457 569 438 q 522 501 532 475 q 511 556 511 526 q 522 610 511 585 q 551 656 532 636 q 596 685 569 674 q 653 696 622 696 q 710 685 683 696 q 757 656 738 674 q 788 610 776 636 q 799 556 799 585 q 788 501 799 526 q 757 457 776 475 q 710 426 738 438 q 653 415 683 415 z "},"Ń":{"ha":1079,"x_min":96,"x_max":983,"o":"m 96 993 l 417 993 l 735 433 l 735 993 l 983 993 l 983 0 l 708 0 l 346 624 l 346 0 l 96 0 l 96 993 m 529 1257 l 789 1257 l 646 1054 l 458 1054 l 529 1257 z "},"Ň":{"ha":1079,"x_min":90,"x_max":978,"o":"m 90 993 l 411 993 l 729 433 l 729 993 l 978 993 l 978 0 l 703 0 l 340 624 l 340 0 l 90 0 l 90 993 m 297 1257 l 478 1257 l 558 1189 l 640 1257 l 817 1257 l 658 1054 l 450 1054 l 297 1257 z "},"Ņ":{"ha":1090,"x_min":96,"x_max":983,"o":"m 96 993 l 417 993 l 735 433 l 735 993 l 983 993 l 983 0 l 708 0 l 346 624 l 346 0 l 96 0 l 96 993 m 378 -285 l 436 -39 l 656 -65 l 518 -322 l 378 -285 z "},"Ŏ":{"ha":1138,"x_min":38,"x_max":1089,"o":"m 564 207 q 731 283 669 207 q 792 493 792 358 l 792 504 q 730 711 792 638 q 563 785 668 785 q 396 712 457 785 q 335 503 335 639 l 335 492 q 397 281 335 356 q 564 207 460 207 m 558 -17 q 342 21 438 -17 q 178 125 246 58 q 74 285 110 192 q 38 490 38 378 l 38 501 q 78 708 38 615 q 189 868 118 801 q 356 971 260 935 q 563 1007 451 1007 q 773 972 676 1007 q 940 874 869 938 q 1049 716 1010 808 q 1089 508 1089 624 l 1089 497 q 1051 288 1089 382 q 944 126 1014 193 q 777 21 875 58 q 558 -17 679 -17 m 560 1044 q 397 1101 457 1044 q 331 1257 338 1157 l 492 1257 q 512 1210 494 1228 q 560 1193 529 1193 q 609 1210 590 1193 q 632 1257 628 1228 l 792 1257 q 722 1101 783 1157 q 560 1044 660 1044 z "},"Ő":{"ha":1138,"x_min":43,"x_max":1094,"o":"m 569 207 q 736 283 675 207 q 797 493 797 358 l 797 504 q 735 711 797 638 q 568 785 674 785 q 401 712 463 785 q 340 503 340 639 l 340 492 q 403 281 340 356 q 569 207 465 207 m 564 -17 q 347 21 443 -17 q 183 125 251 58 q 79 285 115 192 q 43 490 43 378 l 43 501 q 83 708 43 615 q 194 868 124 801 q 361 971 265 935 q 568 1007 457 1007 q 778 972 682 1007 q 946 874 875 938 q 1055 716 1015 808 q 1094 508 1094 624 l 1094 497 q 1057 288 1094 382 q 950 126 1019 193 q 783 21 881 58 q 564 -17 685 -17 m 389 1257 l 601 1257 l 499 1054 l 332 1054 l 389 1257 m 658 1257 l 872 1257 l 768 1054 l 601 1054 l 658 1257 z "},"Ō":{"ha":1138,"x_min":43,"x_max":1094,"o":"m 569 207 q 736 283 675 207 q 797 493 797 358 l 797 504 q 735 711 797 638 q 568 785 674 785 q 401 712 463 785 q 340 503 340 639 l 340 492 q 403 281 340 356 q 569 207 465 207 m 564 -17 q 347 21 443 -17 q 183 125 251 58 q 79 285 115 192 q 43 490 43 378 l 43 501 q 83 708 43 615 q 194 868 124 801 q 361 971 265 935 q 568 1007 457 1007 q 778 972 682 1007 q 946 874 875 938 q 1055 716 1015 808 q 1094 508 1094 624 l 1094 497 q 1057 288 1094 382 q 950 126 1019 193 q 783 21 881 58 q 564 -17 685 -17 m 343 1219 l 790 1219 l 790 1071 l 343 1071 l 343 1219 z "},"Ǿ":{"ha":1138,"x_min":38,"x_max":1089,"o":"m 39 36 l 150 154 q 67 305 96 219 q 38 490 38 390 l 38 501 q 78 708 38 615 q 189 868 118 801 q 356 971 260 935 q 563 1007 451 1007 q 733 985 654 1007 q 878 921 813 963 l 979 1028 l 1061 947 l 965 846 q 1056 698 1024 783 q 1089 508 1089 613 l 1089 497 q 1051 288 1089 382 q 944 126 1014 193 q 777 21 875 58 q 558 -17 679 -17 q 380 8 461 -17 q 235 76 299 32 l 121 -44 l 39 36 m 564 207 q 733 283 671 207 q 794 493 794 358 l 794 504 q 789 578 794 544 q 772 642 783 613 l 411 263 q 480 221 442 235 q 564 207 518 207 m 332 492 q 337 422 332 454 q 350 364 342 390 l 704 739 q 641 774 676 763 q 563 785 606 785 q 394 712 456 785 q 332 503 332 639 l 332 492 m 528 1257 l 788 1257 l 644 1054 l 457 1054 l 528 1257 z "},"Ŕ":{"ha":968,"x_min":96,"x_max":947,"o":"m 96 993 l 485 993 q 785 915 681 993 q 889 678 889 836 l 889 672 q 838 503 889 565 q 710 411 788 442 l 947 0 l 647 0 l 446 356 l 379 356 l 379 0 l 96 0 l 96 993 m 471 540 q 578 571 543 540 q 614 661 614 601 l 614 667 q 578 753 614 728 q 472 779 542 779 l 379 779 l 379 540 l 471 540 m 433 1257 l 693 1257 l 550 1054 l 363 1054 l 433 1257 z "},"Ř":{"ha":968,"x_min":90,"x_max":942,"o":"m 90 993 l 479 993 q 779 915 675 993 q 883 678 883 836 l 883 672 q 833 503 883 565 q 704 411 782 442 l 942 0 l 642 0 l 440 356 l 374 356 l 374 0 l 90 0 l 90 993 m 465 540 q 573 571 538 540 q 608 661 608 601 l 608 667 q 572 753 608 728 q 467 779 536 779 l 374 779 l 374 540 l 465 540 m 201 1257 l 382 1257 l 463 1189 l 544 1257 l 721 1257 l 563 1054 l 354 1054 l 201 1257 z "},"Ŗ":{"ha":979,"x_min":96,"x_max":947,"o":"m 96 993 l 485 993 q 785 915 681 993 q 889 678 889 836 l 889 672 q 838 503 889 565 q 710 411 788 442 l 947 0 l 647 0 l 446 356 l 379 356 l 379 0 l 96 0 l 96 993 m 471 540 q 578 571 543 540 q 614 661 614 601 l 614 667 q 578 753 614 728 q 472 779 542 779 l 379 779 l 379 540 l 471 540 m 353 -285 l 411 -39 l 631 -65 l 493 -322 l 353 -285 z "},"Ś":{"ha":899,"x_min":26,"x_max":854,"o":"m 454 -17 q 139 68 244 -17 q 26 315 33 153 l 297 315 q 308 265 300 289 q 335 225 317 242 q 381 197 351 207 q 454 186 410 186 q 549 213 517 186 q 582 285 582 240 q 574 323 582 307 q 549 350 567 339 q 500 367 531 360 q 425 381 469 374 q 248 416 319 393 q 133 476 176 439 q 69 568 89 514 q 50 697 50 622 q 76 821 50 764 q 153 919 103 878 q 274 984 203 961 q 435 1007 346 1007 q 714 931 615 1007 q 826 697 813 856 l 563 697 q 524 777 556 750 q 435 804 493 804 q 348 781 376 804 q 319 719 319 757 q 326 683 319 699 q 351 657 333 668 q 398 636 368 644 q 474 622 428 628 q 639 592 568 611 q 758 539 710 574 q 830 449 806 503 q 854 314 854 394 q 828 185 854 246 q 750 81 801 125 q 624 10 699 36 q 454 -17 550 -17 m 406 1257 l 665 1257 l 522 1054 l 335 1054 l 406 1257 z "},"Ş":{"ha":910,"x_min":38,"x_max":865,"o":"m 429 -314 q 308 -281 354 -314 q 253 -185 263 -247 l 369 -185 q 385 -212 374 -200 q 419 -224 396 -224 q 452 -212 440 -224 q 464 -182 464 -200 q 452 -151 464 -162 q 418 -139 440 -139 q 391 -144 401 -139 q 374 -154 381 -149 l 319 -101 l 378 -12 q 127 88 211 4 q 38 315 43 171 l 308 315 q 319 265 311 289 q 346 225 328 242 q 392 197 363 207 q 465 186 421 186 q 560 213 528 186 q 593 285 593 240 q 585 323 593 307 q 560 350 578 339 q 511 367 542 360 q 436 381 481 374 q 259 416 331 393 q 144 476 188 439 q 81 568 100 514 q 61 697 61 622 q 88 821 61 764 q 164 919 114 878 q 285 984 214 961 q 446 1007 357 1007 q 725 931 626 1007 q 838 697 824 856 l 574 697 q 535 777 567 750 q 446 804 504 804 q 359 781 388 804 q 331 719 331 757 q 338 683 331 699 q 363 657 344 668 q 409 636 379 644 q 485 622 439 628 q 650 592 579 611 q 769 539 721 574 q 841 449 817 503 q 865 314 865 394 q 839 187 865 246 q 763 83 813 128 q 640 11 713 38 q 474 -17 567 -15 l 443 -62 q 501 -65 474 -60 q 551 -86 529 -71 q 585 -124 572 -100 q 597 -182 597 -149 q 551 -279 597 -244 q 429 -314 506 -314 z "},"Ŝ":{"ha":899,"x_min":32,"x_max":860,"o":"m 460 -17 q 144 68 250 -17 q 32 315 39 153 l 303 315 q 314 265 306 289 q 340 225 322 242 q 386 197 357 207 q 460 186 415 186 q 555 213 522 186 q 588 285 588 240 q 580 323 588 307 q 554 350 572 339 q 506 367 536 360 q 431 381 475 374 q 253 416 325 393 q 139 476 182 439 q 75 568 94 514 q 56 697 56 622 q 82 821 56 764 q 158 919 108 878 q 280 984 208 961 q 440 1007 351 1007 q 719 931 621 1007 q 832 697 818 856 l 568 697 q 530 777 561 750 q 440 804 499 804 q 353 781 382 804 q 325 719 325 757 q 332 683 325 699 q 357 657 339 668 q 403 636 374 644 q 479 622 433 628 q 644 592 574 611 q 764 539 715 574 q 835 449 811 503 q 860 314 860 394 q 833 185 860 246 q 756 81 807 125 q 630 10 704 36 q 460 -17 556 -17 m 344 1257 l 553 1257 l 706 1054 l 525 1054 l 443 1122 l 363 1054 l 186 1054 l 344 1257 z "},"Ș":{"ha":915,"x_min":32,"x_max":860,"o":"m 460 -17 q 144 68 250 -17 q 32 315 39 153 l 303 315 q 314 265 306 289 q 340 225 322 242 q 386 197 357 207 q 460 186 415 186 q 555 213 522 186 q 588 285 588 240 q 580 323 588 307 q 554 350 572 339 q 506 367 536 360 q 431 381 475 374 q 253 416 325 393 q 139 476 182 439 q 75 568 94 514 q 56 697 56 622 q 82 821 56 764 q 158 919 108 878 q 280 984 208 961 q 440 1007 351 1007 q 719 931 621 1007 q 832 697 818 856 l 568 697 q 530 777 561 750 q 440 804 499 804 q 353 781 382 804 q 325 719 325 757 q 332 683 325 699 q 357 657 339 668 q 403 636 374 644 q 479 622 433 628 q 644 592 574 611 q 764 539 715 574 q 835 449 811 503 q 860 314 860 394 q 833 185 860 246 q 756 81 807 125 q 630 10 704 36 q 460 -17 556 -17 m 290 -285 l 349 -39 l 568 -65 l 431 -322 l 290 -285 z "},"Ť":{"ha":858,"x_min":24,"x_max":824,"o":"m 281 774 l 24 774 l 24 993 l 824 993 l 824 774 l 567 774 l 567 0 l 281 0 l 281 774 m 161 1257 l 342 1257 l 422 1189 l 504 1257 l 681 1257 l 522 1054 l 314 1054 l 161 1257 z "},"Ţ":{"ha":858,"x_min":24,"x_max":824,"o":"m 281 774 l 24 774 l 24 993 l 824 993 l 824 774 l 567 774 l 567 0 l 281 0 l 281 774 m 267 -285 l 325 -39 l 544 -65 l 407 -322 l 267 -285 z "},"Ț":{"ha":858,"x_min":29,"x_max":829,"o":"m 286 774 l 29 774 l 29 993 l 829 993 l 829 774 l 572 774 l 572 0 l 286 0 l 286 774 m 272 -285 l 331 -39 l 550 -65 l 413 -322 l 272 -285 z "},"Ŧ":{"ha":858,"x_min":29,"x_max":829,"o":"m 111 565 l 286 565 l 286 774 l 29 774 l 29 993 l 829 993 l 829 774 l 572 774 l 572 565 l 747 565 l 747 388 l 572 388 l 572 0 l 286 0 l 286 388 l 111 388 l 111 565 z "},"Ŭ":{"ha":1061,"x_min":83,"x_max":967,"o":"m 524 -17 q 198 88 313 -17 q 83 403 83 193 l 83 993 l 368 993 l 368 415 q 401 258 368 310 q 524 207 433 207 q 646 257 613 207 q 679 419 679 307 l 679 993 l 967 993 l 967 407 q 936 219 967 299 q 849 88 906 139 q 708 9 790 35 q 524 -17 626 -17 m 521 1044 q 358 1101 418 1044 q 292 1257 299 1157 l 453 1257 q 473 1210 456 1228 q 521 1193 490 1193 q 570 1210 551 1193 q 593 1257 589 1228 l 753 1257 q 683 1101 744 1157 q 521 1044 621 1044 z "},"Ű":{"ha":1061,"x_min":83,"x_max":967,"o":"m 524 -17 q 198 88 313 -17 q 83 403 83 193 l 83 993 l 368 993 l 368 415 q 401 258 368 310 q 524 207 433 207 q 646 257 613 207 q 679 419 679 307 l 679 993 l 967 993 l 967 407 q 936 219 967 299 q 849 88 906 139 q 708 9 790 35 q 524 -17 626 -17 m 344 1257 l 557 1257 l 454 1054 l 288 1054 l 344 1257 m 614 1257 l 828 1257 l 724 1054 l 557 1054 l 614 1257 z "},"Ū":{"ha":1061,"x_min":89,"x_max":972,"o":"m 529 -17 q 203 88 318 -17 q 89 403 89 193 l 89 993 l 374 993 l 374 415 q 406 258 374 310 q 529 207 439 207 q 651 257 618 207 q 685 419 685 307 l 685 993 l 972 993 l 972 407 q 942 219 972 299 q 854 88 911 139 q 714 9 796 35 q 529 -17 632 -17 m 304 1219 l 751 1219 l 751 1071 l 304 1071 l 304 1219 z "},"Ų":{"ha":1061,"x_min":89,"x_max":972,"o":"m 583 -253 q 461 -223 506 -253 q 417 -142 417 -193 q 444 -68 417 -99 q 506 -17 471 -37 q 197 94 304 -10 q 89 403 89 199 l 89 993 l 374 993 l 374 415 q 406 258 374 310 q 529 207 439 207 q 651 257 618 207 q 685 419 685 307 l 685 993 l 972 993 l 972 407 q 915 163 972 257 q 758 24 858 69 q 710 1 733 13 q 668 -22 686 -10 q 640 -48 650 -33 q 629 -82 629 -62 q 640 -110 629 -101 q 672 -119 651 -119 q 694 -117 685 -119 q 714 -112 704 -115 l 714 -231 q 663 -246 694 -239 q 583 -253 631 -253 z "},"Ů":{"ha":1061,"x_min":83,"x_max":967,"o":"m 524 -17 q 198 88 313 -17 q 83 403 83 193 l 83 993 l 368 993 l 368 415 q 401 258 368 310 q 524 207 433 207 q 646 257 613 207 q 679 419 679 307 l 679 993 l 967 993 l 967 407 q 936 219 967 299 q 849 88 906 139 q 708 9 790 35 q 524 -17 626 -17 m 522 1097 q 568 1117 550 1097 q 586 1167 586 1136 q 568 1217 586 1199 q 522 1236 550 1236 q 476 1217 493 1236 q 458 1167 458 1199 q 476 1117 458 1136 q 522 1097 493 1097 m 522 1006 q 458 1019 488 1006 q 406 1054 428 1032 q 369 1104 382 1075 q 356 1167 356 1133 q 369 1229 356 1200 q 406 1281 382 1258 q 458 1315 428 1303 q 522 1328 488 1328 q 587 1315 557 1328 q 640 1281 617 1303 q 676 1229 663 1258 q 689 1167 689 1200 q 676 1104 689 1133 q 640 1054 663 1075 q 587 1019 617 1032 q 522 1006 557 1006 z "},"Ũ":{"ha":1061,"x_min":83,"x_max":967,"o":"m 524 -17 q 198 88 313 -17 q 83 403 83 193 l 83 993 l 368 993 l 368 415 q 401 258 368 310 q 524 207 433 207 q 646 257 613 207 q 679 419 679 307 l 679 993 l 967 993 l 967 407 q 936 219 967 299 q 849 88 906 139 q 708 9 790 35 q 524 -17 626 -17 m 613 1053 q 559 1060 583 1053 q 515 1076 535 1068 q 479 1092 496 1085 q 446 1100 463 1100 q 417 1087 429 1100 q 403 1054 406 1074 l 261 1054 q 280 1149 265 1108 q 318 1215 294 1189 q 369 1254 340 1242 q 431 1267 399 1267 q 482 1260 458 1267 q 526 1244 506 1253 q 564 1228 546 1235 q 599 1221 582 1221 q 628 1233 618 1221 q 643 1265 639 1246 l 783 1265 q 764 1171 779 1211 q 726 1104 749 1131 q 673 1065 703 1078 q 613 1053 643 1053 z "},"Ẃ":{"ha":1383,"x_min":19,"x_max":1364,"o":"m 19 993 l 307 993 l 435 374 l 568 993 l 821 993 l 965 368 l 1100 993 l 1364 993 l 1132 0 l 835 0 l 682 631 l 528 0 l 250 0 l 19 993 m 668 1257 l 928 1257 l 785 1054 l 597 1054 l 668 1257 z "},"Ŵ":{"ha":1383,"x_min":19,"x_max":1364,"o":"m 19 993 l 307 993 l 435 374 l 568 993 l 821 993 l 965 368 l 1100 993 l 1364 993 l 1132 0 l 835 0 l 682 631 l 528 0 l 250 0 l 19 993 m 592 1257 l 800 1257 l 953 1054 l 772 1054 l 690 1122 l 610 1054 l 433 1054 l 592 1257 z "},"Ẅ":{"ha":1383,"x_min":19,"x_max":1364,"o":"m 19 993 l 307 993 l 435 374 l 568 993 l 821 993 l 965 368 l 1100 993 l 1364 993 l 1132 0 l 835 0 l 682 631 l 528 0 l 250 0 l 19 993 m 540 1053 q 494 1062 515 1053 q 457 1086 472 1071 q 431 1123 440 1101 q 422 1168 422 1144 q 457 1251 422 1217 q 540 1285 492 1285 q 625 1251 590 1285 q 660 1168 660 1217 q 625 1086 660 1119 q 540 1053 590 1053 m 850 1053 q 766 1086 800 1053 q 732 1168 732 1119 q 766 1251 732 1217 q 850 1285 800 1285 q 935 1251 900 1285 q 969 1168 969 1217 q 935 1086 969 1119 q 850 1053 900 1053 z "},"Ẁ":{"ha":1383,"x_min":19,"x_max":1364,"o":"m 19 993 l 307 993 l 435 374 l 568 993 l 821 993 l 965 368 l 1100 993 l 1364 993 l 1132 0 l 835 0 l 682 631 l 528 0 l 250 0 l 19 993 m 475 1257 l 733 1257 l 801 1054 l 614 1054 l 475 1257 z "},"Ŷ":{"ha":940,"x_min":6,"x_max":924,"o":"m 329 425 l 6 993 l 315 993 l 483 658 l 651 993 l 924 993 l 615 425 l 615 0 l 329 0 l 329 425 m 372 1257 l 581 1257 l 733 1054 l 553 1054 l 471 1122 l 390 1054 l 214 1054 l 372 1257 z "},"Ỳ":{"ha":940,"x_min":6,"x_max":924,"o":"m 329 425 l 6 993 l 315 993 l 483 658 l 651 993 l 924 993 l 615 425 l 615 0 l 329 0 l 329 425 m 256 1257 l 514 1257 l 582 1054 l 394 1054 l 256 1257 z "},"Ź":{"ha":871,"x_min":13,"x_max":839,"o":"m 13 32 l 435 775 l 67 775 l 67 993 l 839 993 l 839 963 l 422 219 l 818 219 l 818 0 l 13 0 l 13 32 m 406 1257 l 665 1257 l 522 1054 l 335 1054 l 406 1257 z "},"Ż":{"ha":871,"x_min":18,"x_max":844,"o":"m 18 32 l 440 775 l 72 775 l 72 993 l 844 993 l 844 963 l 428 219 l 824 219 l 824 0 l 18 0 l 18 32 m 447 1051 q 353 1087 390 1051 q 315 1176 315 1122 q 353 1265 315 1229 q 447 1300 390 1300 q 542 1265 504 1300 q 579 1176 579 1229 q 542 1087 579 1122 q 447 1051 504 1051 z "},"ă":{"ha":803,"x_min":32,"x_max":735,"o":"m 278 -17 q 185 -4 229 -17 q 107 35 140 8 q 52 102 72 61 q 32 201 32 143 q 134 384 32 329 q 418 439 236 439 l 488 439 l 488 456 q 469 540 488 508 q 392 571 451 571 q 319 545 340 571 q 293 485 297 519 l 60 485 q 91 599 64 550 q 164 682 118 649 q 270 730 208 714 q 407 746 332 746 q 542 730 482 746 q 646 681 603 714 q 712 595 689 647 q 735 471 735 543 l 735 0 l 493 0 l 493 85 q 416 14 467 44 q 278 -17 365 -17 m 364 151 q 452 179 417 151 q 488 254 488 207 l 488 299 l 422 299 q 313 281 347 299 q 278 219 278 264 q 299 169 278 188 q 364 151 319 151 m 403 815 q 242 872 303 815 q 176 1035 182 929 l 331 1035 q 351 985 333 1003 q 403 968 369 968 q 456 986 436 968 q 478 1035 475 1004 l 632 1035 q 563 872 625 929 q 403 815 500 815 z "},"ā":{"ha":803,"x_min":26,"x_max":729,"o":"m 272 -17 q 179 -4 224 -17 q 101 35 135 8 q 47 102 67 61 q 26 201 26 143 q 128 384 26 329 q 413 439 231 439 l 482 439 l 482 456 q 464 540 482 508 q 386 571 446 571 q 313 545 335 571 q 288 485 292 519 l 54 485 q 85 599 58 550 q 158 682 113 649 q 265 730 203 714 q 401 746 326 746 q 537 730 476 746 q 640 681 597 714 q 706 595 683 647 q 729 471 729 543 l 729 0 l 488 0 l 488 85 q 410 14 461 44 q 272 -17 360 -17 m 358 151 q 447 179 411 151 q 482 254 482 207 l 482 299 l 417 299 q 307 281 342 299 q 272 219 272 264 q 293 169 272 188 q 358 151 314 151 m 185 989 l 611 989 l 611 850 l 185 850 l 185 989 z "},"ą":{"ha":803,"x_min":32,"x_max":740,"o":"m 615 -253 q 497 -224 540 -253 q 454 -142 454 -194 q 465 -94 454 -115 q 492 -56 475 -72 q 530 -24 508 -37 q 574 0 551 -11 l 493 0 l 493 85 q 416 14 467 44 q 278 -17 365 -17 q 185 -4 229 -17 q 107 35 140 8 q 52 102 72 61 q 32 201 32 143 q 134 384 32 329 q 418 439 236 439 l 488 439 l 488 456 q 469 540 488 508 q 392 571 451 571 q 319 545 340 571 q 293 485 297 519 l 60 485 q 91 599 64 550 q 164 682 118 649 q 270 730 208 714 q 407 746 332 746 q 542 730 482 746 q 646 681 603 714 q 712 595 689 647 q 735 471 735 543 l 735 15 q 674 -40 692 -15 q 657 -87 657 -64 q 667 -117 657 -107 q 699 -126 678 -126 q 721 -124 711 -126 q 740 -119 731 -122 l 740 -231 q 691 -246 721 -239 q 615 -253 661 -253 m 364 151 q 452 179 417 151 q 488 254 488 207 l 488 299 l 422 299 q 313 281 347 299 q 278 219 278 264 q 299 169 278 188 q 364 151 319 151 z "},"ǻ":{"ha":803,"x_min":32,"x_max":735,"o":"m 278 -17 q 185 -4 229 -17 q 107 35 140 8 q 52 102 72 61 q 32 201 32 143 q 134 384 32 329 q 418 439 236 439 l 488 439 l 488 456 q 469 540 488 508 q 392 571 451 571 q 319 545 340 571 q 293 485 297 519 l 60 485 q 91 599 64 550 q 164 682 118 649 q 270 730 208 714 q 407 746 332 746 q 542 730 482 746 q 646 681 603 714 q 712 595 689 647 q 735 471 735 543 l 735 0 l 493 0 l 493 85 q 416 14 467 44 q 278 -17 365 -17 m 364 151 q 452 179 417 151 q 488 254 488 207 l 488 299 l 422 299 q 313 281 347 299 q 278 219 278 264 q 299 169 278 188 q 364 151 319 151 m 406 883 q 451 903 433 883 q 469 953 469 922 q 451 1004 469 985 q 406 1024 433 1024 q 360 1004 378 1024 q 342 953 342 985 q 360 903 342 922 q 406 883 378 883 m 406 794 q 342 807 372 794 q 290 842 313 819 q 255 891 268 863 q 242 953 242 919 q 255 1015 242 986 q 290 1065 268 1043 q 342 1100 313 1088 q 406 1113 372 1113 q 469 1100 439 1113 q 521 1065 499 1088 q 556 1015 543 1043 q 569 953 569 986 q 556 891 569 919 q 521 842 543 863 q 469 807 499 819 q 406 794 439 794 m 389 1354 l 649 1354 l 506 1151 l 318 1151 l 389 1354 z "},"ǽ":{"ha":1261,"x_min":26,"x_max":1222,"o":"m 865 -17 q 697 15 768 -17 q 583 110 626 47 q 471 17 539 50 q 296 -17 403 -17 q 192 -4 240 -17 q 107 35 143 8 q 48 102 69 61 q 26 201 26 143 q 128 386 26 329 q 411 443 229 443 l 485 443 l 485 456 q 465 540 485 508 q 388 571 446 571 q 315 547 336 571 q 288 485 293 522 l 54 485 q 85 599 58 550 q 157 682 113 649 q 261 730 201 714 q 392 746 321 746 q 534 724 475 746 q 626 660 593 703 q 730 724 672 703 q 858 746 788 746 q 998 724 932 746 q 1114 657 1064 703 q 1193 540 1164 611 q 1222 371 1222 469 l 1222 307 l 722 307 q 764 193 728 232 q 867 154 800 154 q 956 179 928 154 q 990 240 983 204 l 1222 240 q 1115 50 1206 117 q 865 -17 1025 -17 m 982 443 q 947 547 978 513 q 858 582 917 582 q 767 546 803 582 q 724 443 731 510 l 982 443 m 360 151 q 451 179 418 151 q 485 254 485 207 l 485 303 l 415 303 q 308 287 344 303 q 272 225 272 271 q 294 170 272 189 q 360 151 317 151 m 625 1040 l 875 1040 l 729 810 l 551 810 l 625 1040 z "},"ć":{"ha":810,"x_min":29,"x_max":776,"o":"m 411 -17 q 260 7 329 -17 q 139 78 190 31 q 58 193 88 124 q 29 354 29 263 l 29 365 q 60 526 29 456 q 143 646 90 597 q 266 720 196 694 q 417 746 336 746 q 545 731 483 746 q 656 681 607 715 q 735 588 704 644 q 772 447 767 531 l 539 447 q 503 526 531 499 q 422 553 476 553 q 319 506 356 553 q 283 368 283 460 l 283 357 q 319 213 283 261 q 426 165 356 165 q 513 196 479 165 q 553 286 546 226 l 776 286 q 679 66 771 149 q 411 -17 588 -17 m 388 1040 l 638 1040 l 492 810 l 314 810 l 388 1040 z "},"č":{"ha":810,"x_min":29,"x_max":776,"o":"m 411 -17 q 260 7 329 -17 q 139 78 190 31 q 58 193 88 124 q 29 354 29 263 l 29 365 q 60 526 29 456 q 143 646 90 597 q 266 720 196 694 q 417 746 336 746 q 545 731 483 746 q 656 681 607 715 q 735 588 704 644 q 772 447 767 531 l 539 447 q 503 526 531 499 q 422 553 476 553 q 319 506 356 553 q 283 368 283 460 l 283 357 q 319 213 283 261 q 426 165 356 165 q 513 196 479 165 q 553 286 546 226 l 776 286 q 679 66 771 149 q 411 -17 588 -17 m 153 1039 l 326 1039 l 411 961 l 496 1039 l 665 1039 l 494 813 l 318 813 l 153 1039 z "},"ĉ":{"ha":810,"x_min":29,"x_max":776,"o":"m 411 -17 q 260 7 329 -17 q 139 78 190 31 q 58 193 88 124 q 29 354 29 263 l 29 365 q 60 526 29 456 q 143 646 90 597 q 266 720 196 694 q 417 746 336 746 q 545 731 483 746 q 656 681 607 715 q 735 588 704 644 q 772 447 767 531 l 539 447 q 503 526 531 499 q 422 553 476 553 q 319 506 356 553 q 283 368 283 460 l 283 357 q 319 213 283 261 q 426 165 356 165 q 513 196 479 165 q 553 286 546 226 l 776 286 q 679 66 771 149 q 411 -17 588 -17 m 324 1039 l 501 1039 l 665 813 l 492 813 l 407 890 l 324 813 l 153 813 l 324 1039 z "},"ċ":{"ha":810,"x_min":29,"x_max":776,"o":"m 411 -17 q 260 7 329 -17 q 139 78 190 31 q 58 193 88 124 q 29 354 29 263 l 29 365 q 60 526 29 456 q 143 646 90 597 q 266 720 196 694 q 417 746 336 746 q 545 731 483 746 q 656 681 607 715 q 735 588 704 644 q 772 447 767 531 l 539 447 q 503 526 531 499 q 422 553 476 553 q 319 506 356 553 q 283 368 283 460 l 283 357 q 319 213 283 261 q 426 165 356 165 q 513 196 479 165 q 553 286 546 226 l 776 286 q 679 66 771 149 q 411 -17 588 -17 m 414 804 q 318 840 356 804 q 281 929 281 875 q 319 1017 281 982 q 414 1053 357 1053 q 508 1017 471 1053 q 546 929 546 982 q 508 840 546 875 q 414 804 471 804 z "},"ď":{"ha":886,"x_min":32,"x_max":1060,"o":"m 338 -17 q 219 6 275 -17 q 122 75 164 29 q 56 191 81 121 q 32 356 32 261 l 32 367 q 56 531 32 460 q 121 650 79 601 q 219 722 163 697 q 340 746 275 746 q 479 713 426 746 q 564 624 532 679 l 564 1046 l 813 1046 l 813 0 l 564 0 l 564 118 q 478 22 536 61 q 338 -17 421 -17 m 425 174 q 532 220 493 174 q 571 360 571 267 l 571 371 q 534 510 571 463 q 428 558 497 558 q 321 511 357 558 q 285 369 285 464 l 285 358 q 322 220 285 267 q 425 174 360 174 m 875 1046 l 1060 1046 l 992 804 l 863 804 l 875 1046 z "},"ĕ":{"ha":831,"x_min":29,"x_max":792,"o":"m 424 -17 q 265 8 338 -17 q 142 79 193 32 q 59 196 89 126 q 29 354 29 265 l 29 365 q 60 523 29 453 q 143 643 90 593 q 268 719 196 693 q 422 746 340 746 q 564 724 497 746 q 682 656 631 701 q 762 539 732 610 q 792 371 792 468 l 792 306 l 281 306 q 326 194 286 233 q 432 154 365 154 q 523 179 494 154 q 558 240 551 204 l 792 240 q 682 50 775 117 q 424 -17 589 -17 m 550 446 q 515 547 547 513 q 422 582 483 582 q 329 547 365 582 q 283 446 293 513 l 550 446 m 407 815 q 247 872 307 815 q 181 1035 186 929 l 335 1035 q 356 985 338 1003 q 407 968 374 968 q 460 986 440 968 q 482 1035 479 1004 l 636 1035 q 567 872 629 929 q 407 815 504 815 z "},"ě":{"ha":831,"x_min":29,"x_max":792,"o":"m 424 -17 q 265 8 338 -17 q 142 79 193 32 q 59 196 89 126 q 29 354 29 265 l 29 365 q 60 523 29 453 q 143 643 90 593 q 268 719 196 693 q 422 746 340 746 q 564 724 497 746 q 682 656 631 701 q 762 539 732 610 q 792 371 792 468 l 792 306 l 281 306 q 326 194 286 233 q 432 154 365 154 q 523 179 494 154 q 558 240 551 204 l 792 240 q 682 50 775 117 q 424 -17 589 -17 m 550 446 q 515 547 547 513 q 422 582 483 582 q 329 547 365 582 q 283 446 293 513 l 550 446 m 158 1039 l 332 1039 l 417 961 l 501 1039 l 671 1039 l 500 813 l 324 813 l 158 1039 z "},"ė":{"ha":831,"x_min":29,"x_max":792,"o":"m 424 -17 q 265 8 338 -17 q 142 79 193 32 q 59 196 89 126 q 29 354 29 265 l 29 365 q 60 523 29 453 q 143 643 90 593 q 268 719 196 693 q 422 746 340 746 q 564 724 497 746 q 682 656 631 701 q 762 539 732 610 q 792 371 792 468 l 792 306 l 281 306 q 326 194 286 233 q 432 154 365 154 q 523 179 494 154 q 558 240 551 204 l 792 240 q 682 50 775 117 q 424 -17 589 -17 m 550 446 q 515 547 547 513 q 422 582 483 582 q 329 547 365 582 q 283 446 293 513 l 550 446 m 417 804 q 321 840 358 804 q 283 929 283 875 q 322 1017 283 982 q 417 1053 360 1053 q 511 1017 474 1053 q 549 929 549 982 q 511 840 549 875 q 417 804 474 804 z "},"ē":{"ha":831,"x_min":29,"x_max":792,"o":"m 424 -17 q 265 8 338 -17 q 142 79 193 32 q 59 196 89 126 q 29 354 29 265 l 29 365 q 60 523 29 453 q 143 643 90 593 q 268 719 196 693 q 422 746 340 746 q 564 724 497 746 q 682 656 631 701 q 762 539 732 610 q 792 371 792 468 l 792 306 l 281 306 q 326 194 286 233 q 432 154 365 154 q 523 179 494 154 q 558 240 551 204 l 792 240 q 682 50 775 117 q 424 -17 589 -17 m 550 446 q 515 547 547 513 q 422 582 483 582 q 329 547 365 582 q 283 446 293 513 l 550 446 m 201 989 l 628 989 l 628 850 l 201 850 l 201 989 z "},"ę":{"ha":831,"x_min":35,"x_max":797,"o":"m 563 -253 q 443 -224 488 -253 q 399 -143 399 -196 q 435 -67 399 -100 q 513 -11 471 -35 q 472 -15 494 -14 q 429 -17 449 -17 q 271 8 343 -17 q 147 79 199 32 q 65 196 94 126 q 35 354 35 265 l 35 365 q 65 523 35 453 q 149 643 96 593 q 274 719 201 693 q 428 746 346 746 q 569 724 503 746 q 688 656 636 701 q 767 539 738 610 q 797 371 797 468 l 797 306 l 286 306 q 331 194 292 233 q 438 154 371 154 q 528 179 500 154 q 564 240 557 204 l 797 240 q 758 126 788 169 q 699 53 728 82 q 627 -24 654 8 q 600 -87 600 -56 q 611 -117 600 -107 q 643 -126 622 -126 q 665 -124 656 -126 q 685 -119 675 -122 l 685 -231 q 638 -246 665 -239 q 563 -253 611 -253 m 556 446 q 521 547 553 513 q 428 582 489 582 q 335 547 371 582 q 289 446 299 513 l 556 446 z "},"ğ":{"ha":890,"x_min":33,"x_max":817,"o":"m 414 -269 q 253 -251 321 -269 q 139 -197 185 -232 q 66 -112 92 -161 q 33 0 40 -62 l 281 0 q 317 -67 289 -40 q 414 -94 346 -94 q 533 -52 497 -94 q 568 58 568 -10 l 568 169 q 533 119 554 143 q 483 78 511 96 q 419 47 454 58 q 343 36 383 36 q 223 59 279 36 q 125 126 167 82 q 59 236 83 171 q 35 385 35 301 l 35 396 q 59 541 35 476 q 125 651 83 606 q 223 722 167 697 q 343 746 279 746 q 483 713 431 746 q 568 624 536 679 l 568 726 l 817 726 l 817 61 q 713 -186 817 -103 q 414 -269 610 -269 m 431 219 q 536 264 497 219 q 575 386 575 308 l 575 396 q 538 515 575 471 q 432 560 501 560 q 325 515 361 560 q 289 394 289 469 l 289 383 q 326 264 289 308 q 431 219 364 219 m 422 815 q 262 872 322 815 q 196 1035 201 929 l 350 1035 q 371 985 353 1003 q 422 968 389 968 q 475 986 456 968 q 497 1035 494 1004 l 651 1035 q 582 872 644 929 q 422 815 519 815 z "},"ĝ":{"ha":890,"x_min":28,"x_max":811,"o":"m 408 -269 q 247 -251 315 -269 q 133 -197 179 -232 q 60 -112 86 -161 q 28 0 35 -62 l 275 0 q 312 -67 283 -40 q 408 -94 340 -94 q 527 -52 492 -94 q 563 58 563 -10 l 563 169 q 527 119 549 143 q 478 78 506 96 q 413 47 449 58 q 338 36 378 36 q 217 59 274 36 q 119 126 161 82 q 53 236 78 171 q 29 385 29 301 l 29 396 q 53 541 29 476 q 119 651 78 606 q 217 722 161 697 q 338 746 274 746 q 478 713 425 746 q 563 624 531 679 l 563 726 l 811 726 l 811 61 q 708 -186 811 -103 q 408 -269 604 -269 m 425 219 q 531 264 492 219 q 569 386 569 308 l 569 396 q 533 515 569 471 q 426 560 496 560 q 319 515 356 560 q 283 394 283 469 l 283 383 q 321 264 283 308 q 425 219 358 219 m 332 1039 l 510 1039 l 674 813 l 500 813 l 415 890 l 332 813 l 161 813 l 332 1039 z "},"ģ":{"ha":901,"x_min":33,"x_max":817,"o":"m 414 -269 q 253 -251 321 -269 q 139 -197 185 -232 q 66 -112 92 -161 q 33 0 40 -62 l 281 0 q 317 -67 289 -40 q 414 -94 346 -94 q 533 -52 497 -94 q 568 58 568 -10 l 568 169 q 533 119 554 143 q 483 78 511 96 q 419 47 454 58 q 343 36 383 36 q 223 59 279 36 q 125 126 167 82 q 59 236 83 171 q 35 385 35 301 l 35 396 q 59 541 35 476 q 125 651 83 606 q 223 722 167 697 q 343 746 279 746 q 483 713 431 746 q 568 624 536 679 l 568 726 l 817 726 l 817 61 q 713 -186 817 -103 q 414 -269 610 -269 m 431 219 q 536 264 497 219 q 575 386 575 308 l 575 396 q 538 515 575 471 q 432 560 501 560 q 325 515 361 560 q 289 394 289 469 l 289 383 q 326 264 289 308 q 431 219 364 219 m 325 813 l 463 1069 l 603 1032 l 544 786 l 325 813 z "},"ġ":{"ha":890,"x_min":33,"x_max":817,"o":"m 414 -269 q 253 -251 321 -269 q 139 -197 185 -232 q 66 -112 92 -161 q 33 0 40 -62 l 281 0 q 317 -67 289 -40 q 414 -94 346 -94 q 533 -52 497 -94 q 568 58 568 -10 l 568 169 q 533 119 554 143 q 483 78 511 96 q 419 47 454 58 q 343 36 383 36 q 223 59 279 36 q 125 126 167 82 q 59 236 83 171 q 35 385 35 301 l 35 396 q 59 541 35 476 q 125 651 83 606 q 223 722 167 697 q 343 746 279 746 q 483 713 431 746 q 568 624 536 679 l 568 726 l 817 726 l 817 61 q 713 -186 817 -103 q 414 -269 610 -269 m 431 219 q 536 264 497 219 q 575 386 575 308 l 575 396 q 538 515 575 471 q 432 560 501 560 q 325 515 361 560 q 289 394 289 469 l 289 383 q 326 264 289 308 q 431 219 364 219 m 424 804 q 328 840 365 804 q 290 929 290 875 q 328 1017 290 982 q 424 1053 367 1053 q 518 1017 481 1053 q 556 929 556 982 q 518 840 556 875 q 424 804 481 804 z "},"ħ":{"ha":867,"x_min":-6,"x_max":799,"o":"m -6 949 l 74 949 l 74 1046 l 322 1046 l 322 949 l 538 949 l 538 815 l 322 815 l 322 610 q 410 706 351 667 q 561 746 469 746 q 733 678 667 746 q 799 472 799 611 l 799 0 l 550 0 l 550 422 q 525 515 550 485 q 446 544 500 544 q 356 511 390 544 q 322 407 322 478 l 322 0 l 74 0 l 74 815 l -6 815 l -6 949 z "},"ĥ":{"ha":867,"x_min":68,"x_max":793,"o":"m 68 1046 l 317 1046 l 317 610 q 405 706 346 667 q 556 746 464 746 q 727 678 661 746 q 793 472 793 611 l 793 0 l 544 0 l 544 422 q 519 515 544 485 q 440 544 494 544 q 351 511 385 544 q 317 407 317 478 l 317 0 l 68 0 l 68 1046 m 296 1303 l 504 1303 l 657 1100 l 476 1100 l 394 1168 l 314 1100 l 138 1100 l 296 1303 z "},"ĭ":{"ha":410,"x_min":-22,"x_max":433,"o":"m 81 726 l 329 726 l 329 0 l 81 0 l 81 726 m 204 815 q 44 872 104 815 q -22 1035 -17 929 l 132 1035 q 153 985 135 1003 q 204 968 171 968 q 257 986 238 968 q 279 1035 276 1004 l 433 1035 q 364 872 426 929 q 204 815 301 815 z "},"ī":{"ha":410,"x_min":35,"x_max":375,"o":"m 35 989 l 375 989 l 375 850 l 35 850 l 35 989 m 81 726 l 329 726 l 329 0 l 81 0 l 81 726 z "},"į":{"ha":410,"x_min":53,"x_max":342,"o":"m 214 -253 q 96 -223 139 -253 q 53 -140 53 -193 q 63 -92 53 -114 q 90 -54 74 -71 q 128 -24 107 -37 q 172 0 150 -11 l 81 0 l 81 726 l 329 726 l 329 13 q 271 -41 288 -18 q 254 -87 254 -64 q 265 -117 254 -107 q 297 -126 276 -126 q 319 -124 310 -126 q 339 -119 329 -122 l 339 -231 q 291 -246 319 -239 q 214 -253 263 -253 m 204 796 q 107 832 146 796 q 68 924 68 868 q 107 1016 68 979 q 204 1053 146 1053 q 302 1016 263 1053 q 342 924 342 979 q 302 832 342 868 q 204 796 263 796 z "},"ĩ":{"ha":410,"x_min":-51,"x_max":453,"o":"m 75 726 l 324 726 l 324 0 l 75 0 l 75 726 m 289 815 q 237 822 260 815 q 194 839 214 829 q 159 854 175 847 q 126 861 143 861 q 98 849 110 861 q 83 817 86 836 l -51 817 q -1 980 -44 926 q 108 1033 43 1033 q 159 1026 136 1033 q 203 1010 182 1018 q 240 994 222 1001 q 274 986 257 986 q 303 999 293 986 q 318 1031 314 1011 l 453 1031 q 398 869 444 922 q 289 815 351 815 z "},"ĵ":{"ha":410,"x_min":-53,"x_max":460,"o":"m -8 -75 q 59 -52 38 -72 q 81 11 81 -32 l 81 726 l 328 726 l 328 6 q 313 -101 328 -53 q 258 -185 297 -150 q 155 -237 219 -218 q -8 -256 90 -256 l -8 -75 m 118 1039 l 296 1039 l 460 813 l 286 813 l 201 890 l 118 813 l -53 813 l 118 1039 z "},"ķ":{"ha":813,"x_min":74,"x_max":796,"o":"m 74 1046 l 322 1046 l 322 439 l 518 726 l 776 726 l 539 400 l 796 0 l 518 0 l 322 318 l 322 0 l 74 0 l 74 1046 m 263 -285 l 321 -39 l 540 -65 l 403 -322 l 263 -285 z "},"ĺ":{"ha":417,"x_min":75,"x_max":436,"o":"m 75 1046 l 322 1046 l 322 0 l 75 0 l 75 1046 m 176 1303 l 436 1303 l 293 1100 l 106 1100 l 176 1303 z "},"ľ":{"ha":408,"x_min":81,"x_max":575,"o":"m 81 1046 l 328 1046 l 328 0 l 81 0 l 81 1046 m 390 1046 l 575 1046 l 507 804 l 378 804 l 390 1046 z "},"ļ":{"ha":419,"x_min":50,"x_max":328,"o":"m 81 1046 l 328 1046 l 328 0 l 81 0 l 81 1046 m 50 -285 l 108 -39 l 328 -65 l 190 -322 l 50 -285 z "},"ŀ":{"ha":638,"x_min":81,"x_max":663,"o":"m 81 1046 l 328 1046 l 328 0 l 81 0 l 81 1046 m 517 358 q 460 369 486 358 q 415 400 433 381 q 385 444 396 418 q 375 499 375 469 q 385 553 375 528 q 415 599 396 579 q 460 628 433 617 q 517 639 486 639 q 574 628 547 639 q 621 599 601 617 q 651 553 640 579 q 663 499 663 528 q 651 444 663 469 q 621 400 640 418 q 574 369 601 381 q 517 358 547 358 z "},"ń":{"ha":867,"x_min":74,"x_max":799,"o":"m 74 726 l 322 726 l 322 610 q 410 706 351 667 q 561 746 469 746 q 733 678 667 746 q 799 472 799 611 l 799 0 l 550 0 l 550 422 q 525 515 550 485 q 446 544 500 544 q 356 511 390 544 q 322 407 322 478 l 322 0 l 74 0 l 74 726 m 413 1040 l 663 1040 l 517 810 l 339 810 l 413 1040 z "},"ŉ":{"ha":1038,"x_min":-43,"x_max":963,"o":"m 238 726 l 486 726 l 486 610 q 574 706 515 667 q 725 746 633 746 q 897 678 831 746 q 963 472 963 611 l 963 0 l 714 0 l 714 422 q 689 515 714 485 q 610 544 664 544 q 520 511 554 544 q 486 407 486 478 l 486 0 l 238 0 l 238 726 m -43 649 l 68 1011 l 288 938 l 97 594 l -43 649 z "},"ň":{"ha":867,"x_min":74,"x_max":799,"o":"m 74 726 l 322 726 l 322 610 q 410 706 351 667 q 561 746 469 746 q 733 678 667 746 q 799 472 799 611 l 799 0 l 550 0 l 550 422 q 525 515 550 485 q 446 544 500 544 q 356 511 390 544 q 322 407 322 478 l 322 0 l 74 0 l 74 726 m 178 1039 l 351 1039 l 436 961 l 521 1039 l 690 1039 l 519 813 l 343 813 l 178 1039 z "},"ņ":{"ha":878,"x_min":74,"x_max":799,"o":"m 74 726 l 322 726 l 322 610 q 410 706 351 667 q 561 746 469 746 q 733 678 667 746 q 799 472 799 611 l 799 0 l 550 0 l 550 422 q 525 515 550 485 q 446 544 500 544 q 356 511 390 544 q 322 407 322 478 l 322 0 l 74 0 l 74 726 m 279 -285 l 338 -39 l 557 -65 l 419 -322 l 279 -285 z "},"ŏ":{"ha":864,"x_min":29,"x_max":824,"o":"m 428 168 q 535 217 499 168 q 571 358 571 267 l 571 369 q 535 510 571 461 q 428 560 499 560 q 320 512 357 560 q 283 372 283 464 l 283 361 q 319 217 283 267 q 428 168 356 168 m 426 -17 q 270 8 343 -17 q 144 81 197 33 q 60 197 90 128 q 29 354 29 267 l 29 365 q 60 523 29 453 q 144 643 90 593 q 270 719 197 693 q 428 746 343 746 q 584 720 511 746 q 710 646 657 694 q 793 528 763 597 q 824 372 824 458 l 824 361 q 793 202 824 272 q 710 83 763 132 q 583 9 656 35 q 426 -17 510 -17 m 425 815 q 265 872 325 815 q 199 1035 204 929 l 353 1035 q 374 985 356 1003 q 425 968 392 968 q 478 986 458 968 q 500 1035 497 1004 l 654 1035 q 585 872 647 929 q 425 815 522 815 z "},"ő":{"ha":864,"x_min":29,"x_max":824,"o":"m 428 168 q 535 217 499 168 q 571 358 571 267 l 571 369 q 535 510 571 461 q 428 560 499 560 q 320 512 357 560 q 283 372 283 464 l 283 361 q 319 217 283 267 q 428 168 356 168 m 426 -17 q 270 8 343 -17 q 144 81 197 33 q 60 197 90 128 q 29 354 29 267 l 29 365 q 60 523 29 453 q 144 643 90 593 q 270 719 197 693 q 428 746 343 746 q 584 720 511 746 q 710 646 657 694 q 793 528 763 597 q 824 372 824 458 l 824 361 q 793 202 824 272 q 710 83 763 132 q 583 9 656 35 q 426 -17 510 -17 m 274 1040 l 468 1040 l 361 810 l 213 810 l 274 1040 m 519 1040 l 714 1040 l 607 810 l 460 810 l 519 1040 z "},"ō":{"ha":864,"x_min":29,"x_max":824,"o":"m 428 168 q 535 217 499 168 q 571 358 571 267 l 571 369 q 535 510 571 461 q 428 560 499 560 q 320 512 357 560 q 283 372 283 464 l 283 361 q 319 217 283 267 q 428 168 356 168 m 426 -17 q 270 8 343 -17 q 144 81 197 33 q 60 197 90 128 q 29 354 29 267 l 29 365 q 60 523 29 453 q 144 643 90 593 q 270 719 197 693 q 428 746 343 746 q 584 720 511 746 q 710 646 657 694 q 793 528 763 597 q 824 372 824 458 l 824 361 q 793 202 824 272 q 710 83 763 132 q 583 9 656 35 q 426 -17 510 -17 m 213 989 l 639 989 l 639 850 l 213 850 l 213 989 z "},"ǿ":{"ha":864,"x_min":24,"x_max":824,"o":"m 24 13 l 115 110 q 52 217 75 156 q 29 354 29 278 l 29 365 q 60 523 29 453 q 144 643 90 593 q 270 719 197 693 q 428 746 343 746 q 549 731 492 746 q 654 686 606 717 l 744 782 l 817 715 l 731 624 q 799 513 775 575 q 824 372 824 450 l 824 361 q 793 202 824 272 q 710 83 763 132 q 583 9 656 35 q 426 -17 510 -17 q 299 -1 358 -17 q 190 46 239 15 l 96 -54 l 24 13 m 428 167 q 537 217 500 167 q 574 358 574 267 l 574 369 q 572 410 574 392 q 565 446 569 429 l 333 199 q 375 175 351 183 q 428 167 399 167 m 281 361 q 282 325 281 342 q 286 293 283 308 l 513 535 q 476 555 497 549 q 428 561 454 561 q 319 513 357 561 q 281 372 281 465 l 281 361 m 403 1040 l 653 1040 l 507 810 l 329 810 l 403 1040 z "},"ŕ":{"ha":596,"x_min":74,"x_max":557,"o":"m 74 726 l 322 726 l 322 582 q 415 701 357 664 q 557 736 472 738 l 557 504 q 383 469 443 507 q 322 344 322 432 l 322 0 l 74 0 l 74 726 m 303 1040 l 553 1040 l 407 810 l 229 810 l 303 1040 z "},"ř":{"ha":594,"x_min":63,"x_max":575,"o":"m 68 726 l 317 726 l 317 582 q 409 701 351 664 q 551 736 467 738 l 551 504 q 377 469 438 507 q 317 344 317 432 l 317 0 l 68 0 l 68 726 m 63 1039 l 236 1039 l 321 961 l 406 1039 l 575 1039 l 404 813 l 228 813 l 63 1039 z "},"ŗ":{"ha":606,"x_min":47,"x_max":557,"o":"m 74 726 l 322 726 l 322 582 q 415 701 357 664 q 557 736 472 738 l 557 504 q 383 469 443 507 q 322 344 322 432 l 322 0 l 74 0 l 74 726 m 47 -285 l 106 -39 l 325 -65 l 188 -322 l 47 -285 z "},"ś":{"ha":715,"x_min":19,"x_max":682,"o":"m 353 -17 q 110 46 197 -17 q 19 231 24 108 l 249 231 q 277 169 256 190 q 351 149 299 149 q 419 165 397 149 q 440 208 440 181 q 410 249 440 235 q 306 274 381 263 q 180 299 232 283 q 94 343 128 315 q 45 410 61 369 q 29 507 29 450 q 54 612 29 567 q 122 688 79 657 q 221 731 164 717 q 340 746 278 746 q 463 733 407 746 q 561 693 519 721 q 628 621 603 665 q 661 511 654 576 l 436 511 q 408 565 429 547 q 343 583 386 583 q 282 567 303 583 q 261 526 261 551 q 289 488 261 500 q 383 467 317 475 q 515 442 458 457 q 608 400 571 426 q 664 332 646 372 q 682 233 682 292 q 593 44 682 104 q 353 -17 504 -17 m 328 1040 l 578 1040 l 432 810 l 254 810 l 328 1040 z "},"ş":{"ha":726,"x_min":31,"x_max":693,"o":"m 339 -314 q 218 -281 264 -314 q 163 -185 172 -247 l 279 -185 q 294 -212 283 -200 q 329 -224 306 -224 q 362 -212 350 -224 q 374 -182 374 -200 q 362 -151 374 -162 q 328 -139 350 -139 q 301 -144 311 -139 q 283 -154 290 -149 l 229 -101 l 288 -12 q 99 64 165 3 q 31 231 33 125 l 260 231 q 288 169 267 190 q 363 149 310 149 q 430 165 408 149 q 451 208 451 181 q 422 249 451 235 q 317 274 392 263 q 191 299 243 283 q 106 343 139 315 q 56 410 72 369 q 40 507 40 450 q 65 612 40 567 q 133 688 90 657 q 232 731 175 717 q 351 746 289 746 q 474 733 418 746 q 572 693 531 721 q 640 621 614 665 q 672 511 665 576 l 447 511 q 419 565 440 547 q 354 583 397 583 q 293 567 314 583 q 272 526 272 551 q 300 488 272 500 q 394 467 328 475 q 526 442 469 457 q 619 400 582 426 q 675 332 657 372 q 693 233 693 292 q 610 48 693 108 q 385 -17 526 -12 l 353 -62 q 411 -65 383 -60 q 461 -86 439 -71 q 494 -124 482 -100 q 507 -182 507 -149 q 461 -279 507 -244 q 339 -314 415 -314 z "},"ŝ":{"ha":715,"x_min":25,"x_max":688,"o":"m 358 -17 q 116 46 203 -17 q 25 231 29 108 l 254 231 q 283 169 261 190 q 357 149 304 149 q 424 165 403 149 q 446 208 446 181 q 416 249 446 235 q 311 274 386 263 q 185 299 238 283 q 100 343 133 315 q 51 410 67 369 q 35 507 35 450 q 60 612 35 567 q 128 688 85 657 q 226 731 169 717 q 346 746 283 746 q 469 733 413 746 q 567 693 525 721 q 634 621 608 665 q 667 511 660 576 l 442 511 q 413 565 435 547 q 349 583 392 583 q 288 567 308 583 q 267 526 267 551 q 294 488 267 500 q 389 467 322 475 q 520 442 464 457 q 614 400 576 426 q 669 332 651 372 q 688 233 688 292 q 599 44 688 104 q 358 -17 510 -17 m 267 1039 l 444 1039 l 608 813 l 435 813 l 350 890 l 267 813 l 96 813 l 267 1039 z "},"ș":{"ha":726,"x_min":24,"x_max":686,"o":"m 357 -17 q 115 46 201 -17 q 24 231 28 108 l 253 231 q 281 169 260 190 q 356 149 303 149 q 423 165 401 149 q 444 208 444 181 q 415 249 444 235 q 310 274 385 263 q 184 299 236 283 q 99 343 132 315 q 49 410 65 369 q 33 507 33 450 q 58 612 33 567 q 126 688 83 657 q 225 731 168 717 q 344 746 282 746 q 467 733 411 746 q 565 693 524 721 q 633 621 607 665 q 665 511 658 576 l 440 511 q 412 565 433 547 q 347 583 390 583 q 286 567 307 583 q 265 526 265 551 q 293 488 265 500 q 388 467 321 475 q 519 442 463 457 q 613 400 575 426 q 668 332 650 372 q 686 233 686 292 q 597 44 686 104 q 357 -17 508 -17 m 197 -285 l 256 -39 l 475 -65 l 338 -322 l 197 -285 z "},"ŧ":{"ha":540,"x_min":19,"x_max":500,"o":"m 19 461 l 107 461 l 107 557 l 19 557 l 19 726 l 107 726 l 107 878 l 356 878 l 356 726 l 499 726 l 499 557 l 356 557 l 356 461 l 499 461 l 499 324 l 356 324 l 356 257 q 374 200 356 219 q 429 181 393 181 q 467 183 450 181 q 500 193 483 186 l 500 4 q 442 -10 476 -3 q 363 -17 407 -17 q 173 44 239 -17 q 107 233 107 104 l 107 324 l 19 324 l 19 461 z "},"ť":{"ha":535,"x_min":14,"x_max":610,"o":"m 357 -17 q 167 44 233 -17 q 101 233 101 104 l 101 557 l 14 557 l 14 726 l 101 726 l 101 878 l 350 878 l 350 726 l 493 726 l 493 557 l 350 557 l 350 257 q 369 200 350 219 q 424 181 388 181 q 461 183 444 181 q 494 193 478 186 l 494 4 q 436 -10 471 -3 q 357 -17 401 -17 m 425 1046 l 610 1046 l 542 804 l 413 804 l 425 1046 z "},"ţ":{"ha":540,"x_min":14,"x_max":494,"o":"m 357 -17 q 167 44 233 -17 q 101 233 101 104 l 101 557 l 14 557 l 14 726 l 101 726 l 101 878 l 350 878 l 350 726 l 493 726 l 493 557 l 350 557 l 350 257 q 369 200 350 219 q 424 181 388 181 q 461 183 444 181 q 494 193 478 186 l 494 4 q 436 -10 471 -3 q 357 -17 401 -17 m 131 -285 l 189 -39 l 408 -65 l 271 -322 l 131 -285 z "},"ț":{"ha":540,"x_min":19,"x_max":500,"o":"m 363 -17 q 173 44 239 -17 q 107 233 107 104 l 107 557 l 19 557 l 19 726 l 107 726 l 107 878 l 356 878 l 356 726 l 499 726 l 499 557 l 356 557 l 356 257 q 374 200 356 219 q 429 181 393 181 q 467 183 450 181 q 500 193 483 186 l 500 4 q 442 -10 476 -3 q 363 -17 407 -17 m 136 -285 l 194 -39 l 414 -65 l 276 -322 l 136 -285 z "},"ŭ":{"ha":865,"x_min":63,"x_max":786,"o":"m 307 -17 q 210 -1 254 -17 q 133 49 165 15 q 81 133 100 82 q 63 253 63 183 l 63 726 l 311 726 l 311 293 q 337 201 311 232 q 414 171 363 171 q 504 204 471 171 q 538 308 538 238 l 538 726 l 786 726 l 786 0 l 538 0 l 538 113 q 453 19 508 56 q 307 -17 399 -17 m 424 815 q 263 872 324 815 q 197 1035 203 929 l 351 1035 q 372 985 354 1003 q 424 968 390 968 q 476 986 457 968 q 499 1035 496 1004 l 653 1035 q 583 872 646 929 q 424 815 521 815 z "},"ű":{"ha":865,"x_min":63,"x_max":786,"o":"m 307 -17 q 210 -1 254 -17 q 133 49 165 15 q 81 133 100 82 q 63 253 63 183 l 63 726 l 311 726 l 311 293 q 337 201 311 232 q 414 171 363 171 q 504 204 471 171 q 538 308 538 238 l 538 726 l 786 726 l 786 0 l 538 0 l 538 113 q 453 19 508 56 q 307 -17 399 -17 m 272 1040 l 467 1040 l 360 810 l 211 810 l 272 1040 m 518 1040 l 713 1040 l 606 810 l 458 810 l 518 1040 z "},"ū":{"ha":865,"x_min":63,"x_max":786,"o":"m 307 -17 q 210 -1 254 -17 q 133 49 165 15 q 81 133 100 82 q 63 253 63 183 l 63 726 l 311 726 l 311 293 q 337 201 311 232 q 414 171 363 171 q 504 204 471 171 q 538 308 538 238 l 538 726 l 786 726 l 786 0 l 538 0 l 538 113 q 453 19 508 56 q 307 -17 399 -17 m 211 989 l 638 989 l 638 850 l 211 850 l 211 989 z "},"ų":{"ha":865,"x_min":68,"x_max":799,"o":"m 674 -253 q 556 -223 599 -253 q 513 -140 513 -193 q 523 -92 513 -114 q 550 -54 533 -71 q 588 -24 567 -37 q 632 0 610 -11 l 543 0 l 543 113 q 459 19 514 56 q 313 -17 404 -17 q 215 -1 260 -17 q 139 49 171 15 q 87 133 106 82 q 68 253 68 183 l 68 726 l 317 726 l 317 293 q 342 201 317 232 q 419 171 368 171 q 510 204 476 171 q 543 308 543 238 l 543 726 l 792 726 l 792 17 q 732 -40 749 -15 q 715 -87 715 -64 q 726 -117 715 -107 q 757 -126 738 -126 q 779 -124 769 -126 q 799 -119 789 -122 l 799 -231 q 749 -246 779 -239 q 674 -253 719 -253 z "},"ů":{"ha":865,"x_min":63,"x_max":786,"o":"m 307 -17 q 210 -1 254 -17 q 133 49 165 15 q 81 133 100 82 q 63 253 63 183 l 63 726 l 311 726 l 311 293 q 337 201 311 232 q 414 171 363 171 q 504 204 471 171 q 538 308 538 238 l 538 726 l 786 726 l 786 0 l 538 0 l 538 113 q 453 19 508 56 q 307 -17 399 -17 m 424 860 q 469 879 451 860 q 488 929 488 899 q 469 981 488 961 q 424 1000 451 1000 q 378 981 396 1000 q 360 929 360 961 q 378 879 360 899 q 424 860 396 860 m 424 771 q 360 783 390 771 q 308 818 331 796 q 273 867 286 839 q 260 929 260 896 q 273 991 260 963 q 308 1042 286 1019 q 360 1076 331 1064 q 424 1089 390 1089 q 487 1076 457 1089 q 539 1042 517 1064 q 574 991 561 1019 q 588 929 588 963 q 574 867 588 896 q 539 818 561 839 q 487 783 517 796 q 424 771 457 771 z "},"ũ":{"ha":865,"x_min":63,"x_max":786,"o":"m 307 -17 q 210 -1 254 -17 q 133 49 165 15 q 81 133 100 82 q 63 253 63 183 l 63 726 l 311 726 l 311 293 q 337 201 311 232 q 414 171 363 171 q 504 204 471 171 q 538 308 538 238 l 538 726 l 786 726 l 786 0 l 538 0 l 538 113 q 453 19 508 56 q 307 -17 399 -17 m 514 815 q 462 822 485 815 q 419 839 439 829 q 384 854 400 847 q 351 861 368 861 q 323 849 335 861 q 308 817 311 836 l 174 817 q 224 980 181 926 q 333 1033 268 1033 q 384 1026 361 1033 q 428 1010 407 1018 q 465 994 447 1001 q 499 986 482 986 q 528 999 518 986 q 543 1031 539 1011 l 678 1031 q 623 869 669 922 q 514 815 576 815 z "},"ẃ":{"ha":1174,"x_min":13,"x_max":1163,"o":"m 13 726 l 272 726 l 378 292 l 500 726 l 700 726 l 808 292 l 926 726 l 1163 726 l 932 0 l 694 0 l 586 406 l 474 0 l 232 0 l 13 726 m 585 1040 l 835 1040 l 689 810 l 511 810 l 585 1040 z "},"ŵ":{"ha":1174,"x_min":13,"x_max":1163,"o":"m 13 726 l 272 726 l 378 292 l 500 726 l 700 726 l 808 292 l 926 726 l 1163 726 l 932 0 l 694 0 l 586 406 l 474 0 l 232 0 l 13 726 m 500 1039 l 678 1039 l 842 813 l 668 813 l 583 890 l 500 813 l 329 813 l 500 1039 z "},"ẅ":{"ha":1174,"x_min":13,"x_max":1163,"o":"m 13 726 l 272 726 l 378 292 l 500 726 l 700 726 l 808 292 l 926 726 l 1163 726 l 932 0 l 694 0 l 586 406 l 474 0 l 232 0 l 13 726 m 450 806 q 403 815 425 806 q 367 839 382 824 q 341 876 350 854 q 332 921 332 897 q 341 966 332 944 q 367 1004 350 988 q 403 1028 382 1019 q 450 1038 425 1038 q 535 1003 500 1038 q 569 921 569 969 q 535 839 569 872 q 450 806 500 806 m 746 806 q 662 839 696 806 q 628 921 628 872 q 662 1003 628 969 q 746 1038 696 1038 q 831 1003 796 1038 q 865 921 865 969 q 831 839 865 872 q 746 806 796 806 z "},"ẁ":{"ha":1174,"x_min":13,"x_max":1163,"o":"m 13 726 l 272 726 l 378 292 l 500 726 l 700 726 l 808 292 l 926 726 l 1163 726 l 932 0 l 694 0 l 586 406 l 474 0 l 232 0 l 13 726 m 371 1040 l 621 1040 l 694 810 l 517 810 l 371 1040 z "},"ŷ":{"ha":818,"x_min":6,"x_max":801,"o":"m 296 74 l 6 726 l 275 726 l 425 339 l 564 726 l 801 726 l 413 -243 l 175 -243 l 296 74 m 328 1039 l 506 1039 l 669 813 l 496 813 l 411 890 l 328 813 l 157 813 l 328 1039 z "},"ỳ":{"ha":818,"x_min":6,"x_max":801,"o":"m 296 74 l 6 726 l 275 726 l 425 339 l 564 726 l 801 726 l 413 -243 l 175 -243 l 296 74 m 189 1040 l 439 1040 l 513 810 l 335 810 l 189 1040 z "},"ź":{"ha":706,"x_min":8,"x_max":682,"o":"m 8 25 l 326 539 l 42 539 l 42 726 l 682 726 l 682 700 l 356 188 l 665 188 l 665 0 l 8 0 l 8 25 m 333 1040 l 583 1040 l 438 810 l 260 810 l 333 1040 z "},"ż":{"ha":706,"x_min":8,"x_max":682,"o":"m 8 25 l 326 539 l 42 539 l 42 726 l 682 726 l 682 700 l 356 188 l 665 188 l 665 0 l 8 0 l 8 25 m 357 804 q 261 840 299 804 q 224 929 224 875 q 262 1017 224 982 q 357 1053 300 1053 q 451 1017 414 1053 q 489 929 489 982 q 451 840 489 875 q 357 804 414 804 z "},"ﬀ":{"ha":994,"x_min":19,"x_max":968,"o":"m 111 557 l 19 557 l 19 726 l 111 726 l 111 782 q 188 982 111 917 q 394 1047 265 1047 q 456 1044 429 1047 q 506 1033 482 1040 l 506 851 q 476 858 492 856 q 439 861 460 861 q 378 839 397 861 q 358 782 358 817 l 358 726 l 569 726 l 569 790 q 590 908 569 858 q 647 992 610 958 q 738 1041 685 1025 q 854 1057 790 1057 q 916 1053 889 1057 q 968 1042 943 1049 l 968 860 q 938 867 954 864 q 900 869 921 869 q 838 848 857 869 q 818 790 818 826 l 818 726 l 965 726 l 965 557 l 818 557 l 818 0 l 569 0 l 569 557 l 358 557 l 358 0 l 111 0 l 111 557 z "},"⅛":{"ha":1126,"x_min":32,"x_max":1089,"o":"m 146 815 l 32 751 l 32 900 l 174 993 l 332 993 l 332 471 l 146 471 l 146 815 m 846 993 l 976 993 l 199 0 l 68 0 l 846 993 m 851 -10 q 675 31 736 -10 q 614 147 614 71 q 638 224 614 189 q 710 274 661 258 q 656 313 676 288 q 636 379 636 339 q 653 444 636 415 q 700 492 671 472 q 769 519 729 510 q 853 529 808 529 q 1008 491 947 529 q 1069 381 1069 453 q 1049 314 1069 339 q 996 275 1029 289 q 1067 227 1044 260 q 1089 153 1089 194 q 1028 33 1089 76 q 851 -10 967 -10 m 853 114 q 893 128 876 114 q 910 167 910 143 q 894 206 910 190 q 853 221 878 221 q 811 206 828 221 q 794 167 794 192 q 811 128 794 142 q 853 114 828 114 m 853 315 q 890 328 875 315 q 904 364 904 342 q 890 399 904 386 q 853 411 875 411 q 817 398 833 411 q 801 364 801 385 q 817 328 801 342 q 853 315 833 315 z "},"⅓":{"ha":1129,"x_min":32,"x_max":1092,"o":"m 146 815 l 32 751 l 32 900 l 174 993 l 332 993 l 332 471 l 146 471 l 146 815 m 860 993 l 990 993 l 213 0 l 82 0 l 860 993 m 863 -10 q 758 4 801 -10 q 686 43 714 18 q 644 102 658 68 q 629 176 631 136 l 790 176 q 808 135 793 151 q 853 118 822 118 q 894 130 881 118 q 907 165 907 142 q 892 201 907 189 q 844 213 876 213 l 803 213 l 803 315 l 844 315 q 892 327 878 315 q 907 363 907 339 q 895 392 907 381 q 860 403 883 403 q 821 390 836 403 q 801 350 806 376 l 640 350 q 701 479 647 429 q 864 529 756 529 q 1024 492 967 529 q 1081 385 1081 454 q 1056 313 1081 340 q 986 272 1031 285 q 1063 235 1033 265 q 1092 158 1092 206 q 1035 37 1092 83 q 863 -10 978 -10 z "},"⅜":{"ha":1182,"x_min":29,"x_max":1144,"o":"m 263 461 q 158 475 201 461 q 86 514 114 489 q 44 573 58 539 q 29 647 31 607 l 190 647 q 208 606 193 622 q 253 589 222 589 q 294 601 281 589 q 307 636 307 613 q 292 672 307 660 q 244 683 276 683 l 203 683 l 203 786 l 244 786 q 292 798 278 786 q 307 833 307 810 q 295 863 307 851 q 260 874 283 874 q 221 860 236 874 q 201 821 206 847 l 40 821 q 101 950 47 900 q 264 1000 156 1000 q 424 963 367 1000 q 481 856 481 925 q 456 783 481 811 q 386 743 431 756 q 463 706 433 736 q 492 629 492 676 q 435 508 492 554 q 263 461 378 461 m 918 993 l 1049 993 l 271 0 l 140 0 l 918 993 m 907 -10 q 731 31 792 -10 q 669 147 669 71 q 693 224 669 189 q 765 274 717 258 q 712 313 732 288 q 692 379 692 339 q 709 444 692 415 q 756 492 726 472 q 824 519 785 510 q 908 529 864 529 q 1064 491 1003 529 q 1125 381 1125 453 q 1105 314 1125 339 q 1051 275 1085 289 q 1122 227 1100 260 q 1144 153 1144 194 q 1083 33 1144 76 q 907 -10 1022 -10 m 908 114 q 949 128 932 114 q 965 167 965 143 q 949 206 965 190 q 908 221 933 221 q 867 206 883 221 q 850 167 850 192 q 867 128 850 142 q 908 114 883 114 m 908 315 q 945 328 931 315 q 960 364 960 342 q 945 399 960 386 q 908 411 931 411 q 873 398 889 411 q 857 364 857 385 q 873 328 857 342 q 908 315 889 315 z "},"⅝":{"ha":1163,"x_min":31,"x_max":1125,"o":"m 253 461 q 154 474 196 461 q 86 511 113 488 q 45 567 58 535 q 31 636 32 599 l 197 636 q 211 607 200 618 q 250 596 222 596 q 286 611 274 596 q 299 653 299 626 q 285 694 299 681 q 246 708 272 708 q 209 699 222 708 q 189 675 196 689 l 47 675 l 63 993 l 453 993 l 453 864 l 189 864 l 185 753 q 232 799 201 778 q 321 819 263 819 q 439 778 394 819 q 483 656 483 736 q 424 513 483 565 q 253 461 364 461 m 897 993 l 1028 993 l 250 0 l 119 0 l 897 993 m 888 -10 q 711 31 772 -10 q 650 147 650 71 q 674 224 650 189 q 746 274 697 258 q 692 313 713 288 q 672 379 672 339 q 690 444 672 415 q 736 492 707 472 q 805 519 765 510 q 889 529 844 529 q 1044 491 983 529 q 1106 381 1106 453 q 1085 314 1106 339 q 1032 275 1065 289 q 1103 227 1081 260 q 1125 153 1125 194 q 1064 33 1125 76 q 888 -10 1003 -10 m 889 114 q 929 128 913 114 q 946 167 946 143 q 930 206 946 190 q 889 221 914 221 q 847 206 864 221 q 831 167 831 192 q 847 128 831 142 q 889 114 864 114 m 889 315 q 926 328 911 315 q 940 364 940 342 q 926 399 940 386 q 889 411 911 411 q 853 398 869 411 q 838 364 838 385 q 853 328 838 342 q 889 315 869 315 z "},"⅔":{"ha":1194,"x_min":6,"x_max":1153,"o":"m 6 494 l 183 679 q 253 756 228 724 q 278 821 278 789 q 267 854 278 843 q 235 865 257 865 q 197 847 211 865 q 179 793 183 829 l 13 793 q 77 948 15 896 q 243 1000 139 1000 q 406 952 353 1000 q 458 833 458 904 q 428 737 458 781 q 351 650 399 693 l 303 603 l 460 603 l 460 471 l 6 471 l 6 494 m 942 993 l 1072 993 l 294 0 l 164 0 l 942 993 m 924 -10 q 819 4 863 -10 q 747 43 775 18 q 706 102 719 68 q 690 176 692 136 l 851 176 q 869 135 854 151 q 914 118 883 118 q 955 130 942 118 q 968 165 968 142 q 953 201 968 189 q 906 213 938 213 l 864 213 l 864 315 l 906 315 q 953 327 939 315 q 968 363 968 339 q 956 392 968 381 q 921 403 944 403 q 882 390 897 403 q 863 350 867 376 l 701 350 q 763 479 708 429 q 925 529 817 529 q 1085 492 1028 529 q 1142 385 1142 454 q 1117 313 1142 340 q 1047 272 1092 285 q 1124 235 1094 265 q 1153 158 1153 206 q 1096 37 1153 83 q 924 -10 1039 -10 z "},"⅞":{"ha":1119,"x_min":31,"x_max":1082,"o":"m 236 849 l 31 849 l 31 993 l 467 993 l 467 975 l 278 471 l 94 471 l 236 849 m 828 993 l 958 993 l 181 0 l 50 0 l 828 993 m 844 -10 q 668 31 729 -10 q 607 147 607 71 q 631 224 607 189 q 703 274 654 258 q 649 313 669 288 q 629 379 629 339 q 647 444 629 415 q 693 492 664 472 q 762 519 722 510 q 846 529 801 529 q 1001 491 940 529 q 1063 381 1063 453 q 1042 314 1063 339 q 989 275 1022 289 q 1060 227 1038 260 q 1082 153 1082 194 q 1021 33 1082 76 q 844 -10 960 -10 m 846 114 q 886 128 869 114 q 903 167 903 143 q 887 206 903 190 q 846 221 871 221 q 804 206 821 221 q 788 167 788 192 q 804 128 788 142 q 846 114 821 114 m 846 315 q 883 328 868 315 q 897 364 897 342 q 883 399 897 386 q 846 411 868 411 q 810 398 826 411 q 794 364 794 385 q 810 328 794 342 q 846 315 826 315 z "},"":{"ha":586,"x_min":32,"x_max":554,"o":"m 293 601 q 351 633 332 601 q 369 728 369 665 l 369 739 q 351 834 369 806 q 292 863 332 863 q 235 833 251 863 q 218 738 218 804 l 218 728 q 235 632 218 663 q 293 601 253 601 m 289 461 q 99 530 165 461 q 32 726 32 599 l 32 738 q 51 849 32 800 q 107 932 71 899 q 189 983 142 965 q 293 1000 236 1000 q 395 985 347 1000 q 479 938 443 969 q 534 857 514 906 q 554 742 554 808 l 554 732 q 483 533 554 604 q 289 461 413 461 z "},"":{"ha":397,"x_min":28,"x_max":328,"o":"m 142 815 l 28 751 l 28 900 l 169 993 l 328 993 l 328 471 l 142 471 l 142 815 z "},"":{"ha":490,"x_min":7,"x_max":461,"o":"m 7 494 l 185 679 q 254 756 229 724 q 279 821 279 789 q 269 854 279 843 q 236 865 258 865 q 199 847 213 865 q 181 793 185 829 l 14 793 q 78 948 17 896 q 244 1000 140 1000 q 407 952 354 1000 q 460 833 460 904 q 430 737 460 781 q 353 650 400 693 l 304 603 l 461 603 l 461 471 l 7 471 l 7 494 z "},"":{"ha":519,"x_min":25,"x_max":488,"o":"m 258 461 q 153 475 197 461 q 82 514 110 489 q 40 573 54 539 q 25 647 26 607 l 186 647 q 203 606 189 622 q 249 589 218 589 q 290 601 276 589 q 303 636 303 613 q 288 672 303 660 q 240 683 272 683 l 199 683 l 199 786 l 240 786 q 288 798 274 786 q 303 833 303 810 q 291 863 303 851 q 256 874 279 874 q 217 860 232 874 q 197 821 201 847 l 36 821 q 97 950 43 900 q 260 1000 151 1000 q 419 963 363 1000 q 476 856 476 925 q 451 783 476 811 q 382 743 426 756 q 458 706 429 736 q 488 629 488 676 q 431 508 488 554 q 258 461 374 461 z "},"":{"ha":547,"x_min":17,"x_max":521,"o":"m 276 568 l 17 568 l 17 636 l 233 993 l 454 993 l 454 689 l 521 689 l 521 568 l 454 568 l 454 471 l 276 471 l 276 568 m 282 689 l 282 872 l 175 689 l 282 689 z "},"":{"ha":510,"x_min":26,"x_max":479,"o":"m 249 461 q 150 474 192 461 q 82 511 108 488 q 41 567 54 535 q 26 636 28 599 l 193 636 q 207 607 196 618 q 246 596 218 596 q 282 611 269 596 q 294 653 294 626 q 281 694 294 681 q 242 708 268 708 q 205 699 218 708 q 185 675 192 689 l 43 675 l 58 993 l 449 993 l 449 864 l 185 864 l 181 753 q 228 799 197 778 q 317 819 258 819 q 435 778 390 819 q 479 656 479 736 q 419 513 479 565 q 249 461 360 461 z "},"":{"ha":543,"x_min":32,"x_max":515,"o":"m 285 461 q 170 481 218 461 q 92 535 122 500 q 47 616 61 568 q 32 722 32 664 l 32 738 q 51 847 32 799 q 106 931 71 896 q 186 982 139 964 q 289 1000 233 1000 q 443 958 389 1000 q 504 836 497 915 l 336 836 q 324 860 333 850 q 292 871 315 871 q 237 838 254 871 q 217 751 219 806 q 261 792 233 776 q 339 808 289 808 q 407 799 375 808 q 464 771 439 790 q 501 722 488 751 q 515 649 515 692 q 454 513 515 564 q 285 461 393 461 m 282 583 q 324 601 308 583 q 339 646 339 618 q 323 689 339 672 q 282 706 307 706 q 241 688 256 706 q 226 646 226 669 q 241 601 226 618 q 282 583 256 583 z "},"":{"ha":476,"x_min":26,"x_max":463,"o":"m 232 849 l 26 849 l 26 993 l 463 993 l 463 975 l 274 471 l 90 471 l 232 849 z "},"":{"ha":528,"x_min":26,"x_max":501,"o":"m 264 461 q 88 501 149 461 q 26 618 26 542 q 50 694 26 660 q 122 744 74 729 q 69 784 89 758 q 49 850 49 810 q 66 915 49 886 q 113 963 83 943 q 181 990 142 981 q 265 1000 221 1000 q 421 962 360 1000 q 482 851 482 924 q 462 785 482 810 q 408 746 442 760 q 479 698 457 731 q 501 624 501 665 q 440 504 501 547 q 264 461 379 461 m 265 585 q 306 599 289 585 q 322 638 322 614 q 306 676 322 661 q 265 692 290 692 q 224 677 240 692 q 207 638 207 663 q 224 599 207 613 q 265 585 240 585 m 265 786 q 302 799 288 786 q 317 835 317 813 q 302 869 317 857 q 265 882 288 882 q 230 869 246 882 q 214 835 214 856 q 230 799 214 813 q 265 786 246 786 z "},"":{"ha":543,"x_min":29,"x_max":513,"o":"m 258 461 q 101 504 158 461 q 36 626 43 547 l 206 626 q 219 601 208 611 q 254 592 229 592 q 310 623 294 592 q 328 708 326 654 q 285 669 310 685 q 213 654 261 654 q 140 663 174 654 q 82 692 107 672 q 43 740 57 710 q 29 815 29 771 q 90 950 29 899 q 258 1001 151 1001 q 372 982 324 1001 q 451 928 419 963 q 497 845 482 893 q 513 740 513 797 l 513 726 q 448 531 513 600 q 258 461 383 461 m 258 757 q 301 774 286 757 q 315 815 315 790 q 301 861 315 843 q 258 879 286 879 q 218 862 233 879 q 203 817 203 844 q 217 774 203 792 q 258 757 232 757 z "},"":{"ha":586,"x_min":26,"x_max":549,"o":"m 288 131 q 345 163 326 131 q 364 257 364 194 l 364 268 q 345 363 364 335 q 286 392 326 392 q 229 363 246 392 q 213 267 213 333 l 213 257 q 230 161 213 192 q 288 131 247 131 m 283 -10 q 93 59 160 -10 q 26 256 26 128 l 26 267 q 46 378 26 329 q 101 461 65 428 q 183 512 136 494 q 288 529 231 529 q 390 514 342 529 q 474 467 438 499 q 528 386 508 435 q 549 271 549 338 l 549 261 q 478 62 549 133 q 283 -10 407 -10 z "},"":{"ha":399,"x_min":28,"x_max":328,"o":"m 142 344 l 28 281 l 28 429 l 169 522 l 328 522 l 328 0 l 142 0 l 142 344 z "},"":{"ha":492,"x_min":1,"x_max":456,"o":"m 1 24 l 179 208 q 249 285 224 253 q 274 350 274 318 q 263 383 274 372 q 231 394 253 394 q 193 376 207 394 q 175 322 179 358 l 8 322 q 73 477 11 425 q 239 529 135 529 q 401 481 349 529 q 454 363 454 433 q 424 266 454 310 q 347 179 394 222 l 299 132 l 456 132 l 456 0 l 1 0 l 1 24 z "},"":{"ha":519,"x_min":25,"x_max":488,"o":"m 258 -10 q 153 4 197 -10 q 82 43 110 18 q 40 102 54 68 q 25 176 26 136 l 186 176 q 203 135 189 151 q 249 118 218 118 q 290 130 276 118 q 303 165 303 142 q 288 201 303 189 q 240 213 272 213 l 199 213 l 199 315 l 240 315 q 288 327 274 315 q 303 363 303 339 q 291 392 303 381 q 256 403 279 403 q 217 390 232 403 q 197 350 201 376 l 36 350 q 97 479 43 429 q 260 529 151 529 q 419 492 363 529 q 476 385 476 454 q 451 313 476 340 q 382 272 426 285 q 458 235 429 265 q 488 158 488 206 q 431 37 488 83 q 258 -10 374 -10 z "},"":{"ha":549,"x_min":11,"x_max":515,"o":"m 271 97 l 11 97 l 11 165 l 228 522 l 449 522 l 449 218 l 515 218 l 515 97 l 449 97 l 449 0 l 271 0 l 271 97 m 276 218 l 276 401 l 169 218 l 276 218 z "},"":{"ha":510,"x_min":26,"x_max":479,"o":"m 249 -10 q 150 3 192 -10 q 82 40 108 17 q 41 96 54 64 q 26 165 28 128 l 193 165 q 207 136 196 147 q 246 125 218 125 q 282 140 269 125 q 294 182 294 156 q 281 224 294 210 q 242 238 268 238 q 205 228 218 238 q 185 204 192 218 l 43 204 l 58 522 l 449 522 l 449 393 l 185 393 l 181 282 q 228 328 197 307 q 317 349 258 349 q 435 307 390 349 q 479 185 479 265 q 419 42 479 94 q 249 -10 360 -10 z "},"":{"ha":544,"x_min":32,"x_max":515,"o":"m 285 -10 q 170 10 218 -10 q 92 64 122 29 q 47 145 61 97 q 32 251 32 193 l 32 267 q 51 376 32 328 q 106 460 71 425 q 186 511 139 493 q 289 529 233 529 q 443 487 389 529 q 504 365 497 444 l 336 365 q 324 390 333 379 q 292 400 315 400 q 237 367 254 400 q 217 281 219 335 q 261 322 233 306 q 339 338 289 338 q 407 328 375 338 q 464 300 439 319 q 501 251 488 281 q 515 178 515 221 q 454 42 515 93 q 285 -10 393 -10 m 282 113 q 324 130 308 113 q 339 175 339 147 q 323 218 339 201 q 282 235 307 235 q 241 217 256 235 q 226 175 226 199 q 241 130 226 147 q 282 113 256 113 z "},"":{"ha":478,"x_min":21,"x_max":457,"o":"m 226 378 l 21 378 l 21 522 l 457 522 l 457 504 l 268 0 l 85 0 l 226 378 z "},"":{"ha":529,"x_min":21,"x_max":496,"o":"m 258 -10 q 82 31 143 -10 q 21 147 21 71 q 44 224 21 189 q 117 274 68 258 q 63 313 83 288 q 43 379 43 339 q 60 444 43 415 q 107 492 78 472 q 176 519 136 510 q 260 529 215 529 q 415 491 354 529 q 476 381 476 453 q 456 314 476 339 q 403 275 436 289 q 474 227 451 260 q 496 153 496 194 q 435 33 496 76 q 258 -10 374 -10 m 260 114 q 300 128 283 114 q 317 167 317 143 q 301 206 317 190 q 260 221 285 221 q 218 206 235 221 q 201 167 201 192 q 218 128 201 142 q 260 114 235 114 m 260 315 q 297 328 282 315 q 311 364 311 342 q 297 399 311 386 q 260 411 282 411 q 224 398 240 411 q 208 364 208 385 q 224 328 208 342 q 260 315 240 315 z "},"":{"ha":544,"x_min":24,"x_max":507,"o":"m 253 -11 q 95 32 153 -11 q 31 154 38 75 l 200 154 q 213 129 203 139 q 249 119 224 119 q 305 151 289 119 q 322 236 321 182 q 280 197 304 213 q 207 182 256 182 q 135 191 168 182 q 76 219 101 200 q 38 268 51 238 q 24 343 24 299 q 85 478 24 426 q 253 529 146 529 q 366 510 318 529 q 446 456 414 490 q 492 373 476 421 q 507 268 507 325 l 507 254 q 442 58 507 128 q 253 -11 378 -11 m 253 285 q 295 301 281 285 q 310 343 310 318 q 295 389 310 371 q 253 407 281 407 q 213 390 228 407 q 197 344 197 372 q 212 302 197 319 q 253 285 226 285 z "},"₀":{"ha":586,"x_min":26,"x_max":549,"o":"m 288 -36 q 345 -4 326 -36 q 364 90 364 28 l 364 101 q 345 197 364 168 q 286 225 326 225 q 229 196 246 225 q 213 100 213 167 l 213 90 q 230 -6 213 25 q 288 -36 247 -36 m 283 -176 q 93 -108 160 -176 q 26 89 26 -39 l 26 100 q 46 212 26 163 q 101 294 65 261 q 183 345 136 328 q 288 363 231 363 q 390 347 342 363 q 474 300 438 332 q 528 219 508 268 q 549 104 549 171 l 549 94 q 478 -105 549 -33 q 283 -176 407 -176 z "},"₁":{"ha":399,"x_min":28,"x_max":328,"o":"m 142 178 l 28 114 l 28 263 l 169 356 l 328 356 l 328 -167 l 142 -167 l 142 178 z "},"₂":{"ha":492,"x_min":7,"x_max":461,"o":"m 7 -143 l 185 42 q 254 119 229 86 q 279 183 279 151 q 269 217 279 206 q 236 228 258 228 q 199 210 213 228 q 181 156 185 192 l 14 156 q 78 310 17 258 q 244 363 140 363 q 407 315 354 363 q 460 196 460 267 q 430 99 460 143 q 353 13 400 56 l 304 -35 l 461 -35 l 461 -167 l 7 -167 l 7 -143 z "},"₃":{"ha":519,"x_min":19,"x_max":482,"o":"m 253 -176 q 148 -162 192 -176 q 76 -124 104 -149 q 35 -65 49 -99 q 19 10 21 -31 l 181 10 q 198 -32 183 -15 q 243 -49 213 -49 q 284 -37 271 -49 q 297 -1 297 -25 q 282 34 297 22 q 235 46 267 46 l 193 46 l 193 149 l 235 149 q 283 160 268 149 q 297 196 297 172 q 285 225 297 214 q 250 236 274 236 q 211 223 226 236 q 192 183 196 210 l 31 183 q 92 313 38 263 q 254 363 146 363 q 414 325 357 363 q 471 218 471 288 q 446 146 471 174 q 376 106 421 118 q 453 69 424 99 q 482 -8 482 39 q 425 -130 482 -83 q 253 -176 368 -176 z "},"₄":{"ha":549,"x_min":11,"x_max":515,"o":"m 271 -69 l 11 -69 l 11 -1 l 228 356 l 449 356 l 449 51 l 515 51 l 515 -69 l 449 -69 l 449 -167 l 271 -167 l 271 -69 m 276 51 l 276 235 l 169 51 l 276 51 z "},"₅":{"ha":510,"x_min":26,"x_max":479,"o":"m 249 -176 q 150 -163 192 -176 q 82 -126 108 -150 q 41 -71 54 -103 q 26 -1 28 -39 l 193 -1 q 207 -31 196 -19 q 246 -42 218 -42 q 282 -26 269 -42 q 294 15 294 -11 q 281 57 294 43 q 242 71 268 71 q 205 61 218 71 q 185 38 192 51 l 43 38 l 58 356 l 449 356 l 449 226 l 185 226 l 181 115 q 228 161 197 140 q 317 182 258 182 q 435 140 390 182 q 479 18 479 99 q 419 -124 479 -72 q 249 -176 360 -176 z "},"₆":{"ha":544,"x_min":32,"x_max":515,"o":"m 285 -176 q 170 -157 218 -176 q 92 -103 122 -137 q 47 -22 61 -69 q 32 85 32 26 l 32 100 q 51 210 32 161 q 106 293 71 258 q 186 344 139 326 q 289 363 233 363 q 443 320 389 363 q 504 199 497 278 l 336 199 q 324 223 333 213 q 292 233 315 233 q 237 201 254 233 q 217 114 219 168 q 261 155 233 139 q 339 171 289 171 q 407 162 375 171 q 464 133 439 153 q 501 84 488 114 q 515 11 515 54 q 454 -125 515 -74 q 285 -176 393 -176 m 282 -54 q 324 -37 308 -54 q 339 8 339 -19 q 323 51 339 35 q 282 68 307 68 q 241 50 256 68 q 226 8 226 32 q 241 -37 226 -19 q 282 -54 256 -54 z "},"₇":{"ha":478,"x_min":21,"x_max":457,"o":"m 226 211 l 21 211 l 21 356 l 457 356 l 457 338 l 268 -167 l 85 -167 l 226 211 z "},"₈":{"ha":529,"x_min":21,"x_max":496,"o":"m 258 -176 q 82 -136 143 -176 q 21 -19 21 -96 q 44 57 21 22 q 117 107 68 92 q 63 147 83 121 q 43 213 43 172 q 60 277 43 249 q 107 325 78 306 q 176 353 136 343 q 260 363 215 363 q 415 324 354 363 q 476 214 476 286 q 456 147 476 172 q 403 108 436 122 q 474 60 451 93 q 496 -14 496 28 q 435 -133 496 -90 q 258 -176 374 -176 m 260 -53 q 300 -38 283 -53 q 317 0 317 -24 q 301 39 317 24 q 260 54 285 54 q 218 40 235 54 q 201 0 201 25 q 218 -39 201 -25 q 260 -53 235 -53 m 260 149 q 297 162 282 149 q 311 197 311 175 q 297 232 311 219 q 260 244 282 244 q 224 231 240 244 q 208 197 208 218 q 224 162 208 175 q 260 149 240 149 z "},"₉":{"ha":544,"x_min":24,"x_max":507,"o":"m 253 -176 q 95 -133 153 -176 q 31 -11 38 -90 l 200 -11 q 213 -36 203 -26 q 249 -46 224 -46 q 305 -15 289 -46 q 322 71 321 17 q 280 32 304 47 q 207 17 256 17 q 135 26 168 17 q 76 54 101 35 q 38 103 51 72 q 24 178 24 133 q 85 313 24 261 q 253 364 146 364 q 366 344 318 364 q 446 290 414 325 q 492 208 476 256 q 507 103 507 160 l 507 89 q 442 -107 507 -37 q 253 -176 378 -176 m 253 119 q 295 136 281 119 q 310 178 310 153 q 295 224 310 206 q 253 242 281 242 q 213 224 228 242 q 197 179 197 207 q 212 137 197 154 q 253 119 226 119 z "},"₊":{"ha":496,"x_min":49,"x_max":447,"o":"m 182 38 l 49 38 l 49 167 l 182 167 l 182 304 l 314 304 l 314 167 l 447 167 l 447 38 l 314 38 l 314 -99 l 182 -99 l 182 38 z "},"₋":{"ha":496,"x_min":49,"x_max":447,"o":"m 49 167 l 447 167 l 447 38 l 49 38 l 49 167 z "},"⁰":{"ha":586,"x_min":26,"x_max":549,"o":"m 288 682 q 345 714 326 682 q 364 808 364 746 l 364 819 q 345 915 364 886 q 286 943 326 943 q 229 914 246 943 q 213 818 213 885 l 213 808 q 230 713 213 743 q 288 682 247 682 m 283 542 q 93 610 160 542 q 26 807 26 679 l 26 818 q 46 930 26 881 q 101 1013 65 979 q 183 1063 136 1046 q 288 1081 231 1081 q 390 1065 342 1081 q 474 1018 438 1050 q 528 938 508 986 q 549 822 549 889 l 549 813 q 478 613 549 685 q 283 542 407 542 z "},"⁴":{"ha":549,"x_min":11,"x_max":515,"o":"m 271 649 l 11 649 l 11 717 l 228 1074 l 449 1074 l 449 769 l 515 769 l 515 649 l 449 649 l 449 551 l 271 551 l 271 649 m 276 769 l 276 953 l 169 769 l 276 769 z "},"⁵":{"ha":510,"x_min":26,"x_max":479,"o":"m 249 542 q 150 555 192 542 q 82 592 108 568 q 41 647 54 615 q 26 717 28 679 l 193 717 q 207 688 196 699 q 246 676 218 676 q 282 692 269 676 q 294 733 294 707 q 281 775 294 761 q 242 789 268 789 q 205 779 218 789 q 185 756 192 769 l 43 756 l 58 1074 l 449 1074 l 449 944 l 185 944 l 181 833 q 228 879 197 858 q 317 900 258 900 q 435 858 390 900 q 479 736 479 817 q 419 594 479 646 q 249 542 360 542 z "},"⁶":{"ha":544,"x_min":32,"x_max":515,"o":"m 285 542 q 170 561 218 542 q 92 615 122 581 q 47 697 61 649 q 32 803 32 744 l 32 818 q 51 928 32 879 q 106 1011 71 976 q 186 1063 139 1044 q 289 1081 233 1081 q 443 1038 389 1081 q 504 917 497 996 l 336 917 q 324 941 333 931 q 292 951 315 951 q 237 919 254 951 q 217 832 219 886 q 261 873 233 857 q 339 889 289 889 q 407 880 375 889 q 464 851 439 871 q 501 802 488 832 q 515 729 515 772 q 454 593 515 644 q 285 542 393 542 m 282 664 q 324 681 308 664 q 339 726 339 699 q 323 769 339 753 q 282 786 307 786 q 241 768 256 786 q 226 726 226 750 q 241 681 226 699 q 282 664 256 664 z "},"⁷":{"ha":478,"x_min":21,"x_max":457,"o":"m 226 929 l 21 929 l 21 1074 l 457 1074 l 457 1056 l 268 551 l 85 551 l 226 929 z "},"⁸":{"ha":529,"x_min":21,"x_max":496,"o":"m 258 542 q 82 582 143 542 q 21 699 21 622 q 44 775 21 740 q 117 825 68 810 q 63 865 83 839 q 43 931 43 890 q 60 995 43 967 q 107 1043 78 1024 q 176 1071 136 1061 q 260 1081 215 1081 q 415 1042 354 1081 q 476 932 476 1004 q 456 865 476 890 q 403 826 436 840 q 474 778 451 811 q 496 704 496 746 q 435 585 496 628 q 258 542 374 542 m 260 665 q 300 680 283 665 q 317 718 317 694 q 301 757 317 742 q 260 772 285 772 q 218 758 235 772 q 201 718 201 743 q 218 679 201 693 q 260 665 235 665 m 260 867 q 297 880 282 867 q 311 915 311 893 q 297 950 311 938 q 260 963 282 963 q 224 949 240 963 q 208 915 208 936 q 224 880 208 893 q 260 867 240 867 z "},"⁹":{"ha":544,"x_min":24,"x_max":507,"o":"m 253 542 q 95 585 153 542 q 31 707 38 628 l 200 707 q 213 682 203 692 q 249 672 224 672 q 305 703 289 672 q 322 789 321 735 q 280 750 304 765 q 207 735 256 735 q 135 744 168 735 q 76 772 101 753 q 38 821 51 790 q 24 896 24 851 q 85 1031 24 979 q 253 1082 146 1082 q 366 1063 318 1082 q 446 1008 414 1043 q 492 926 476 974 q 507 821 507 878 l 507 807 q 442 611 507 681 q 253 542 378 542 m 253 838 q 295 854 281 838 q 310 896 310 871 q 295 942 310 924 q 253 960 281 960 q 213 942 228 960 q 197 897 197 925 q 212 855 197 872 q 253 838 226 838 z "},"⁺":{"ha":496,"x_min":49,"x_max":447,"o":"m 182 756 l 49 756 l 49 885 l 182 885 l 182 1022 l 314 1022 l 314 885 l 447 885 l 447 756 l 314 756 l 314 619 l 182 619 l 182 756 z "},"⁻":{"ha":496,"x_min":49,"x_max":447,"o":"m 49 885 l 447 885 l 447 756 l 49 756 l 49 885 z "},"ȷ":{"ha":410,"x_min":-8,"x_max":328,"o":"m -8 -75 q 59 -52 38 -72 q 81 11 81 -32 l 81 726 l 328 726 l 328 6 q 313 -101 328 -53 q 258 -185 297 -150 q 155 -237 219 -218 q -8 -256 90 -256 l -8 -75 z "}," ":{"ha":121,"x_min":0,"x_max":0,"o":""},"′":{"ha":347,"x_min":49,"x_max":311,"o":"m 76 993 l 311 993 l 224 611 l 49 611 l 76 993 z "},"″":{"ha":642,"x_min":49,"x_max":606,"o":"m 76 993 l 311 993 l 224 611 l 49 611 l 76 993 m 372 993 l 606 993 l 519 611 l 343 611 l 372 993 z "},"Ⓟ":{"ha":1171,"x_min":51,"x_max":1119,"o":"m 388 779 l 608 779 q 783 728 729 779 q 838 589 838 678 l 838 585 q 782 449 838 496 q 618 403 726 403 l 561 403 l 561 219 l 388 219 l 388 779 m 599 521 q 655 537 636 521 q 674 585 674 553 l 674 589 q 656 634 674 619 q 600 649 638 649 l 561 649 l 561 521 l 599 521 m 583 43 q 757 76 675 43 q 900 169 839 108 q 997 313 961 229 q 1032 499 1032 396 q 997 682 1032 599 q 903 825 963 765 q 760 917 842 885 q 586 950 679 950 q 410 917 492 950 q 269 824 329 883 q 174 681 208 764 q 139 496 139 597 q 174 310 139 393 q 271 168 210 226 q 412 76 331 108 q 583 43 493 43 m 583 -28 q 376 13 472 -28 q 207 124 279 53 q 93 289 135 193 q 51 496 51 385 q 93 701 51 606 q 207 868 135 797 q 376 980 279 939 q 586 1021 474 1021 q 797 981 700 1021 q 967 869 894 940 q 1078 703 1038 799 q 1119 499 1119 608 q 1078 290 1119 386 q 964 124 1036 194 q 794 13 892 53 q 583 -28 696 -28 z "}}}
